{"glyphs":{"0":{"ha":665,"x_min":60,"x_max":689,"o":"m 211 -15 q 96 40 138 -15 q 60 165 60 89 q 138 425 60 272 q 224 568 178 503 q 326 686 271 633 q 560 804 449 804 q 689 650 689 804 q 672 526 689 593 q 621 381 654 458 q 446 108 550 217 q 211 -15 326 -15 m 228 13 q 417 147 315 13 q 572 431 503 263 q 636 676 636 588 q 561 778 636 778 q 372 642 479 778 q 211 358 281 524 q 143 117 143 200 q 228 13 143 13 z "},"1":{"ha":424,"x_min":72,"x_max":513,"o":"m 86 -3 q 83 -2 86 -3 q 74 0 81 -1 l 72 8 q 389 678 72 15 q 284 585 338 628 q 176 507 231 543 l 171 507 l 165 518 l 167 526 q 243 588 213 563 q 290 628 274 614 q 351 684 322 656 q 403 740 379 713 q 417 757 411 750 q 428 768 422 764 q 461 786 443 783 l 504 790 q 506 790 504 790 q 513 789 508 790 l 513 782 l 507 768 l 158 7 q 86 -3 151 1 z "},"2":{"ha":588,"x_min":-61,"x_max":636,"o":"m 271 -17 q 54 65 246 -17 l -43 -11 l -61 0 q -44 24 -60 4 q 4 78 -28 43 q 75 150 68 147 q 83 151 79 151 q 90 151 88 151 q 106 149 101 151 q 539 696 539 532 q 472 757 539 757 q 331 683 400 757 q 243 542 275 624 l 238 536 l 221 536 l 218 544 q 328 718 253 646 q 510 800 413 800 q 600 769 565 800 q 636 685 636 738 q 425 389 636 588 q 319 296 392 358 q 133 140 246 233 q 324 61 290 61 q 425 110 372 61 q 453 135 440 122 q 481 163 467 149 l 490 154 l 490 149 q 271 -17 353 -17 z "},"3":{"ha":511,"x_min":-97,"x_max":564,"o":"m 32 -15 q -97 18 -51 -15 l -97 25 l -87 33 l -81 36 q 17 15 -36 15 q 236 122 125 15 q 349 338 349 229 q 321 401 349 378 q 251 424 294 424 q 154 404 235 424 l 144 408 l 143 421 l 149 428 q 257 478 207 451 q 347 533 307 504 q 468 708 468 619 q 414 758 468 758 q 222 635 335 758 l 215 635 l 206 643 l 206 650 q 458 803 331 803 q 564 717 564 803 q 256 454 564 565 q 381 428 332 454 q 443 326 443 394 q 297 92 443 204 q 32 -15 157 -15 z "},"4":{"ha":607,"x_min":53,"x_max":589,"o":"m 278 -10 l 271 -8 l 271 -3 q 301 65 271 -1 q 390 261 331 131 l 54 253 l 53 264 q 83 310 60 279 q 147 383 107 340 l 258 504 q 354 626 311 569 q 431 731 397 683 q 458 762 443 750 q 488 779 474 774 q 529 788 508 783 q 569 794 550 792 l 579 790 l 581 781 q 104 285 589 742 l 406 290 l 483 465 q 561 492 493 486 l 569 488 l 571 479 q 492 294 572 478 l 525 294 l 533 289 l 528 274 l 518 267 l 478 265 q 426 142 454 206 q 365 11 397 79 q 325 -1 361 7 q 278 -10 288 -10 z "},"5":{"ha":599,"x_min":-36,"x_max":685,"o":"m 63 -18 q -36 -1 -11 -18 l -36 8 l -28 18 l -22 21 q 64 8 14 8 q 300 126 182 8 q 419 361 419 246 q 329 450 419 450 q 233 422 283 450 q 190 397 211 410 q 146 372 168 385 l 138 375 l 138 383 q 246 583 146 411 q 324 717 296 669 q 360 769 353 764 q 429 781 389 781 q 457 780 440 781 q 497 778 474 779 q 567 774 546 774 q 679 803 640 774 l 685 800 q 447 685 640 685 q 340 689 415 685 l 188 424 q 374 486 282 486 q 474 456 435 486 q 513 365 513 425 q 354 101 513 226 q 206 12 279 42 q 63 -18 132 -18 z "},"6":{"ha":574,"x_min":35,"x_max":585,"o":"m 185 -15 q 75 24 114 -15 q 35 133 35 64 q 229 518 35 300 q 567 815 371 679 l 575 817 l 585 801 q 538 753 571 781 q 498 722 511 733 q 483 710 485 711 q 304 514 386 621 q 117 103 117 268 q 136 42 117 68 q 193 17 157 17 q 372 150 285 17 q 454 369 454 274 q 407 425 454 425 q 282 343 344 425 q 240 278 258 313 q 206 204 221 243 l 200 197 l 186 196 l 183 204 q 275 376 206 297 q 440 468 354 468 q 513 438 488 468 q 539 358 539 407 q 422 113 539 240 q 185 -15 303 -15 z "},"7":{"ha":583,"x_min":-17,"x_max":718,"o":"m -6 -7 l -14 -3 l -17 3 q 61 106 -14 21 q 279 342 136 190 q 454 523 369 436 q 615 688 539 610 q 453 692 508 690 q 394 693 397 693 q 308 668 342 693 q 268 621 292 657 q 236 593 253 596 l 232 596 l 231 604 q 322 750 283 719 q 488 785 367 785 q 599 783 550 785 q 686 775 649 781 q 713 789 701 789 l 718 781 l 717 771 q 631 672 694 744 q 464 482 568 600 q 331 322 401 413 q 179 119 260 231 q 138 65 158 93 q 93 7 117 36 q -6 -7 83 1 z "},"8":{"ha":567,"x_min":10,"x_max":631,"o":"m 168 -15 q 58 19 106 -15 q 10 119 10 57 q 293 464 10 254 q 269 575 269 522 q 340 733 269 665 q 503 801 413 801 q 631 694 631 801 q 421 394 631 578 q 447 239 447 333 q 360 61 447 139 q 168 -15 271 -15 m 411 424 q 524 544 478 478 q 581 696 581 626 q 504 774 581 774 q 403 726 446 774 q 360 621 360 679 q 411 424 360 556 m 171 14 q 303 76 247 14 q 358 218 358 140 q 300 438 358 292 q 74 115 74 274 q 171 14 74 14 z "},"9":{"ha":586,"x_min":86,"x_max":614,"o":"m 93 -31 l 86 -18 l 92 -10 q 517 576 426 225 q 531 676 531 631 q 454 772 531 772 q 271 656 361 772 q 188 447 188 546 q 257 369 188 369 q 447 563 367 369 l 453 567 l 468 565 l 469 558 q 369 386 432 461 q 207 289 289 289 q 135 319 161 289 q 108 397 108 350 q 233 660 108 518 q 478 801 361 801 q 582 749 544 801 q 614 633 614 701 q 432 254 614 461 q 101 -31 293 96 l 93 -31 z "}," ":{"ha":275,"x_min":0,"x_max":0,"o":""}," ":{"ha":275,"x_min":0,"x_max":0,"o":""},"A":{"ha":842,"x_min":-412,"x_max":1021,"o":"m -307 -226 q -375 -210 -347 -226 q -412 -144 -412 -189 q -387 -75 -412 -106 q -324 -43 -360 -43 q -278 -62 -297 -43 q -261 -101 -261 -82 q -287 -158 -261 -136 q -337 -179 -310 -179 q -383 -160 -364 -179 q -326 -190 -375 -190 q -151 -92 -253 -190 q -72 -5 -114 -56 q 17 113 -29 46 q 76 201 47 157 q 136 289 106 244 q 35 582 35 444 q 71 710 35 661 q 167 758 108 758 q 393 608 275 758 q 665 842 526 746 q 972 971 851 971 q 1021 950 1021 971 q 1017 936 1021 944 q 667 176 704 376 q 662 140 664 157 q 660 110 660 124 q 731 22 660 22 q 933 294 803 22 q 949 311 939 308 l 950 311 q 956 301 956 311 q 949 279 956 293 q 887 156 910 201 q 856 97 864 110 q 778 7 817 36 q 701 -22 739 -22 q 611 14 654 -22 q 551 146 557 61 q 386 535 514 374 q 292 425 342 488 q 188 285 243 363 q 334 97 251 183 q 518 -58 417 11 q 528 -72 528 -64 q 519 -83 528 -83 q 507 -79 515 -83 q 426 -23 468 -56 q 339 53 385 10 q 244 149 288 100 q 163 250 200 199 q 13 40 68 117 q -57 -56 -42 -36 q -253 -218 -171 -197 q -307 -226 -279 -226 m 561 244 q 585 320 569 281 q 625 401 601 360 q 865 790 744 614 q 879 825 879 810 q 853 843 879 843 q 624 740 772 843 q 514 656 564 699 q 421 571 464 614 q 561 244 515 429 m 163 326 q 265 461 217 400 q 356 569 313 522 q 200 663 268 663 q 135 625 158 663 q 110 525 110 586 q 163 326 110 429 z "},"Æ":{"ha":1332,"x_min":-412,"x_max":1464,"o":"m -307 -226 q -375 -210 -347 -226 q -412 -144 -412 -189 q -387 -75 -412 -106 q -324 -43 -360 -43 q -279 -62 -296 -43 q -264 -104 -264 -79 q -287 -158 -264 -137 q -337 -179 -310 -179 q -383 -160 -364 -179 q -326 -190 -375 -190 q -151 -92 -253 -190 q -73 -5 -115 -56 q 17 113 -31 46 q 76 201 47 157 q 136 289 106 244 q 35 582 35 444 q 71 710 35 661 q 167 758 107 758 q 392 608 275 758 q 665 842 521 742 q 972 971 851 971 q 1021 950 1021 971 q 1017 936 1021 944 q 985 878 1001 908 q 951 817 968 849 q 1225 946 1046 915 q 1260 950 1243 949 q 1294 951 1278 951 q 1417 919 1369 951 q 1464 838 1464 889 q 1351 678 1464 757 q 951 571 1208 579 q 963 528 953 549 q 1010 528 986 529 q 1057 526 1033 528 q 1107 489 1107 522 q 1053 457 1107 457 q 933 506 982 457 q 725 354 801 485 q 693 269 707 307 q 672 201 679 232 q 668 150 668 175 q 715 -4 668 56 q 861 -69 768 -69 q 1119 26 1001 -69 q 1231 204 1231 117 q 1076 304 1231 304 q 886 224 1001 304 q 764 110 783 151 q 753 106 761 101 q 747 118 744 110 q 864 239 771 171 q 1090 336 981 326 q 1117 338 1104 338 q 1142 339 1131 339 q 1303 229 1303 339 q 1175 24 1303 126 q 861 -87 1035 -87 q 657 -32 742 -87 q 551 146 560 32 q 385 535 514 375 q 292 425 342 488 q 188 285 243 363 q 334 97 251 183 q 518 -58 417 11 q 528 -72 528 -64 q 519 -83 528 -83 q 507 -79 515 -83 q 426 -23 468 -56 q 339 53 385 10 q 244 149 288 100 q 163 250 200 199 q 13 40 68 117 q -57 -56 -42 -36 q -253 -218 -171 -197 q -307 -226 -279 -226 m 951 594 q 1314 707 1168 606 q 1432 851 1432 790 q 1331 914 1432 914 q 1065 800 1193 914 q 951 594 960 707 m 561 244 q 585 320 569 281 q 625 401 601 360 q 690 515 661 467 q 740 599 718 564 l 733 601 q 682 676 686 619 l 682 681 q 690 690 682 690 q 703 676 701 690 q 754 622 704 642 q 801 695 774 653 q 865 790 829 738 q 879 825 879 810 q 853 843 879 843 q 624 740 772 843 q 513 656 564 699 q 419 571 463 614 q 561 244 515 431 m 883 593 q 878 642 878 615 q 882 683 878 663 q 859 639 871 661 q 836 594 847 617 q 859 594 847 594 q 883 593 871 594 m 163 326 q 356 569 268 474 q 200 663 268 663 q 133 625 157 663 q 108 525 108 586 q 163 326 108 429 m 786 492 q 917 524 849 518 q 890 571 901 546 q 857 572 872 572 q 826 574 842 572 q 806 531 815 551 q 786 492 796 511 z "},"Ǽ":{"ha":1332,"x_min":-412,"x_max":1464,"o":"m -307 -226 q -375 -210 -347 -226 q -412 -144 -412 -189 q -387 -75 -412 -106 q -324 -43 -360 -43 q -279 -62 -296 -43 q -264 -104 -264 -79 q -287 -158 -264 -137 q -337 -179 -310 -179 q -383 -160 -364 -179 q -326 -190 -375 -190 q -151 -92 -253 -190 q -73 -5 -115 -56 q 17 113 -31 46 q 76 201 47 157 q 136 289 106 244 q 35 582 35 444 q 71 710 35 661 q 167 758 107 758 q 392 608 275 758 q 665 842 521 742 q 972 971 851 971 q 1021 950 1021 971 q 1017 936 1021 944 q 985 878 1001 908 q 951 817 968 849 q 1225 946 1046 915 q 1260 950 1243 949 q 1294 951 1278 951 q 1417 919 1369 951 q 1464 838 1464 889 q 1351 678 1464 757 q 951 571 1208 579 q 963 528 953 549 q 1010 528 986 529 q 1057 526 1033 528 q 1107 489 1107 522 q 1053 457 1107 457 q 933 506 982 457 q 725 354 801 485 q 693 269 707 307 q 672 201 679 232 q 668 150 668 175 q 715 -4 668 56 q 861 -69 768 -69 q 1119 26 1001 -69 q 1231 204 1231 117 q 1076 304 1231 304 q 886 224 1001 304 q 764 110 783 151 q 753 106 761 101 q 747 118 744 110 q 864 239 771 171 q 1090 336 981 326 q 1117 338 1104 338 q 1142 339 1131 339 q 1303 229 1303 339 q 1175 24 1303 126 q 861 -87 1035 -87 q 657 -32 742 -87 q 551 146 560 32 q 385 535 514 375 q 292 425 342 488 q 188 285 243 363 q 334 97 251 183 q 518 -58 417 11 q 528 -72 528 -64 q 519 -83 528 -83 q 507 -79 515 -83 q 426 -23 468 -56 q 339 53 385 10 q 244 149 288 100 q 163 250 200 199 q 13 40 68 117 q -57 -56 -42 -36 q -253 -218 -171 -197 q -307 -226 -279 -226 m 951 594 q 1314 707 1168 606 q 1432 851 1432 790 q 1331 914 1432 914 q 1065 800 1193 914 q 951 594 960 707 m 561 244 q 585 320 569 281 q 625 401 601 360 q 690 515 661 467 q 740 599 718 564 l 733 601 q 682 676 686 619 l 682 681 q 690 690 682 690 q 703 676 701 690 q 754 622 704 642 q 801 695 774 653 q 865 790 829 738 q 879 825 879 810 q 853 843 879 843 q 624 740 772 843 q 513 656 564 699 q 419 571 463 614 q 561 244 515 431 m 883 593 q 878 642 878 615 q 882 683 878 663 q 859 639 871 661 q 836 594 847 617 q 859 594 847 594 q 883 593 871 594 m 163 326 q 356 569 268 474 q 200 663 268 663 q 133 625 157 663 q 108 525 108 586 q 163 326 108 429 m 786 492 q 917 524 849 518 q 890 571 901 546 q 857 572 872 572 q 826 574 842 572 q 806 531 815 551 q 786 492 796 511 m 1099 1026 q 1088 1036 1088 1026 q 1110 1056 1088 1038 q 1165 1099 1133 1075 q 1222 1142 1196 1124 q 1256 1160 1249 1160 q 1276 1136 1276 1160 q 1235 1085 1276 1107 q 1183 1061 1214 1075 q 1128 1037 1153 1047 q 1099 1026 1103 1026 z "},"Á":{"ha":842,"x_min":-412,"x_max":1092,"o":"m -307 -226 q -375 -210 -347 -226 q -412 -144 -412 -189 q -387 -75 -412 -106 q -324 -43 -360 -43 q -278 -62 -297 -43 q -261 -101 -261 -82 q -287 -158 -261 -136 q -337 -179 -310 -179 q -383 -160 -364 -179 q -326 -190 -375 -190 q -151 -92 -253 -190 q -72 -5 -114 -56 q 17 113 -29 46 q 76 201 47 157 q 136 289 106 244 q 35 582 35 444 q 71 710 35 661 q 167 758 108 758 q 393 608 275 758 q 665 842 526 746 q 972 971 851 971 q 1021 950 1021 971 q 1017 936 1021 944 q 667 176 704 376 q 662 140 664 157 q 660 110 660 124 q 731 22 660 22 q 933 294 803 22 q 949 311 939 308 l 950 311 q 956 301 956 311 q 949 279 956 293 q 887 156 910 201 q 856 97 864 110 q 778 7 817 36 q 701 -22 739 -22 q 611 14 654 -22 q 551 146 557 61 q 386 535 514 374 q 292 425 342 488 q 188 285 243 363 q 334 97 251 183 q 518 -58 417 11 q 528 -72 528 -64 q 519 -83 528 -83 q 507 -79 515 -83 q 426 -23 468 -56 q 339 53 385 10 q 244 149 288 100 q 163 250 200 199 q 13 40 68 117 q -57 -56 -42 -36 q -253 -218 -171 -197 q -307 -226 -279 -226 m 561 244 q 585 320 569 281 q 625 401 601 360 q 865 790 744 614 q 879 825 879 810 q 853 843 879 843 q 624 740 772 843 q 514 656 564 699 q 421 571 464 614 q 561 244 515 429 m 163 326 q 265 461 217 400 q 356 569 313 522 q 200 663 268 663 q 135 625 158 663 q 110 525 110 586 q 163 326 110 429 m 896 1032 q 885 1042 885 1033 q 901 1058 885 1043 q 943 1092 918 1072 q 995 1132 968 1113 q 1043 1165 1022 1151 q 1069 1179 1064 1179 q 1092 1153 1092 1179 q 1046 1096 1092 1119 q 988 1069 1022 1085 q 927 1043 954 1054 q 896 1032 900 1032 z "},"Ă":{"ha":842,"x_min":-412,"x_max":1149,"o":"m -307 -226 q -375 -210 -347 -226 q -412 -144 -412 -189 q -387 -75 -412 -106 q -324 -43 -360 -43 q -278 -62 -297 -43 q -261 -101 -261 -82 q -287 -158 -261 -136 q -337 -179 -310 -179 q -383 -160 -364 -179 q -326 -190 -375 -190 q -151 -92 -253 -190 q -72 -5 -114 -56 q 17 113 -29 46 q 76 201 47 157 q 136 289 106 244 q 35 582 35 444 q 71 710 35 661 q 167 758 108 758 q 393 608 275 758 q 665 842 526 746 q 972 971 851 971 q 1021 950 1021 971 q 1017 936 1021 944 q 667 176 704 376 q 662 140 664 157 q 660 110 660 124 q 731 22 660 22 q 933 294 803 22 q 949 311 939 308 l 950 311 q 956 301 956 311 q 949 279 956 293 q 887 156 910 201 q 856 97 864 110 q 778 7 817 36 q 701 -22 739 -22 q 611 14 654 -22 q 551 146 557 61 q 386 535 514 374 q 292 425 342 488 q 188 285 243 363 q 334 97 251 183 q 518 -58 417 11 q 528 -72 528 -64 q 519 -83 528 -83 q 507 -79 515 -83 q 426 -23 468 -56 q 339 53 385 10 q 244 149 288 100 q 163 250 200 199 q 13 40 68 117 q -57 -56 -42 -36 q -253 -218 -171 -197 q -307 -226 -279 -226 m 561 244 q 585 320 569 281 q 625 401 601 360 q 865 790 744 614 q 879 825 879 810 q 853 843 879 843 q 624 740 772 843 q 514 656 564 699 q 421 571 464 614 q 561 244 515 429 m 163 326 q 265 461 217 400 q 356 569 313 522 q 200 663 268 663 q 135 625 158 663 q 110 525 110 586 q 163 326 110 429 m 960 1028 q 851 1118 851 1028 q 858 1149 851 1135 q 874 1164 864 1163 l 875 1164 q 896 1151 890 1164 q 912 1099 892 1108 q 976 1089 932 1089 q 1060 1099 1019 1089 q 1126 1157 1100 1110 q 1138 1164 1131 1164 q 1144 1151 1149 1164 q 1119 1101 1140 1131 q 1058 1050 1097 1072 q 960 1028 1019 1028 z "},"Ắ":{"ha":842,"x_min":-412,"x_max":1149,"o":"m -307 -226 q -375 -210 -347 -226 q -412 -144 -412 -189 q -387 -75 -412 -106 q -324 -43 -360 -43 q -278 -62 -297 -43 q -261 -101 -261 -82 q -287 -158 -261 -136 q -337 -179 -310 -179 q -383 -160 -364 -179 q -326 -190 -375 -190 q -151 -92 -253 -190 q -72 -5 -114 -56 q 17 113 -29 46 q 76 201 47 157 q 136 289 106 244 q 35 582 35 444 q 71 710 35 661 q 167 758 108 758 q 393 608 275 758 q 665 842 526 746 q 972 971 851 971 q 1021 950 1021 971 q 1017 936 1021 944 q 667 176 704 376 q 662 140 664 157 q 660 110 660 124 q 731 22 660 22 q 933 294 803 22 q 949 311 939 308 l 950 311 q 956 301 956 311 q 949 279 956 293 q 887 156 910 201 q 856 97 864 110 q 778 7 817 36 q 701 -22 739 -22 q 611 14 654 -22 q 551 146 557 61 q 386 535 514 374 q 292 425 342 488 q 188 285 243 363 q 334 97 251 183 q 518 -58 417 11 q 528 -72 528 -64 q 519 -83 528 -83 q 507 -79 515 -83 q 426 -23 468 -56 q 339 53 385 10 q 244 149 288 100 q 163 250 200 199 q 13 40 68 117 q -57 -56 -42 -36 q -253 -218 -171 -197 q -307 -226 -279 -226 m 561 244 q 585 320 569 281 q 625 401 601 360 q 865 790 744 614 q 879 825 879 810 q 853 843 879 843 q 624 740 772 843 q 514 656 564 699 q 421 571 464 614 q 561 244 515 429 m 163 326 q 265 461 217 400 q 356 569 313 522 q 200 663 268 663 q 135 625 158 663 q 110 525 110 586 q 163 326 110 429 m 960 1028 q 851 1118 851 1028 q 858 1149 851 1135 q 874 1164 864 1163 l 875 1164 q 896 1151 890 1164 q 912 1099 892 1108 q 976 1089 932 1089 q 1060 1099 1019 1089 q 1126 1157 1100 1110 q 1138 1164 1131 1164 q 1144 1151 1149 1164 q 1119 1101 1140 1131 q 1058 1050 1097 1072 q 960 1028 1019 1028 m 939 1197 q 928 1207 928 1199 q 944 1223 928 1208 q 986 1258 961 1238 q 1038 1297 1011 1278 q 1086 1331 1065 1317 q 1113 1344 1107 1344 q 1135 1318 1135 1344 q 1089 1261 1135 1285 q 1031 1235 1065 1250 q 970 1208 997 1219 q 939 1197 943 1197 z "},"Ặ":{"ha":842,"x_min":-412,"x_max":1149,"o":"m -307 -226 q -375 -210 -347 -226 q -412 -144 -412 -189 q -387 -75 -412 -106 q -324 -43 -360 -43 q -278 -62 -297 -43 q -261 -101 -261 -82 q -287 -158 -261 -136 q -337 -179 -310 -179 q -383 -160 -364 -179 q -326 -190 -375 -190 q -151 -92 -253 -190 q -72 -5 -114 -56 q 17 113 -29 46 q 76 201 47 157 q 136 289 106 244 q 35 582 35 444 q 71 710 35 661 q 167 758 108 758 q 393 608 275 758 q 665 842 526 746 q 972 971 851 971 q 1021 950 1021 971 q 1017 936 1021 944 q 667 176 704 376 q 662 140 664 157 q 660 110 660 124 q 731 22 660 22 q 933 294 803 22 q 949 311 939 308 l 950 311 q 956 301 956 311 q 949 279 956 293 q 887 156 910 201 q 856 97 864 110 q 778 7 817 36 q 701 -22 739 -22 q 611 14 654 -22 q 551 146 557 61 q 386 535 514 374 q 292 425 342 488 q 188 285 243 363 q 334 97 251 183 q 518 -58 417 11 q 528 -72 528 -64 q 519 -83 528 -83 q 507 -79 515 -83 q 426 -23 468 -56 q 339 53 385 10 q 244 149 288 100 q 163 250 200 199 q 13 40 68 117 q -57 -56 -42 -36 q -253 -218 -171 -197 q -307 -226 -279 -226 m 561 244 q 585 320 569 281 q 625 401 601 360 q 865 790 744 614 q 879 825 879 810 q 853 843 879 843 q 624 740 772 843 q 514 656 564 699 q 421 571 464 614 q 561 244 515 429 m 163 326 q 265 461 217 400 q 356 569 313 522 q 200 663 268 663 q 135 625 158 663 q 110 525 110 586 q 163 326 110 429 m 285 -179 q 238 -133 238 -179 q 282 -87 238 -87 q 329 -133 329 -87 q 285 -179 329 -179 m 960 1028 q 851 1118 851 1028 q 858 1149 851 1135 q 874 1164 864 1163 l 875 1164 q 896 1151 890 1164 q 912 1099 892 1108 q 976 1089 932 1089 q 1060 1099 1019 1089 q 1126 1157 1100 1110 q 1138 1164 1131 1164 q 1144 1151 1149 1164 q 1119 1101 1140 1131 q 1058 1050 1097 1072 q 960 1028 1019 1028 z "},"Ằ":{"ha":842,"x_min":-412,"x_max":1149,"o":"m -307 -226 q -375 -210 -347 -226 q -412 -144 -412 -189 q -387 -75 -412 -106 q -324 -43 -360 -43 q -278 -62 -297 -43 q -261 -101 -261 -82 q -287 -158 -261 -136 q -337 -179 -310 -179 q -383 -160 -364 -179 q -326 -190 -375 -190 q -151 -92 -253 -190 q -72 -5 -114 -56 q 17 113 -29 46 q 76 201 47 157 q 136 289 106 244 q 35 582 35 444 q 71 710 35 661 q 167 758 108 758 q 393 608 275 758 q 665 842 526 746 q 972 971 851 971 q 1021 950 1021 971 q 1017 936 1021 944 q 667 176 704 376 q 662 140 664 157 q 660 110 660 124 q 731 22 660 22 q 933 294 803 22 q 949 311 939 308 l 950 311 q 956 301 956 311 q 949 279 956 293 q 887 156 910 201 q 856 97 864 110 q 778 7 817 36 q 701 -22 739 -22 q 611 14 654 -22 q 551 146 557 61 q 386 535 514 374 q 292 425 342 488 q 188 285 243 363 q 334 97 251 183 q 518 -58 417 11 q 528 -72 528 -64 q 519 -83 528 -83 q 507 -79 515 -83 q 426 -23 468 -56 q 339 53 385 10 q 244 149 288 100 q 163 250 200 199 q 13 40 68 117 q -57 -56 -42 -36 q -253 -218 -171 -197 q -307 -226 -279 -226 m 561 244 q 585 320 569 281 q 625 401 601 360 q 865 790 744 614 q 879 825 879 810 q 853 843 879 843 q 624 740 772 843 q 514 656 564 699 q 421 571 464 614 q 561 244 515 429 m 163 326 q 265 461 217 400 q 356 569 313 522 q 200 663 268 663 q 135 625 158 663 q 110 525 110 586 q 163 326 110 429 m 960 1028 q 851 1118 851 1028 q 858 1149 851 1135 q 874 1164 864 1163 l 875 1164 q 896 1151 890 1164 q 912 1099 892 1108 q 976 1089 932 1089 q 1060 1099 1019 1089 q 1126 1157 1100 1110 q 1138 1164 1131 1164 q 1144 1151 1149 1164 q 1119 1101 1140 1131 q 1058 1050 1097 1072 q 960 1028 1019 1028 m 1056 1196 q 1024 1207 1051 1196 q 963 1233 996 1218 q 906 1260 929 1249 q 860 1317 860 1286 q 883 1343 860 1343 q 910 1330 890 1343 q 957 1297 931 1317 q 1009 1256 983 1276 q 1051 1222 1035 1236 q 1068 1207 1068 1208 q 1056 1196 1068 1196 z "},"Ẳ":{"ha":842,"x_min":-412,"x_max":1149,"o":"m -307 -226 q -375 -210 -347 -226 q -412 -144 -412 -189 q -387 -75 -412 -106 q -324 -43 -360 -43 q -278 -62 -297 -43 q -261 -101 -261 -82 q -287 -158 -261 -136 q -337 -179 -310 -179 q -383 -160 -364 -179 q -326 -190 -375 -190 q -151 -92 -253 -190 q -72 -5 -114 -56 q 17 113 -29 46 q 76 201 47 157 q 136 289 106 244 q 35 582 35 444 q 71 710 35 661 q 167 758 108 758 q 393 608 275 758 q 665 842 526 746 q 972 971 851 971 q 1021 950 1021 971 q 1017 936 1021 944 q 667 176 704 376 q 662 140 664 157 q 660 110 660 124 q 731 22 660 22 q 933 294 803 22 q 949 311 939 308 l 950 311 q 956 301 956 311 q 949 279 956 293 q 887 156 910 201 q 856 97 864 110 q 778 7 817 36 q 701 -22 739 -22 q 611 14 654 -22 q 551 146 557 61 q 386 535 514 374 q 292 425 342 488 q 188 285 243 363 q 334 97 251 183 q 518 -58 417 11 q 528 -72 528 -64 q 519 -83 528 -83 q 507 -79 515 -83 q 426 -23 468 -56 q 339 53 385 10 q 244 149 288 100 q 163 250 200 199 q 13 40 68 117 q -57 -56 -42 -36 q -253 -218 -171 -197 q -307 -226 -279 -226 m 561 244 q 585 320 569 281 q 625 401 601 360 q 865 790 744 614 q 879 825 879 810 q 853 843 879 843 q 624 740 772 843 q 514 656 564 699 q 421 571 464 614 q 561 244 515 429 m 163 326 q 265 461 217 400 q 356 569 313 522 q 200 663 268 663 q 135 625 158 663 q 110 525 110 586 q 163 326 110 429 m 960 1028 q 851 1118 851 1028 q 858 1149 851 1135 q 874 1164 864 1163 l 875 1164 q 896 1151 890 1164 q 912 1099 892 1108 q 976 1089 932 1089 q 1060 1099 1019 1089 q 1126 1157 1100 1110 q 1138 1164 1131 1164 q 1144 1151 1149 1164 q 1119 1101 1140 1131 q 1058 1050 1097 1072 q 960 1028 1019 1028 m 1014 1203 q 1007 1208 1007 1203 q 1013 1219 1007 1214 q 1052 1253 1035 1238 q 1069 1300 1069 1269 q 1039 1319 1069 1319 q 1000 1315 1019 1319 q 975 1310 981 1310 q 965 1317 965 1310 q 983 1339 965 1328 q 1026 1358 1000 1350 q 1074 1365 1051 1365 q 1118 1350 1106 1365 q 1131 1315 1131 1335 q 1103 1247 1131 1267 q 1038 1208 1076 1228 q 1014 1203 1026 1203 z "},"Ẵ":{"ha":842,"x_min":-412,"x_max":1206,"o":"m -307 -226 q -375 -210 -347 -226 q -412 -144 -412 -189 q -387 -75 -412 -106 q -324 -43 -360 -43 q -278 -62 -297 -43 q -261 -101 -261 -82 q -287 -158 -261 -136 q -337 -179 -310 -179 q -383 -160 -364 -179 q -326 -190 -375 -190 q -151 -92 -253 -190 q -72 -5 -114 -56 q 17 113 -29 46 q 76 201 47 157 q 136 289 106 244 q 35 582 35 444 q 71 710 35 661 q 167 758 108 758 q 393 608 275 758 q 665 842 526 746 q 972 971 851 971 q 1021 950 1021 971 q 1017 936 1021 944 q 667 176 704 376 q 662 140 664 157 q 660 110 660 124 q 731 22 660 22 q 933 294 803 22 q 949 311 939 308 l 950 311 q 956 301 956 311 q 949 279 956 293 q 887 156 910 201 q 856 97 864 110 q 778 7 817 36 q 701 -22 739 -22 q 611 14 654 -22 q 551 146 557 61 q 386 535 514 374 q 292 425 342 488 q 188 285 243 363 q 334 97 251 183 q 518 -58 417 11 q 528 -72 528 -64 q 519 -83 528 -83 q 507 -79 515 -83 q 426 -23 468 -56 q 339 53 385 10 q 244 149 288 100 q 163 250 200 199 q 13 40 68 117 q -57 -56 -42 -36 q -253 -218 -171 -197 q -307 -226 -279 -226 m 561 244 q 585 320 569 281 q 625 401 601 360 q 865 790 744 614 q 879 825 879 810 q 853 843 879 843 q 624 740 772 843 q 514 656 564 699 q 421 571 464 614 q 561 244 515 429 m 163 326 q 265 461 217 400 q 356 569 313 522 q 200 663 268 663 q 135 625 158 663 q 110 525 110 586 q 163 326 110 429 m 960 1028 q 851 1118 851 1028 q 858 1149 851 1135 q 874 1164 864 1163 l 875 1164 q 896 1151 890 1164 q 912 1099 892 1108 q 976 1089 932 1089 q 1060 1099 1019 1089 q 1126 1157 1100 1110 q 1138 1164 1131 1164 q 1144 1151 1149 1164 q 1119 1101 1140 1131 q 1058 1050 1097 1072 q 960 1028 1019 1028 m 1101 1199 q 1019 1221 1067 1199 q 957 1240 978 1240 q 926 1231 939 1240 q 897 1204 913 1222 q 885 1201 897 1201 q 873 1203 879 1201 q 868 1207 867 1204 q 916 1272 890 1251 q 974 1292 942 1292 q 1046 1274 1003 1292 q 1117 1254 1085 1254 q 1176 1292 1158 1254 q 1190 1296 1179 1296 q 1200 1294 1194 1296 q 1204 1290 1206 1293 q 1163 1221 1189 1243 q 1101 1199 1136 1199 z "},"Ǎ":{"ha":842,"x_min":-412,"x_max":1176,"o":"m -307 -226 q -375 -210 -347 -226 q -412 -144 -412 -189 q -387 -75 -412 -106 q -324 -43 -360 -43 q -278 -62 -297 -43 q -261 -101 -261 -82 q -287 -158 -261 -136 q -337 -179 -310 -179 q -383 -160 -364 -179 q -326 -190 -375 -190 q -151 -92 -253 -190 q -72 -5 -114 -56 q 17 113 -29 46 q 76 201 47 157 q 136 289 106 244 q 35 582 35 444 q 71 710 35 661 q 167 758 108 758 q 393 608 275 758 q 665 842 526 746 q 972 971 851 971 q 1021 950 1021 971 q 1017 936 1021 944 q 667 176 704 376 q 662 140 664 157 q 660 110 660 124 q 731 22 660 22 q 933 294 803 22 q 949 311 939 308 l 950 311 q 956 301 956 311 q 949 279 956 293 q 887 156 910 201 q 856 97 864 110 q 778 7 817 36 q 701 -22 739 -22 q 611 14 654 -22 q 551 146 557 61 q 386 535 514 374 q 292 425 342 488 q 188 285 243 363 q 334 97 251 183 q 518 -58 417 11 q 528 -72 528 -64 q 519 -83 528 -83 q 507 -79 515 -83 q 426 -23 468 -56 q 339 53 385 10 q 244 149 288 100 q 163 250 200 199 q 13 40 68 117 q -57 -56 -42 -36 q -253 -218 -171 -197 q -307 -226 -279 -226 m 561 244 q 585 320 569 281 q 625 401 601 360 q 865 790 744 614 q 879 825 879 810 q 853 843 879 843 q 624 740 772 843 q 514 656 564 699 q 421 571 464 614 q 561 244 515 429 m 163 326 q 265 461 217 400 q 356 569 313 522 q 200 663 268 663 q 135 625 158 663 q 110 525 110 586 q 163 326 110 429 m 974 1033 q 949 1051 968 1033 q 908 1091 931 1068 q 870 1132 886 1114 q 854 1153 854 1150 q 871 1164 854 1164 q 911 1148 878 1164 q 975 1117 944 1132 q 1000 1111 986 1111 q 1016 1113 1008 1111 q 1033 1118 1024 1115 q 1086 1138 1057 1126 q 1139 1156 1115 1149 q 1165 1164 1163 1164 q 1176 1153 1176 1164 q 1158 1139 1176 1151 q 1111 1109 1139 1126 q 1055 1074 1083 1092 q 1005 1045 1026 1057 q 978 1033 983 1033 l 974 1033 z "},"Â":{"ha":842,"x_min":-412,"x_max":1136,"o":"m -307 -226 q -375 -210 -347 -226 q -412 -144 -412 -189 q -387 -75 -412 -106 q -324 -43 -360 -43 q -278 -62 -297 -43 q -261 -101 -261 -82 q -287 -158 -261 -136 q -337 -179 -310 -179 q -383 -160 -364 -179 q -326 -190 -375 -190 q -151 -92 -253 -190 q -72 -5 -114 -56 q 17 113 -29 46 q 76 201 47 157 q 136 289 106 244 q 35 582 35 444 q 71 710 35 661 q 167 758 108 758 q 393 608 275 758 q 665 842 526 746 q 972 971 851 971 q 1021 950 1021 971 q 1017 936 1021 944 q 667 176 704 376 q 662 140 664 157 q 660 110 660 124 q 731 22 660 22 q 933 294 803 22 q 949 311 939 308 l 950 311 q 956 301 956 311 q 949 279 956 293 q 887 156 910 201 q 856 97 864 110 q 778 7 817 36 q 701 -22 739 -22 q 611 14 654 -22 q 551 146 557 61 q 386 535 514 374 q 292 425 342 488 q 188 285 243 363 q 334 97 251 183 q 518 -58 417 11 q 528 -72 528 -64 q 519 -83 528 -83 q 507 -79 515 -83 q 426 -23 468 -56 q 339 53 385 10 q 244 149 288 100 q 163 250 200 199 q 13 40 68 117 q -57 -56 -42 -36 q -253 -218 -171 -197 q -307 -226 -279 -226 m 561 244 q 585 320 569 281 q 625 401 601 360 q 865 790 744 614 q 879 825 879 810 q 853 843 879 843 q 624 740 772 843 q 514 656 564 699 q 421 571 464 614 q 561 244 515 429 m 163 326 q 265 461 217 400 q 356 569 313 522 q 200 663 268 663 q 135 625 158 663 q 110 525 110 586 q 163 326 110 429 m 825 1033 q 814 1044 814 1033 q 833 1058 814 1046 q 879 1088 851 1071 q 935 1123 907 1106 q 985 1152 964 1140 q 1013 1164 1007 1164 l 1017 1164 q 1041 1147 1022 1164 q 1082 1106 1060 1129 q 1120 1065 1104 1083 q 1136 1044 1136 1047 q 1119 1033 1136 1033 q 1081 1050 1114 1033 q 1015 1081 1047 1067 q 990 1086 1004 1086 q 974 1084 982 1086 q 957 1079 967 1082 q 905 1060 935 1071 q 852 1041 875 1049 q 825 1033 829 1033 z "},"Ấ":{"ha":842,"x_min":-412,"x_max":1317,"o":"m -307 -226 q -375 -210 -347 -226 q -412 -144 -412 -189 q -387 -75 -412 -106 q -324 -43 -360 -43 q -278 -62 -297 -43 q -261 -101 -261 -82 q -287 -158 -261 -136 q -337 -179 -310 -179 q -383 -160 -364 -179 q -326 -190 -375 -190 q -151 -92 -253 -190 q -72 -5 -114 -56 q 17 113 -29 46 q 76 201 47 157 q 136 289 106 244 q 35 582 35 444 q 71 710 35 661 q 167 758 108 758 q 393 608 275 758 q 665 842 526 746 q 972 971 851 971 q 1021 950 1021 971 q 1017 936 1021 944 q 667 176 704 376 q 662 140 664 157 q 660 110 660 124 q 731 22 660 22 q 933 294 803 22 q 949 311 939 308 l 950 311 q 956 301 956 311 q 949 279 956 293 q 887 156 910 201 q 856 97 864 110 q 778 7 817 36 q 701 -22 739 -22 q 611 14 654 -22 q 551 146 557 61 q 386 535 514 374 q 292 425 342 488 q 188 285 243 363 q 334 97 251 183 q 518 -58 417 11 q 528 -72 528 -64 q 519 -83 528 -83 q 507 -79 515 -83 q 426 -23 468 -56 q 339 53 385 10 q 244 149 288 100 q 163 250 200 199 q 13 40 68 117 q -57 -56 -42 -36 q -253 -218 -171 -197 q -307 -226 -279 -226 m 561 244 q 585 320 569 281 q 625 401 601 360 q 865 790 744 614 q 879 825 879 810 q 853 843 879 843 q 624 740 772 843 q 514 656 564 699 q 421 571 464 614 q 561 244 515 429 m 163 326 q 265 461 217 400 q 356 569 313 522 q 200 663 268 663 q 135 625 158 663 q 110 525 110 586 q 163 326 110 429 m 825 1033 q 814 1044 814 1033 q 833 1058 814 1046 q 879 1088 851 1071 q 935 1123 907 1106 q 985 1152 964 1140 q 1013 1164 1007 1164 l 1017 1164 q 1041 1147 1022 1164 q 1082 1106 1060 1129 q 1120 1065 1104 1083 q 1136 1044 1136 1047 q 1119 1033 1136 1033 q 1081 1050 1114 1033 q 1015 1081 1047 1067 q 990 1086 1004 1086 q 974 1084 982 1086 q 957 1079 967 1082 q 905 1060 935 1071 q 852 1041 875 1049 q 825 1033 829 1033 m 1121 1154 q 1110 1164 1110 1156 q 1126 1180 1110 1165 q 1168 1215 1143 1194 q 1220 1254 1193 1235 q 1268 1288 1247 1274 q 1294 1301 1289 1301 q 1317 1275 1317 1301 q 1271 1218 1317 1242 q 1213 1192 1247 1207 q 1152 1165 1179 1176 q 1121 1154 1125 1154 z "},"Ậ":{"ha":842,"x_min":-412,"x_max":1136,"o":"m -307 -226 q -375 -210 -347 -226 q -412 -144 -412 -189 q -387 -75 -412 -106 q -324 -43 -360 -43 q -278 -62 -297 -43 q -261 -101 -261 -82 q -287 -158 -261 -136 q -337 -179 -310 -179 q -383 -160 -364 -179 q -326 -190 -375 -190 q -151 -92 -253 -190 q -72 -5 -114 -56 q 17 113 -29 46 q 76 201 47 157 q 136 289 106 244 q 35 582 35 444 q 71 710 35 661 q 167 758 108 758 q 393 608 275 758 q 665 842 526 746 q 972 971 851 971 q 1021 950 1021 971 q 1017 936 1021 944 q 667 176 704 376 q 662 140 664 157 q 660 110 660 124 q 731 22 660 22 q 933 294 803 22 q 949 311 939 308 l 950 311 q 956 301 956 311 q 949 279 956 293 q 887 156 910 201 q 856 97 864 110 q 778 7 817 36 q 701 -22 739 -22 q 611 14 654 -22 q 551 146 557 61 q 386 535 514 374 q 292 425 342 488 q 188 285 243 363 q 334 97 251 183 q 518 -58 417 11 q 528 -72 528 -64 q 519 -83 528 -83 q 507 -79 515 -83 q 426 -23 468 -56 q 339 53 385 10 q 244 149 288 100 q 163 250 200 199 q 13 40 68 117 q -57 -56 -42 -36 q -253 -218 -171 -197 q -307 -226 -279 -226 m 561 244 q 585 320 569 281 q 625 401 601 360 q 865 790 744 614 q 879 825 879 810 q 853 843 879 843 q 624 740 772 843 q 514 656 564 699 q 421 571 464 614 q 561 244 515 429 m 163 326 q 265 461 217 400 q 356 569 313 522 q 200 663 268 663 q 135 625 158 663 q 110 525 110 586 q 163 326 110 429 m 285 -179 q 238 -133 238 -179 q 282 -87 238 -87 q 329 -133 329 -87 q 285 -179 329 -179 m 825 1033 q 814 1044 814 1033 q 833 1058 814 1046 q 879 1088 851 1071 q 935 1123 907 1106 q 985 1152 964 1140 q 1013 1164 1007 1164 l 1017 1164 q 1041 1147 1022 1164 q 1082 1106 1060 1129 q 1120 1065 1104 1083 q 1136 1044 1136 1047 q 1119 1033 1136 1033 q 1081 1050 1114 1033 q 1015 1081 1047 1067 q 990 1086 1004 1086 q 974 1084 982 1086 q 957 1079 967 1082 q 905 1060 935 1071 q 852 1041 875 1049 q 825 1033 829 1033 z "},"Ầ":{"ha":842,"x_min":-412,"x_max":1250,"o":"m -307 -226 q -375 -210 -347 -226 q -412 -144 -412 -189 q -387 -75 -412 -106 q -324 -43 -360 -43 q -278 -62 -297 -43 q -261 -101 -261 -82 q -287 -158 -261 -136 q -337 -179 -310 -179 q -383 -160 -364 -179 q -326 -190 -375 -190 q -151 -92 -253 -190 q -72 -5 -114 -56 q 17 113 -29 46 q 76 201 47 157 q 136 289 106 244 q 35 582 35 444 q 71 710 35 661 q 167 758 108 758 q 393 608 275 758 q 665 842 526 746 q 972 971 851 971 q 1021 950 1021 971 q 1017 936 1021 944 q 667 176 704 376 q 662 140 664 157 q 660 110 660 124 q 731 22 660 22 q 933 294 803 22 q 949 311 939 308 l 950 311 q 956 301 956 311 q 949 279 956 293 q 887 156 910 201 q 856 97 864 110 q 778 7 817 36 q 701 -22 739 -22 q 611 14 654 -22 q 551 146 557 61 q 386 535 514 374 q 292 425 342 488 q 188 285 243 363 q 334 97 251 183 q 518 -58 417 11 q 528 -72 528 -64 q 519 -83 528 -83 q 507 -79 515 -83 q 426 -23 468 -56 q 339 53 385 10 q 244 149 288 100 q 163 250 200 199 q 13 40 68 117 q -57 -56 -42 -36 q -253 -218 -171 -197 q -307 -226 -279 -226 m 561 244 q 585 320 569 281 q 625 401 601 360 q 865 790 744 614 q 879 825 879 810 q 853 843 879 843 q 624 740 772 843 q 514 656 564 699 q 421 571 464 614 q 561 244 515 429 m 163 326 q 265 461 217 400 q 356 569 313 522 q 200 663 268 663 q 135 625 158 663 q 110 525 110 586 q 163 326 110 429 m 825 1033 q 814 1044 814 1033 q 833 1058 814 1046 q 879 1088 851 1071 q 935 1123 907 1106 q 985 1152 964 1140 q 1013 1164 1007 1164 l 1017 1164 q 1041 1147 1022 1164 q 1082 1106 1060 1129 q 1120 1065 1104 1083 q 1136 1044 1136 1047 q 1119 1033 1136 1033 q 1081 1050 1114 1033 q 1015 1081 1047 1067 q 990 1086 1004 1086 q 974 1084 982 1086 q 957 1079 967 1082 q 905 1060 935 1071 q 852 1041 875 1049 q 825 1033 829 1033 m 1238 1153 q 1206 1164 1233 1153 q 1144 1190 1178 1175 q 1088 1217 1111 1206 q 1042 1274 1042 1243 q 1065 1300 1042 1300 q 1092 1287 1072 1300 q 1139 1253 1113 1274 q 1191 1213 1165 1233 q 1233 1179 1217 1193 q 1250 1164 1250 1165 q 1238 1153 1250 1153 z "},"Ẩ":{"ha":842,"x_min":-412,"x_max":1275,"o":"m -307 -226 q -375 -210 -347 -226 q -412 -144 -412 -189 q -387 -75 -412 -106 q -324 -43 -360 -43 q -278 -62 -297 -43 q -261 -101 -261 -82 q -287 -158 -261 -136 q -337 -179 -310 -179 q -383 -160 -364 -179 q -326 -190 -375 -190 q -151 -92 -253 -190 q -72 -5 -114 -56 q 17 113 -29 46 q 76 201 47 157 q 136 289 106 244 q 35 582 35 444 q 71 710 35 661 q 167 758 108 758 q 393 608 275 758 q 665 842 526 746 q 972 971 851 971 q 1021 950 1021 971 q 1017 936 1021 944 q 667 176 704 376 q 662 140 664 157 q 660 110 660 124 q 731 22 660 22 q 933 294 803 22 q 949 311 939 308 l 950 311 q 956 301 956 311 q 949 279 956 293 q 887 156 910 201 q 856 97 864 110 q 778 7 817 36 q 701 -22 739 -22 q 611 14 654 -22 q 551 146 557 61 q 386 535 514 374 q 292 425 342 488 q 188 285 243 363 q 334 97 251 183 q 518 -58 417 11 q 528 -72 528 -64 q 519 -83 528 -83 q 507 -79 515 -83 q 426 -23 468 -56 q 339 53 385 10 q 244 149 288 100 q 163 250 200 199 q 13 40 68 117 q -57 -56 -42 -36 q -253 -218 -171 -197 q -307 -226 -279 -226 m 561 244 q 585 320 569 281 q 625 401 601 360 q 865 790 744 614 q 879 825 879 810 q 853 843 879 843 q 624 740 772 843 q 514 656 564 699 q 421 571 464 614 q 561 244 515 429 m 163 326 q 265 461 217 400 q 356 569 313 522 q 200 663 268 663 q 135 625 158 663 q 110 525 110 586 q 163 326 110 429 m 825 1033 q 814 1044 814 1033 q 833 1058 814 1046 q 879 1088 851 1071 q 935 1123 907 1106 q 985 1152 964 1140 q 1013 1164 1007 1164 l 1017 1164 q 1041 1147 1022 1164 q 1082 1106 1060 1129 q 1120 1065 1104 1083 q 1136 1044 1136 1047 q 1119 1033 1136 1033 q 1081 1050 1114 1033 q 1015 1081 1047 1067 q 990 1086 1004 1086 q 974 1084 982 1086 q 957 1079 967 1082 q 905 1060 935 1071 q 852 1041 875 1049 q 825 1033 829 1033 m 1158 1149 q 1151 1154 1151 1149 q 1157 1165 1151 1160 q 1197 1199 1179 1183 q 1214 1246 1214 1215 q 1183 1265 1214 1265 q 1144 1260 1164 1265 q 1119 1256 1125 1256 q 1110 1263 1110 1256 q 1127 1285 1110 1274 q 1170 1303 1144 1296 q 1218 1311 1196 1311 q 1263 1296 1250 1311 q 1275 1261 1275 1281 q 1248 1193 1275 1213 q 1182 1154 1221 1174 q 1158 1149 1171 1149 z "},"Ẫ":{"ha":842,"x_min":-412,"x_max":1204,"o":"m -307 -226 q -375 -210 -347 -226 q -412 -144 -412 -189 q -387 -75 -412 -106 q -324 -43 -360 -43 q -278 -62 -297 -43 q -261 -101 -261 -82 q -287 -158 -261 -136 q -337 -179 -310 -179 q -383 -160 -364 -179 q -326 -190 -375 -190 q -151 -92 -253 -190 q -72 -5 -114 -56 q 17 113 -29 46 q 76 201 47 157 q 136 289 106 244 q 35 582 35 444 q 71 710 35 661 q 167 758 108 758 q 393 608 275 758 q 665 842 526 746 q 972 971 851 971 q 1021 950 1021 971 q 1017 936 1021 944 q 667 176 704 376 q 662 140 664 157 q 660 110 660 124 q 731 22 660 22 q 933 294 803 22 q 949 311 939 308 l 950 311 q 956 301 956 311 q 949 279 956 293 q 887 156 910 201 q 856 97 864 110 q 778 7 817 36 q 701 -22 739 -22 q 611 14 654 -22 q 551 146 557 61 q 386 535 514 374 q 292 425 342 488 q 188 285 243 363 q 334 97 251 183 q 518 -58 417 11 q 528 -72 528 -64 q 519 -83 528 -83 q 507 -79 515 -83 q 426 -23 468 -56 q 339 53 385 10 q 244 149 288 100 q 163 250 200 199 q 13 40 68 117 q -57 -56 -42 -36 q -253 -218 -171 -197 q -307 -226 -279 -226 m 561 244 q 585 320 569 281 q 625 401 601 360 q 865 790 744 614 q 879 825 879 810 q 853 843 879 843 q 624 740 772 843 q 514 656 564 699 q 421 571 464 614 q 561 244 515 429 m 163 326 q 265 461 217 400 q 356 569 313 522 q 200 663 268 663 q 135 625 158 663 q 110 525 110 586 q 163 326 110 429 m 825 1033 q 814 1044 814 1033 q 833 1058 814 1046 q 879 1088 851 1071 q 935 1123 907 1106 q 985 1152 964 1140 q 1013 1164 1007 1164 l 1017 1164 q 1041 1147 1022 1164 q 1082 1106 1060 1129 q 1120 1065 1104 1083 q 1136 1044 1136 1047 q 1119 1033 1136 1033 q 1081 1050 1114 1033 q 1015 1081 1047 1067 q 990 1086 1004 1086 q 974 1084 982 1086 q 957 1079 967 1082 q 905 1060 935 1071 q 852 1041 875 1049 q 825 1033 829 1033 m 1100 1197 q 1018 1219 1065 1197 q 956 1239 976 1239 q 924 1230 938 1239 q 896 1203 911 1221 q 883 1200 896 1200 q 872 1201 878 1200 q 867 1206 865 1203 q 915 1270 889 1250 q 972 1290 940 1290 q 1044 1272 1001 1290 q 1115 1253 1083 1253 q 1175 1290 1157 1253 q 1189 1294 1178 1294 q 1199 1293 1193 1294 q 1203 1289 1204 1292 q 1161 1219 1188 1242 q 1100 1197 1135 1197 z "},"Ȁ":{"ha":842,"x_min":-412,"x_max":1046,"o":"m -307 -226 q -375 -210 -347 -226 q -412 -144 -412 -189 q -387 -75 -412 -106 q -324 -43 -360 -43 q -278 -62 -297 -43 q -261 -101 -261 -82 q -287 -158 -261 -136 q -337 -179 -310 -179 q -383 -160 -364 -179 q -326 -190 -375 -190 q -151 -92 -253 -190 q -72 -5 -114 -56 q 17 113 -29 46 q 76 201 47 157 q 136 289 106 244 q 35 582 35 444 q 71 710 35 661 q 167 758 108 758 q 393 608 275 758 q 665 842 526 746 q 972 971 851 971 q 1021 950 1021 971 q 1017 936 1021 944 q 667 176 704 376 q 662 140 664 157 q 660 110 660 124 q 731 22 660 22 q 933 294 803 22 q 949 311 939 308 l 950 311 q 956 301 956 311 q 949 279 956 293 q 887 156 910 201 q 856 97 864 110 q 778 7 817 36 q 701 -22 739 -22 q 611 14 654 -22 q 551 146 557 61 q 386 535 514 374 q 292 425 342 488 q 188 285 243 363 q 334 97 251 183 q 518 -58 417 11 q 528 -72 528 -64 q 519 -83 528 -83 q 507 -79 515 -83 q 426 -23 468 -56 q 339 53 385 10 q 244 149 288 100 q 163 250 200 199 q 13 40 68 117 q -57 -56 -42 -36 q -253 -218 -171 -197 q -307 -226 -279 -226 m 561 244 q 585 320 569 281 q 625 401 601 360 q 865 790 744 614 q 879 825 879 810 q 853 843 879 843 q 624 740 772 843 q 514 656 564 699 q 421 571 464 614 q 561 244 515 429 m 163 326 q 265 461 217 400 q 356 569 313 522 q 200 663 268 663 q 135 625 158 663 q 110 525 110 586 q 163 326 110 429 m 1032 1028 q 1001 1041 1028 1028 q 942 1071 974 1054 q 888 1100 910 1088 q 846 1160 846 1128 q 852 1181 846 1175 q 871 1186 858 1186 q 897 1170 878 1185 q 942 1133 917 1156 q 990 1090 967 1111 q 1030 1053 1014 1068 q 1046 1036 1046 1038 q 1032 1028 1044 1028 m 890 1028 q 858 1040 886 1028 q 798 1069 831 1053 q 743 1096 765 1085 q 699 1156 699 1122 q 724 1181 700 1181 q 749 1166 729 1181 q 795 1131 769 1151 q 846 1089 821 1110 q 887 1053 871 1068 q 903 1038 903 1039 q 890 1028 903 1026 z "},"Ä":{"ha":842,"x_min":-412,"x_max":1100,"o":"m -307 -226 q -375 -210 -347 -226 q -412 -144 -412 -189 q -387 -75 -412 -106 q -324 -43 -360 -43 q -278 -62 -297 -43 q -261 -101 -261 -82 q -287 -158 -261 -136 q -337 -179 -310 -179 q -383 -160 -364 -179 q -326 -190 -375 -190 q -151 -92 -253 -190 q -72 -5 -114 -56 q 17 113 -29 46 q 76 201 47 157 q 136 289 106 244 q 35 582 35 444 q 71 710 35 661 q 167 758 108 758 q 393 608 275 758 q 665 842 526 746 q 972 971 851 971 q 1021 950 1021 971 q 1017 936 1021 944 q 667 176 704 376 q 662 140 664 157 q 660 110 660 124 q 731 22 660 22 q 933 294 803 22 q 949 311 939 308 l 950 311 q 956 301 956 311 q 949 279 956 293 q 887 156 910 201 q 856 97 864 110 q 778 7 817 36 q 701 -22 739 -22 q 611 14 654 -22 q 551 146 557 61 q 386 535 514 374 q 292 425 342 488 q 188 285 243 363 q 334 97 251 183 q 518 -58 417 11 q 528 -72 528 -64 q 519 -83 528 -83 q 507 -79 515 -83 q 426 -23 468 -56 q 339 53 385 10 q 244 149 288 100 q 163 250 200 199 q 13 40 68 117 q -57 -56 -42 -36 q -253 -218 -171 -197 q -307 -226 -279 -226 m 561 244 q 585 320 569 281 q 625 401 601 360 q 865 790 744 614 q 879 825 879 810 q 853 843 879 843 q 624 740 772 843 q 514 656 564 699 q 421 571 464 614 q 561 244 515 429 m 163 326 q 265 461 217 400 q 356 569 313 522 q 200 663 268 663 q 135 625 158 663 q 110 525 110 586 q 163 326 110 429 m 1056 1033 q 1008 1079 1008 1033 q 1053 1125 1008 1125 q 1100 1079 1100 1125 q 1056 1033 1100 1033 m 876 1033 q 829 1079 829 1033 q 874 1125 829 1125 q 921 1079 921 1125 q 876 1033 921 1033 z "},"Ạ":{"ha":842,"x_min":-412,"x_max":1021,"o":"m -307 -226 q -375 -210 -347 -226 q -412 -144 -412 -189 q -387 -75 -412 -106 q -324 -43 -360 -43 q -278 -62 -297 -43 q -261 -101 -261 -82 q -287 -158 -261 -136 q -337 -179 -310 -179 q -383 -160 -364 -179 q -326 -190 -375 -190 q -151 -92 -253 -190 q -72 -5 -114 -56 q 17 113 -29 46 q 76 201 47 157 q 136 289 106 244 q 35 582 35 444 q 71 710 35 661 q 167 758 108 758 q 393 608 275 758 q 665 842 526 746 q 972 971 851 971 q 1021 950 1021 971 q 1017 936 1021 944 q 667 176 704 376 q 662 140 664 157 q 660 110 660 124 q 731 22 660 22 q 933 294 803 22 q 949 311 939 308 l 950 311 q 956 301 956 311 q 949 279 956 293 q 887 156 910 201 q 856 97 864 110 q 778 7 817 36 q 701 -22 739 -22 q 611 14 654 -22 q 551 146 557 61 q 386 535 514 374 q 292 425 342 488 q 188 285 243 363 q 334 97 251 183 q 518 -58 417 11 q 528 -72 528 -64 q 519 -83 528 -83 q 507 -79 515 -83 q 426 -23 468 -56 q 339 53 385 10 q 244 149 288 100 q 163 250 200 199 q 13 40 68 117 q -57 -56 -42 -36 q -253 -218 -171 -197 q -307 -226 -279 -226 m 561 244 q 585 320 569 281 q 625 401 601 360 q 865 790 744 614 q 879 825 879 810 q 853 843 879 843 q 624 740 772 843 q 514 656 564 699 q 421 571 464 614 q 561 244 515 429 m 163 326 q 265 461 217 400 q 356 569 313 522 q 200 663 268 663 q 135 625 158 663 q 110 525 110 586 q 163 326 110 429 m 285 -179 q 238 -133 238 -179 q 282 -87 238 -87 q 329 -133 329 -87 q 285 -179 329 -179 z "},"À":{"ha":842,"x_min":-412,"x_max":1025,"o":"m -307 -226 q -375 -210 -347 -226 q -412 -144 -412 -189 q -387 -75 -412 -106 q -324 -43 -360 -43 q -278 -62 -297 -43 q -261 -101 -261 -82 q -287 -158 -261 -136 q -337 -179 -310 -179 q -383 -160 -364 -179 q -326 -190 -375 -190 q -151 -92 -253 -190 q -72 -5 -114 -56 q 17 113 -29 46 q 76 201 47 157 q 136 289 106 244 q 35 582 35 444 q 71 710 35 661 q 167 758 108 758 q 393 608 275 758 q 665 842 526 746 q 972 971 851 971 q 1021 950 1021 971 q 1017 936 1021 944 q 667 176 704 376 q 662 140 664 157 q 660 110 660 124 q 731 22 660 22 q 933 294 803 22 q 949 311 939 308 l 950 311 q 956 301 956 311 q 949 279 956 293 q 887 156 910 201 q 856 97 864 110 q 778 7 817 36 q 701 -22 739 -22 q 611 14 654 -22 q 551 146 557 61 q 386 535 514 374 q 292 425 342 488 q 188 285 243 363 q 334 97 251 183 q 518 -58 417 11 q 528 -72 528 -64 q 519 -83 528 -83 q 507 -79 515 -83 q 426 -23 468 -56 q 339 53 385 10 q 244 149 288 100 q 163 250 200 199 q 13 40 68 117 q -57 -56 -42 -36 q -253 -218 -171 -197 q -307 -226 -279 -226 m 561 244 q 585 320 569 281 q 625 401 601 360 q 865 790 744 614 q 879 825 879 810 q 853 843 879 843 q 624 740 772 843 q 514 656 564 699 q 421 571 464 614 q 561 244 515 429 m 163 326 q 265 461 217 400 q 356 569 313 522 q 200 663 268 663 q 135 625 158 663 q 110 525 110 586 q 163 326 110 429 m 1013 1031 q 981 1042 1008 1031 q 919 1068 953 1053 q 863 1094 886 1083 q 817 1151 817 1121 q 840 1178 817 1178 q 867 1165 847 1178 q 914 1131 888 1151 q 966 1091 940 1111 q 1008 1057 992 1071 q 1025 1042 1025 1043 q 1013 1031 1025 1031 z "},"Ả":{"ha":842,"x_min":-412,"x_max":1088,"o":"m -307 -226 q -375 -210 -347 -226 q -412 -144 -412 -189 q -387 -75 -412 -106 q -324 -43 -360 -43 q -278 -62 -297 -43 q -261 -101 -261 -82 q -287 -158 -261 -136 q -337 -179 -310 -179 q -383 -160 -364 -179 q -326 -190 -375 -190 q -151 -92 -253 -190 q -72 -5 -114 -56 q 17 113 -29 46 q 76 201 47 157 q 136 289 106 244 q 35 582 35 444 q 71 710 35 661 q 167 758 108 758 q 393 608 275 758 q 665 842 526 746 q 972 971 851 971 q 1021 950 1021 971 q 1017 936 1021 944 q 667 176 704 376 q 662 140 664 157 q 660 110 660 124 q 731 22 660 22 q 933 294 803 22 q 949 311 939 308 l 950 311 q 956 301 956 311 q 949 279 956 293 q 887 156 910 201 q 856 97 864 110 q 778 7 817 36 q 701 -22 739 -22 q 611 14 654 -22 q 551 146 557 61 q 386 535 514 374 q 292 425 342 488 q 188 285 243 363 q 334 97 251 183 q 518 -58 417 11 q 528 -72 528 -64 q 519 -83 528 -83 q 507 -79 515 -83 q 426 -23 468 -56 q 339 53 385 10 q 244 149 288 100 q 163 250 200 199 q 13 40 68 117 q -57 -56 -42 -36 q -253 -218 -171 -197 q -307 -226 -279 -226 m 561 244 q 585 320 569 281 q 625 401 601 360 q 865 790 744 614 q 879 825 879 810 q 853 843 879 843 q 624 740 772 843 q 514 656 564 699 q 421 571 464 614 q 561 244 515 429 m 163 326 q 265 461 217 400 q 356 569 313 522 q 200 663 268 663 q 135 625 158 663 q 110 525 110 586 q 163 326 110 429 m 971 1038 q 964 1043 964 1038 q 969 1054 964 1049 q 1009 1088 992 1072 q 1026 1135 1026 1104 q 996 1154 1026 1154 q 957 1149 976 1154 q 932 1144 938 1144 q 922 1151 922 1144 q 940 1174 922 1163 q 983 1192 957 1185 q 1031 1200 1008 1200 q 1075 1185 1063 1200 q 1088 1150 1088 1169 q 1060 1082 1088 1101 q 994 1043 1033 1063 q 971 1038 983 1038 z "},"Ȃ":{"ha":842,"x_min":-412,"x_max":1122,"o":"m 1025 1164 q 1098 1140 1074 1164 q 1122 1081 1122 1117 q 1118 1047 1122 1063 q 1103 1028 1114 1031 l 1100 1028 q 1082 1039 1088 1028 q 1083 1049 1083 1044 q 1083 1060 1083 1054 q 1065 1098 1083 1088 q 1013 1108 1047 1108 q 937 1093 974 1108 q 875 1033 900 1078 q 865 1028 871 1028 q 858 1039 854 1028 q 883 1088 864 1058 q 937 1141 901 1118 q 1025 1164 972 1164 m -307 -226 q -375 -210 -347 -226 q -412 -144 -412 -189 q -387 -75 -412 -106 q -324 -43 -360 -43 q -278 -62 -297 -43 q -261 -101 -261 -82 q -287 -158 -261 -136 q -337 -179 -310 -179 q -383 -160 -364 -179 q -326 -190 -375 -190 q -151 -92 -253 -190 q -72 -5 -114 -56 q 17 113 -29 46 q 76 201 47 157 q 136 289 106 244 q 35 582 35 444 q 71 710 35 661 q 167 758 108 758 q 393 608 275 758 q 665 842 526 746 q 972 971 851 971 q 1021 950 1021 971 q 1017 936 1021 944 q 667 176 704 376 q 662 140 664 157 q 660 110 660 124 q 731 22 660 22 q 933 294 803 22 q 949 311 939 308 l 950 311 q 956 301 956 311 q 949 279 956 293 q 887 156 910 201 q 856 97 864 110 q 778 7 817 36 q 701 -22 739 -22 q 611 14 654 -22 q 551 146 557 61 q 386 535 514 374 q 292 425 342 488 q 188 285 243 363 q 334 97 251 183 q 518 -58 417 11 q 528 -72 528 -64 q 519 -83 528 -83 q 507 -79 515 -83 q 426 -23 468 -56 q 339 53 385 10 q 244 149 288 100 q 163 250 200 199 q 13 40 68 117 q -57 -56 -42 -36 q -253 -218 -171 -197 q -307 -226 -279 -226 m 561 244 q 585 320 569 281 q 625 401 601 360 q 865 790 744 614 q 879 825 879 810 q 853 843 879 843 q 624 740 772 843 q 514 656 564 699 q 421 571 464 614 q 561 244 515 429 m 163 326 q 265 461 217 400 q 356 569 313 522 q 200 663 268 663 q 135 625 158 663 q 110 525 110 586 q 163 326 110 429 z "},"Ā":{"ha":842,"x_min":-412,"x_max":1122,"o":"m -307 -226 q -375 -210 -347 -226 q -412 -144 -412 -189 q -387 -75 -412 -106 q -324 -43 -360 -43 q -278 -62 -297 -43 q -261 -101 -261 -82 q -287 -158 -261 -136 q -337 -179 -310 -179 q -383 -160 -364 -179 q -326 -190 -375 -190 q -151 -92 -253 -190 q -72 -5 -114 -56 q 17 113 -29 46 q 76 201 47 157 q 136 289 106 244 q 35 582 35 444 q 71 710 35 661 q 167 758 108 758 q 393 608 275 758 q 665 842 526 746 q 972 971 851 971 q 1021 950 1021 971 q 1017 936 1021 944 q 667 176 704 376 q 662 140 664 157 q 660 110 660 124 q 731 22 660 22 q 933 294 803 22 q 949 311 939 308 l 950 311 q 956 301 956 311 q 949 279 956 293 q 887 156 910 201 q 856 97 864 110 q 778 7 817 36 q 701 -22 739 -22 q 611 14 654 -22 q 551 146 557 61 q 386 535 514 374 q 292 425 342 488 q 188 285 243 363 q 334 97 251 183 q 518 -58 417 11 q 528 -72 528 -64 q 519 -83 528 -83 q 507 -79 515 -83 q 426 -23 468 -56 q 339 53 385 10 q 244 149 288 100 q 163 250 200 199 q 13 40 68 117 q -57 -56 -42 -36 q -253 -218 -171 -197 q -307 -226 -279 -226 m 561 244 q 585 320 569 281 q 625 401 601 360 q 865 790 744 614 q 879 825 879 810 q 853 843 879 843 q 624 740 772 843 q 514 656 564 699 q 421 571 464 614 q 561 244 515 429 m 163 326 q 265 461 217 400 q 356 569 313 522 q 200 663 268 663 q 135 625 158 663 q 110 525 110 586 q 163 326 110 429 m 810 1050 q 803 1063 803 1053 q 811 1085 803 1074 q 829 1097 819 1097 l 1117 1097 q 1122 1086 1122 1097 q 1116 1063 1122 1076 q 1099 1050 1110 1050 l 810 1050 z "},"Ą":{"ha":842,"x_min":-412,"x_max":1021,"o":"m -307 -226 q -375 -210 -347 -226 q -412 -144 -412 -189 q -387 -75 -412 -106 q -324 -43 -360 -43 q -278 -62 -297 -43 q -261 -101 -261 -82 q -287 -158 -261 -136 q -337 -179 -310 -179 q -383 -160 -364 -179 q -326 -190 -375 -190 q -151 -92 -253 -190 q -72 -5 -114 -56 q 17 113 -29 46 q 76 201 47 157 q 136 289 106 244 q 35 582 35 444 q 71 710 35 661 q 167 758 108 758 q 393 608 275 758 q 665 842 526 746 q 972 971 851 971 q 1021 950 1021 971 q 1017 936 1021 944 q 667 176 704 376 q 662 140 664 157 q 660 110 660 124 q 731 22 660 22 q 933 294 803 22 q 949 311 939 308 l 950 311 q 956 301 956 311 q 949 279 956 293 q 887 156 910 201 q 856 97 864 110 q 778 7 817 36 q 701 -22 739 -22 q 611 14 654 -22 q 551 146 557 61 q 386 535 514 374 q 292 425 342 488 q 188 285 243 363 q 334 97 251 183 q 518 -58 417 11 q 528 -72 528 -64 q 519 -83 528 -83 q 507 -79 515 -83 q 426 -23 468 -56 q 339 53 385 10 q 244 149 288 100 q 163 250 200 199 q 13 40 68 117 q -57 -56 -42 -36 q -253 -218 -171 -197 q -307 -226 -279 -226 m 561 244 q 585 320 569 281 q 625 401 601 360 q 865 790 744 614 q 879 825 879 810 q 853 843 879 843 q 624 740 772 843 q 514 656 564 699 q 421 571 464 614 q 561 244 515 429 m 163 326 q 265 461 217 400 q 356 569 313 522 q 200 663 268 663 q 135 625 158 663 q 110 525 110 586 q 163 326 110 429 m 679 -250 q 613 -231 635 -250 q 592 -182 592 -212 q 617 -100 592 -147 q 690 1 642 -53 q 713 14 703 14 q 724 9 719 14 q 722 -1 728 4 q 672 -79 696 -35 q 647 -160 647 -126 q 694 -204 647 -203 q 747 -198 717 -204 q 799 -182 778 -192 q 801 -181 800 -182 q 803 -181 801 -181 q 811 -190 811 -181 q 806 -203 810 -196 q 794 -214 801 -210 q 735 -240 772 -229 q 679 -250 699 -250 z "},"Å":{"ha":842,"x_min":-412,"x_max":1089,"o":"m -307 -226 q -375 -210 -347 -226 q -412 -144 -412 -189 q -387 -75 -412 -106 q -324 -43 -360 -43 q -278 -62 -297 -43 q -261 -101 -261 -82 q -287 -158 -261 -136 q -337 -179 -310 -179 q -383 -160 -364 -179 q -326 -190 -375 -190 q -151 -92 -253 -190 q -72 -5 -114 -56 q 17 113 -29 46 q 76 201 47 157 q 136 289 106 244 q 35 582 35 444 q 71 710 35 661 q 167 758 108 758 q 393 608 275 758 q 665 842 526 746 q 972 971 851 971 q 1021 950 1021 971 q 1017 936 1021 944 q 667 176 704 376 q 662 140 664 157 q 660 110 660 124 q 731 22 660 22 q 933 294 803 22 q 949 311 939 308 l 950 311 q 956 301 956 311 q 949 279 956 293 q 887 156 910 201 q 856 97 864 110 q 778 7 817 36 q 701 -22 739 -22 q 611 14 654 -22 q 551 146 557 61 q 386 535 514 374 q 292 425 342 488 q 188 285 243 363 q 334 97 251 183 q 518 -58 417 11 q 528 -72 528 -64 q 519 -83 528 -83 q 507 -79 515 -83 q 426 -23 468 -56 q 339 53 385 10 q 244 149 288 100 q 163 250 200 199 q 13 40 68 117 q -57 -56 -42 -36 q -253 -218 -171 -197 q -307 -226 -279 -226 m 561 244 q 585 320 569 281 q 625 401 601 360 q 865 790 744 614 q 879 825 879 810 q 853 843 879 843 q 624 740 772 843 q 514 656 564 699 q 421 571 464 614 q 561 244 515 429 m 163 326 q 265 461 217 400 q 356 569 313 522 q 200 663 268 663 q 135 625 158 663 q 110 525 110 586 q 163 326 110 429 m 979 1033 q 915 1051 943 1033 q 888 1107 888 1069 q 920 1175 888 1151 q 996 1199 953 1199 q 1063 1179 1038 1199 q 1089 1125 1089 1160 q 1054 1056 1089 1078 q 979 1033 1019 1033 m 983 1058 q 1024 1081 1011 1058 q 1038 1121 1038 1103 q 1024 1159 1038 1144 q 993 1174 1011 1174 q 957 1155 974 1174 q 940 1108 940 1136 q 951 1073 940 1088 q 983 1058 963 1058 z "},"Ǻ":{"ha":842,"x_min":-412,"x_max":1115,"o":"m -307 -226 q -375 -210 -347 -226 q -412 -144 -412 -189 q -387 -75 -412 -106 q -324 -43 -360 -43 q -278 -62 -297 -43 q -261 -101 -261 -82 q -287 -158 -261 -136 q -337 -179 -310 -179 q -383 -160 -364 -179 q -326 -190 -375 -190 q -151 -92 -253 -190 q -72 -5 -114 -56 q 17 113 -29 46 q 76 201 47 157 q 136 289 106 244 q 35 582 35 444 q 71 710 35 661 q 167 758 108 758 q 393 608 275 758 q 665 842 526 746 q 972 971 851 971 q 1021 950 1021 971 q 1017 936 1021 944 q 667 176 704 376 q 662 140 664 157 q 660 110 660 124 q 731 22 660 22 q 933 294 803 22 q 949 311 939 308 l 950 311 q 956 301 956 311 q 949 279 956 293 q 887 156 910 201 q 856 97 864 110 q 778 7 817 36 q 701 -22 739 -22 q 611 14 654 -22 q 551 146 557 61 q 386 535 514 374 q 292 425 342 488 q 188 285 243 363 q 334 97 251 183 q 518 -58 417 11 q 528 -72 528 -64 q 519 -83 528 -83 q 507 -79 515 -83 q 426 -23 468 -56 q 339 53 385 10 q 244 149 288 100 q 163 250 200 199 q 13 40 68 117 q -57 -56 -42 -36 q -253 -218 -171 -197 q -307 -226 -279 -226 m 561 244 q 585 320 569 281 q 625 401 601 360 q 865 790 744 614 q 879 825 879 810 q 853 843 879 843 q 624 740 772 843 q 514 656 564 699 q 421 571 464 614 q 561 244 515 429 m 163 326 q 265 461 217 400 q 356 569 313 522 q 200 663 268 663 q 135 625 158 663 q 110 525 110 586 q 163 326 110 429 m 979 1033 q 915 1051 943 1033 q 888 1107 888 1069 q 920 1175 888 1151 q 996 1199 953 1199 q 1063 1179 1038 1199 q 1089 1125 1089 1160 q 1054 1056 1089 1078 q 979 1033 1019 1033 m 983 1058 q 1024 1081 1011 1058 q 1038 1121 1038 1103 q 1024 1159 1038 1144 q 993 1174 1011 1174 q 957 1155 974 1174 q 940 1108 940 1136 q 951 1073 940 1088 q 983 1058 963 1058 m 919 1257 q 908 1267 908 1258 q 925 1283 908 1268 q 967 1317 942 1297 q 1019 1357 992 1338 q 1067 1390 1046 1376 q 1093 1404 1088 1404 q 1115 1378 1115 1404 q 1069 1321 1115 1344 q 1012 1294 1046 1310 q 951 1268 978 1279 q 919 1257 924 1257 z "},"Ã":{"ha":842,"x_min":-412,"x_max":1163,"o":"m -307 -226 q -375 -210 -347 -226 q -412 -144 -412 -189 q -387 -75 -412 -106 q -324 -43 -360 -43 q -278 -62 -297 -43 q -261 -101 -261 -82 q -287 -158 -261 -136 q -337 -179 -310 -179 q -383 -160 -364 -179 q -326 -190 -375 -190 q -151 -92 -253 -190 q -72 -5 -114 -56 q 17 113 -29 46 q 76 201 47 157 q 136 289 106 244 q 35 582 35 444 q 71 710 35 661 q 167 758 108 758 q 393 608 275 758 q 665 842 526 746 q 972 971 851 971 q 1021 950 1021 971 q 1017 936 1021 944 q 667 176 704 376 q 662 140 664 157 q 660 110 660 124 q 731 22 660 22 q 933 294 803 22 q 949 311 939 308 l 950 311 q 956 301 956 311 q 949 279 956 293 q 887 156 910 201 q 856 97 864 110 q 778 7 817 36 q 701 -22 739 -22 q 611 14 654 -22 q 551 146 557 61 q 386 535 514 374 q 292 425 342 488 q 188 285 243 363 q 334 97 251 183 q 518 -58 417 11 q 528 -72 528 -64 q 519 -83 528 -83 q 507 -79 515 -83 q 426 -23 468 -56 q 339 53 385 10 q 244 149 288 100 q 163 250 200 199 q 13 40 68 117 q -57 -56 -42 -36 q -253 -218 -171 -197 q -307 -226 -279 -226 m 561 244 q 585 320 569 281 q 625 401 601 360 q 865 790 744 614 q 879 825 879 810 q 853 843 879 843 q 624 740 772 843 q 514 656 564 699 q 421 571 464 614 q 561 244 515 429 m 163 326 q 265 461 217 400 q 356 569 313 522 q 200 663 268 663 q 135 625 158 663 q 110 525 110 586 q 163 326 110 429 m 1058 1033 q 976 1056 1024 1033 q 914 1075 935 1075 q 883 1066 896 1075 q 854 1039 869 1057 q 842 1036 854 1036 q 830 1038 836 1036 q 825 1042 824 1039 q 873 1106 847 1086 q 931 1126 899 1126 q 1003 1108 960 1126 q 1074 1089 1042 1089 q 1133 1126 1115 1089 q 1147 1131 1136 1131 q 1157 1129 1151 1131 q 1161 1125 1163 1128 q 1119 1056 1146 1078 q 1058 1033 1093 1033 z "},"B":{"ha":1056,"x_min":-51,"x_max":1103,"o":"m 65 -81 q -51 11 -51 -81 q -22 85 -51 54 q 47 117 7 117 q 93 97 76 117 q 106 61 106 81 q 99 28 106 44 q 78 1 93 13 q 26 -19 56 -19 q -15 -3 1 -19 q 64 -43 0 -43 q 94 -39 81 -43 q 303 99 214 -7 q 503 435 379 192 l 710 842 q 748 901 726 874 q 793 950 769 928 q 683 936 740 949 q 563 903 625 924 q 365 803 436 860 q 229 604 229 696 q 292 550 229 550 q 446 597 365 550 q 574 707 519 640 q 582 711 578 711 q 592 704 592 711 q 458 579 592 650 q 272 513 336 513 q 143 611 143 513 q 179 708 143 657 q 294 819 222 769 q 469 906 367 868 q 817 972 647 971 q 997 1047 904 1047 q 1071 1032 1036 1047 q 1078 1022 1078 1029 q 1067 1008 1078 1001 q 1011 1021 1044 1021 q 883 971 944 1021 q 1056 907 999 960 q 1103 799 1103 860 q 1024 615 1103 707 q 835 488 947 526 q 1024 304 1024 454 q 894 64 1024 179 q 556 -74 754 -60 q 535 -75 546 -75 q 514 -75 525 -75 q 333 35 332 -75 q 65 -81 193 -81 m 643 489 q 698 494 671 492 q 750 496 725 496 q 932 603 854 514 q 1013 794 1013 694 q 981 888 1013 849 q 858 949 940 938 q 812 888 832 922 q 775 814 792 854 l 643 489 m 506 -51 q 567 -44 533 -51 q 642 -25 600 -37 q 843 110 763 14 q 926 299 926 208 q 874 411 926 369 q 703 457 815 457 q 628 453 668 457 q 598 385 617 425 q 551 294 579 344 q 531 260 542 278 q 506 222 519 242 q 620 270 561 250 q 743 304 679 290 q 772 308 763 308 q 788 303 788 308 q 744 279 788 289 q 464 131 560 231 q 404 24 404 69 q 419 -19 404 0 q 506 -51 447 -51 z "},"C":{"ha":942,"x_min":18,"x_max":1121,"o":"m 385 -104 q 176 -21 247 -104 q 115 172 115 50 q 142 340 115 254 q 218 511 168 425 q 78 601 136 539 q 18 744 18 667 q 100 881 18 835 q 253 917 165 917 q 519 818 406 917 q 932 947 726 947 q 1121 847 1121 947 q 967 638 1121 750 q 424 479 750 479 q 380 481 401 479 q 339 485 358 482 q 224 143 224 300 q 263 -3 224 53 q 414 -75 313 -75 q 779 142 599 -75 q 871 336 871 253 q 792 413 871 413 q 572 317 704 413 q 400 143 456 231 q 390 136 396 136 q 381 150 381 136 q 382 157 381 156 q 547 346 425 253 q 772 440 672 440 q 874 399 839 440 q 906 301 906 358 q 888 204 906 254 q 829 106 869 154 q 631 -47 753 8 q 385 -104 506 -104 m 426 514 q 569 526 497 514 q 944 692 768 564 q 1063 863 1063 776 q 968 919 1063 919 q 579 754 785 919 q 603 718 592 736 q 624 681 614 700 q 618 668 629 671 l 614 668 q 599 676 603 668 q 581 701 592 686 q 554 733 569 715 q 361 518 442 636 q 426 514 394 514 m 240 547 q 488 797 336 694 q 236 892 368 892 q 124 860 171 892 q 68 747 68 821 q 240 547 68 611 z "},"Ć":{"ha":942,"x_min":18,"x_max":1121,"o":"m 385 -104 q 176 -21 247 -104 q 115 172 115 50 q 142 340 115 254 q 218 511 168 425 q 78 601 136 539 q 18 744 18 667 q 100 881 18 835 q 253 917 165 917 q 519 818 406 917 q 932 947 726 947 q 1121 847 1121 947 q 967 638 1121 750 q 424 479 750 479 q 380 481 401 479 q 339 485 358 482 q 224 143 224 300 q 263 -3 224 53 q 414 -75 313 -75 q 779 142 599 -75 q 871 336 871 253 q 792 413 871 413 q 572 317 704 413 q 400 143 456 231 q 390 136 396 136 q 381 150 381 136 q 382 157 381 156 q 547 346 425 253 q 772 440 672 440 q 874 399 839 440 q 906 301 906 358 q 888 204 906 254 q 829 106 869 154 q 631 -47 753 8 q 385 -104 506 -104 m 426 514 q 569 526 497 514 q 944 692 768 564 q 1063 863 1063 776 q 968 919 1063 919 q 579 754 785 919 q 603 718 592 736 q 624 681 614 700 q 618 668 629 671 l 614 668 q 599 676 603 668 q 581 701 592 686 q 554 733 569 715 q 361 518 442 636 q 426 514 394 514 m 240 547 q 488 797 336 694 q 236 892 368 892 q 124 860 171 892 q 68 747 68 821 q 240 547 68 611 m 835 1007 q 824 1017 824 1008 q 840 1033 824 1018 q 882 1067 857 1047 q 934 1107 907 1088 q 982 1140 961 1126 q 1008 1154 1003 1154 q 1031 1128 1031 1154 q 985 1071 1031 1094 q 927 1044 961 1060 q 866 1018 893 1029 q 835 1007 839 1007 z "},"Č":{"ha":942,"x_min":18,"x_max":1121,"o":"m 385 -104 q 176 -21 247 -104 q 115 172 115 50 q 142 340 115 254 q 218 511 168 425 q 78 601 136 539 q 18 744 18 667 q 100 881 18 835 q 253 917 165 917 q 519 818 406 917 q 932 947 726 947 q 1121 847 1121 947 q 967 638 1121 750 q 424 479 750 479 q 380 481 401 479 q 339 485 358 482 q 224 143 224 300 q 263 -3 224 53 q 414 -75 313 -75 q 779 142 599 -75 q 871 336 871 253 q 792 413 871 413 q 572 317 704 413 q 400 143 456 231 q 390 136 396 136 q 381 150 381 136 q 382 157 381 156 q 547 346 425 253 q 772 440 672 440 q 874 399 839 440 q 906 301 906 358 q 888 204 906 254 q 829 106 869 154 q 631 -47 753 8 q 385 -104 506 -104 m 426 514 q 569 526 497 514 q 944 692 768 564 q 1063 863 1063 776 q 968 919 1063 919 q 579 754 785 919 q 603 718 592 736 q 624 681 614 700 q 618 668 629 671 l 614 668 q 599 676 603 668 q 581 701 592 686 q 554 733 569 715 q 361 518 442 636 q 426 514 394 514 m 240 547 q 488 797 336 694 q 236 892 368 892 q 124 860 171 892 q 68 747 68 821 q 240 547 68 611 m 913 1008 q 888 1026 907 1008 q 847 1066 869 1043 q 809 1107 825 1089 q 793 1128 793 1125 q 810 1139 793 1139 q 850 1123 817 1139 q 914 1092 883 1107 q 939 1086 925 1086 q 955 1088 947 1086 q 972 1093 963 1090 q 1025 1113 996 1101 q 1078 1131 1054 1124 q 1104 1139 1101 1139 q 1115 1128 1115 1139 q 1097 1114 1115 1126 q 1050 1084 1078 1101 q 994 1049 1022 1067 q 944 1020 965 1032 q 917 1008 922 1008 l 913 1008 z "},"Ç":{"ha":942,"x_min":18,"x_max":1121,"o":"m 385 -104 q 176 -21 247 -104 q 115 172 115 50 q 142 340 115 254 q 218 511 168 425 q 78 601 136 539 q 18 744 18 667 q 100 881 18 835 q 253 917 165 917 q 519 818 406 917 q 932 947 726 947 q 1121 847 1121 947 q 967 638 1121 750 q 424 479 750 479 q 380 481 401 479 q 339 485 358 482 q 224 143 224 300 q 263 -3 224 53 q 414 -75 313 -75 q 779 142 599 -75 q 871 336 871 253 q 792 413 871 413 q 572 317 704 413 q 400 143 456 231 q 390 136 396 136 q 381 150 381 136 q 382 157 381 156 q 547 346 425 253 q 772 440 672 440 q 874 399 839 440 q 906 301 906 358 q 888 204 906 254 q 829 106 869 154 q 631 -47 753 8 q 385 -104 506 -104 m 426 514 q 569 526 497 514 q 944 692 768 564 q 1063 863 1063 776 q 968 919 1063 919 q 579 754 785 919 q 603 718 592 736 q 624 681 614 700 q 618 668 629 671 l 614 668 q 599 676 603 668 q 581 701 592 686 q 554 733 569 715 q 361 518 442 636 q 426 514 394 514 m 240 547 q 488 797 336 694 q 236 892 368 892 q 124 860 171 892 q 68 747 68 821 q 240 547 68 611 m 340 -397 q 297 -391 321 -397 q 258 -372 274 -385 q 242 -344 242 -360 q 247 -336 242 -331 q 288 -351 260 -346 q 347 -356 317 -357 q 403 -335 385 -356 q 422 -292 422 -314 q 407 -255 422 -271 q 363 -240 392 -239 q 310 -249 336 -239 q 278 -260 285 -260 q 261 -249 267 -260 q 263 -231 256 -237 q 290 -201 271 -222 q 330 -156 308 -179 q 369 -115 351 -132 q 392 -99 386 -99 q 407 -104 407 -99 q 378 -140 396 -117 q 347 -185 361 -164 q 328 -214 332 -207 q 360 -205 346 -207 q 389 -203 375 -203 q 456 -228 433 -203 q 479 -286 479 -254 q 445 -361 479 -325 q 340 -397 411 -397 z "},"Ĉ":{"ha":942,"x_min":18,"x_max":1121,"o":"m 385 -104 q 176 -21 247 -104 q 115 172 115 50 q 142 340 115 254 q 218 511 168 425 q 78 601 136 539 q 18 744 18 667 q 100 881 18 835 q 253 917 165 917 q 519 818 406 917 q 932 947 726 947 q 1121 847 1121 947 q 967 638 1121 750 q 424 479 750 479 q 380 481 401 479 q 339 485 358 482 q 224 143 224 300 q 263 -3 224 53 q 414 -75 313 -75 q 779 142 599 -75 q 871 336 871 253 q 792 413 871 413 q 572 317 704 413 q 400 143 456 231 q 390 136 396 136 q 381 150 381 136 q 382 157 381 156 q 547 346 425 253 q 772 440 672 440 q 874 399 839 440 q 906 301 906 358 q 888 204 906 254 q 829 106 869 154 q 631 -47 753 8 q 385 -104 506 -104 m 426 514 q 569 526 497 514 q 944 692 768 564 q 1063 863 1063 776 q 968 919 1063 919 q 579 754 785 919 q 603 718 592 736 q 624 681 614 700 q 618 668 629 671 l 614 668 q 599 676 603 668 q 581 701 592 686 q 554 733 569 715 q 361 518 442 636 q 426 514 394 514 m 240 547 q 488 797 336 694 q 236 892 368 892 q 124 860 171 892 q 68 747 68 821 q 240 547 68 611 m 764 1008 q 753 1019 753 1008 q 772 1033 753 1021 q 818 1063 790 1046 q 874 1098 846 1081 q 924 1127 903 1115 q 951 1139 946 1139 l 956 1139 q 980 1122 961 1139 q 1021 1081 999 1104 q 1059 1040 1043 1058 q 1075 1019 1075 1022 q 1058 1008 1075 1008 q 1019 1025 1053 1008 q 954 1056 986 1042 q 929 1061 943 1061 q 913 1059 921 1061 q 896 1054 906 1057 q 844 1035 874 1046 q 791 1016 814 1024 q 764 1008 768 1008 z "},"Ċ":{"ha":942,"x_min":18,"x_max":1121,"o":"m 385 -104 q 176 -21 247 -104 q 115 172 115 50 q 142 340 115 254 q 218 511 168 425 q 78 601 136 539 q 18 744 18 667 q 100 881 18 835 q 253 917 165 917 q 519 818 406 917 q 932 947 726 947 q 1121 847 1121 947 q 967 638 1121 750 q 424 479 750 479 q 380 481 401 479 q 339 485 358 482 q 224 143 224 300 q 263 -3 224 53 q 414 -75 313 -75 q 779 142 599 -75 q 871 336 871 253 q 792 413 871 413 q 572 317 704 413 q 400 143 456 231 q 390 136 396 136 q 381 150 381 136 q 382 157 381 156 q 547 346 425 253 q 772 440 672 440 q 874 399 839 440 q 906 301 906 358 q 888 204 906 254 q 829 106 869 154 q 631 -47 753 8 q 385 -104 506 -104 m 426 514 q 569 526 497 514 q 944 692 768 564 q 1063 863 1063 776 q 968 919 1063 919 q 579 754 785 919 q 603 718 592 736 q 624 681 614 700 q 618 668 629 671 l 614 668 q 599 676 603 668 q 581 701 592 686 q 554 733 569 715 q 361 518 442 636 q 426 514 394 514 m 240 547 q 488 797 336 694 q 236 892 368 892 q 124 860 171 892 q 68 747 68 821 q 240 547 68 611 m 906 1008 q 858 1054 858 1008 q 903 1100 858 1100 q 950 1054 950 1100 q 906 1008 950 1008 z "},"D":{"ha":1063,"x_min":-49,"x_max":1111,"o":"m 71 -81 q -49 17 -49 -81 q -22 85 -49 54 q 47 117 7 117 q 93 97 76 117 q 108 58 108 79 q 81 1 108 25 q 31 -19 58 -19 q -12 -3 7 -19 q 67 -43 3 -43 q 99 -39 85 -43 q 299 101 214 -7 q 379 223 329 140 q 493 435 429 306 q 547 549 522 494 q 593 651 571 604 q 763 946 703 881 q 644 964 708 964 q 271 814 453 964 q 119 646 175 735 q 69 507 69 567 q 135 438 69 438 q 292 504 194 438 q 428 668 390 572 q 439 679 432 679 q 443 668 446 676 q 299 474 403 546 q 144 418 215 418 q 50 454 86 418 q 13 550 13 490 q 188 829 13 686 q 642 990 385 990 q 718 986 681 990 q 790 972 756 982 q 969 1047 876 1047 q 1043 1032 1006 1047 q 1050 1021 1053 1028 q 1040 1015 1046 1014 q 990 1025 1019 1025 q 842 957 911 1025 q 1035 819 967 913 q 1111 574 1111 718 q 1111 545 1111 560 q 1108 515 1111 531 q 928 125 1086 292 q 540 -65 769 -44 q 521 -67 531 -67 q 501 -68 511 -68 q 361 22 361 -68 q 371 65 361 44 q 71 -81 219 -81 m 504 -42 q 519 -42 511 -42 q 535 -40 526 -42 q 864 142 732 -19 q 1007 493 979 285 q 1011 534 1010 514 q 1013 574 1013 554 q 814 926 1013 831 q 760 832 790 896 q 693 669 729 768 q 659 571 675 621 q 625 472 643 521 q 546 294 601 406 q 514 240 532 268 q 474 182 496 213 l 476 183 q 554 222 513 203 q 649 251 596 242 q 737 265 693 261 q 824 265 781 268 q 833 258 833 265 q 822 250 833 250 q 806 251 815 250 q 790 251 797 251 q 660 231 733 251 q 511 156 565 203 q 419 19 419 75 q 504 -42 419 -42 z "},"":{"ha":272,"x_min":0,"x_max":0,"o":""},"Ǆ":{"ha":2174,"x_min":-49,"x_max":2376,"o":"m 71 -81 q -49 17 -49 -81 q -22 85 -49 54 q 47 117 7 117 q 93 97 76 117 q 108 58 108 79 q 81 1 108 25 q 31 -19 58 -19 q -12 -3 7 -19 q 67 -43 3 -43 q 99 -39 85 -43 q 299 101 214 -7 q 379 223 329 140 q 493 435 429 306 q 547 549 522 494 q 593 651 571 604 q 763 946 703 881 q 644 964 708 964 q 271 814 453 964 q 119 646 175 735 q 69 507 69 567 q 135 438 69 438 q 292 504 194 438 q 428 668 390 572 q 439 679 432 679 q 443 668 446 676 q 299 474 403 546 q 144 418 215 418 q 50 454 86 418 q 13 550 13 490 q 188 829 13 686 q 642 990 385 990 q 718 986 681 990 q 790 972 756 982 q 969 1047 876 1047 q 1043 1032 1006 1047 q 1050 1021 1053 1028 q 1040 1015 1046 1014 q 990 1025 1019 1025 q 842 957 911 1025 q 1035 819 967 913 q 1111 574 1111 718 q 1111 545 1111 560 q 1108 515 1111 531 q 928 125 1086 292 q 540 -65 769 -44 q 521 -67 531 -67 q 501 -68 511 -68 q 361 22 361 -68 q 371 65 361 44 q 71 -81 219 -81 m 504 -42 q 519 -42 511 -42 q 535 -40 526 -42 q 864 142 732 -19 q 1007 493 979 285 q 1011 534 1010 514 q 1013 574 1013 554 q 814 926 1013 831 q 760 832 790 896 q 693 669 729 768 q 659 571 675 621 q 625 472 643 521 q 546 294 601 406 q 514 240 532 268 q 474 182 496 213 l 476 183 q 554 222 513 203 q 649 251 596 242 q 737 265 693 261 q 824 265 781 268 q 833 258 833 265 q 822 250 833 250 q 806 251 815 250 q 790 251 797 251 q 660 231 733 251 q 511 156 565 203 q 419 19 419 75 q 504 -42 419 -42 m 1849 -164 q 1697 -144 1779 -164 q 1522 -85 1615 -125 q 1384 -21 1453 -54 q 1246 44 1315 13 q 1042 -42 1135 -42 q 997 -26 1017 -42 q 982 7 982 -14 q 1051 89 982 61 q 1122 101 1083 101 q 1224 83 1169 101 q 1722 565 1493 369 q 2135 865 1950 760 q 2058 869 2107 864 q 1942 886 2010 874 q 1815 906 1871 899 q 1718 913 1758 913 q 1438 849 1567 913 q 1293 744 1346 804 q 1246 644 1246 693 q 1356 565 1246 565 q 1588 635 1449 565 q 1703 705 1647 665 q 1815 793 1760 744 q 1833 801 1824 800 q 1842 797 1842 804 q 1838 792 1842 794 q 1599 613 1731 681 q 1469 560 1531 578 q 1351 542 1408 542 q 1218 585 1261 542 q 1181 679 1181 622 q 1236 819 1181 747 q 1393 933 1293 893 q 1649 983 1521 983 q 1766 973 1701 983 q 1908 943 1831 963 q 2136 896 2074 900 q 2150 894 2143 894 q 2163 894 2157 894 q 2200 901 2193 894 q 2336 968 2282 968 q 2376 938 2376 968 q 2315 882 2376 897 q 2264 876 2294 876 q 2240 877 2253 876 q 2214 879 2228 878 l 2208 878 q 1990 728 2113 825 q 1715 493 1867 632 q 1590 372 1699 478 q 1281 72 1481 267 q 1826 -65 1654 -65 q 1942 -49 1894 -65 q 2058 31 2007 -25 q 2113 140 2113 88 q 2033 228 2113 201 q 1954 239 1996 239 q 1880 231 1918 239 q 1801 208 1842 224 q 1611 83 1696 168 q 1599 78 1606 78 q 1586 86 1586 78 q 1588 92 1586 90 q 1785 238 1668 192 q 1933 265 1856 265 q 2039 250 1989 265 q 2172 88 2172 207 q 2114 -58 2172 11 q 1957 -153 2053 -132 q 1903 -161 1931 -158 q 1849 -164 1876 -164 m 1919 1029 q 1899 1047 1914 1029 q 1866 1089 1883 1065 q 1836 1131 1849 1113 q 1824 1153 1824 1150 q 1835 1163 1824 1163 q 1854 1152 1839 1163 q 1889 1128 1869 1142 q 1921 1104 1908 1115 q 1940 1094 1932 1094 q 1947 1097 1943 1094 q 1957 1100 1951 1099 q 2005 1126 1976 1111 q 2057 1151 2033 1140 q 2083 1163 2081 1163 q 2090 1153 2090 1163 q 2067 1133 2090 1151 q 2012 1090 2043 1114 q 1954 1047 1981 1065 q 1922 1029 1928 1029 l 1919 1029 z "},"Ď":{"ha":1063,"x_min":-49,"x_max":1194,"o":"m 71 -81 q -49 17 -49 -81 q -22 85 -49 54 q 47 117 7 117 q 93 97 76 117 q 108 58 108 79 q 81 1 108 25 q 31 -19 58 -19 q -12 -3 7 -19 q 67 -43 3 -43 q 99 -39 85 -43 q 299 101 214 -7 q 379 223 329 140 q 493 435 429 306 q 547 549 522 494 q 593 651 571 604 q 763 946 703 881 q 644 964 708 964 q 271 814 453 964 q 119 646 175 735 q 69 507 69 567 q 135 438 69 438 q 292 504 194 438 q 428 668 390 572 q 439 679 432 679 q 443 668 446 676 q 299 474 403 546 q 144 418 215 418 q 50 454 86 418 q 13 550 13 490 q 188 829 13 686 q 642 990 385 990 q 718 986 681 990 q 790 972 756 982 q 969 1047 876 1047 q 1043 1032 1006 1047 q 1050 1021 1053 1028 q 1040 1015 1046 1014 q 990 1025 1019 1025 q 842 957 911 1025 q 1035 819 967 913 q 1111 574 1111 718 q 1111 545 1111 560 q 1108 515 1111 531 q 928 125 1086 292 q 540 -65 769 -44 q 521 -67 531 -67 q 501 -68 511 -68 q 361 22 361 -68 q 371 65 361 44 q 71 -81 219 -81 m 504 -42 q 519 -42 511 -42 q 535 -40 526 -42 q 864 142 732 -19 q 1007 493 979 285 q 1011 534 1010 514 q 1013 574 1013 554 q 814 926 1013 831 q 760 832 790 896 q 693 669 729 768 q 659 571 675 621 q 625 472 643 521 q 546 294 601 406 q 514 240 532 268 q 474 182 496 213 l 476 183 q 554 222 513 203 q 649 251 596 242 q 737 265 693 261 q 824 265 781 268 q 833 258 833 265 q 822 250 833 250 q 806 251 815 250 q 790 251 797 251 q 660 231 733 251 q 511 156 565 203 q 419 19 419 75 q 504 -42 419 -42 m 1024 1103 q 1003 1121 1018 1103 q 970 1163 988 1139 q 940 1205 953 1186 q 928 1226 928 1224 q 939 1236 928 1236 q 958 1226 943 1236 q 993 1202 974 1215 q 1025 1178 1013 1189 q 1044 1168 1036 1168 q 1051 1170 1047 1168 q 1061 1174 1056 1172 q 1109 1199 1081 1185 q 1161 1225 1138 1214 q 1188 1236 1185 1236 q 1194 1226 1194 1236 q 1171 1206 1194 1225 q 1116 1163 1147 1188 q 1058 1121 1085 1139 q 1026 1103 1032 1103 l 1024 1103 z "},"Đ":{"ha":1063,"x_min":-49,"x_max":1111,"o":"m 71 -81 q -49 17 -49 -81 q -22 85 -49 54 q 47 117 7 117 q 93 97 76 117 q 108 58 108 79 q 81 1 108 25 q 31 -19 58 -19 q -12 -3 7 -19 q 67 -43 3 -43 q 99 -39 85 -43 q 299 101 214 -7 q 379 223 329 140 q 493 435 429 306 q 547 549 522 494 q 593 651 571 604 q 763 946 703 881 q 644 964 708 964 q 271 814 453 964 q 119 646 175 735 q 69 507 69 567 q 135 438 69 438 q 292 504 194 438 q 428 668 390 572 q 439 679 432 679 q 443 668 446 676 q 299 474 403 546 q 144 418 215 418 q 50 454 86 418 q 13 550 13 490 q 188 829 13 686 q 642 990 385 990 q 718 986 681 990 q 790 972 756 982 q 969 1047 876 1047 q 1043 1032 1006 1047 q 1050 1021 1053 1028 q 1040 1015 1046 1014 q 990 1025 1019 1025 q 842 957 911 1025 q 1035 819 967 913 q 1111 574 1111 718 q 1111 545 1111 560 q 1108 515 1111 531 q 928 125 1086 292 q 540 -65 769 -44 q 521 -67 531 -67 q 501 -68 511 -68 q 361 22 361 -68 q 371 65 361 44 q 71 -81 219 -81 m 504 -42 q 519 -42 511 -42 q 535 -40 526 -42 q 864 142 732 -19 q 1007 493 979 285 q 1011 534 1010 514 q 1013 574 1013 554 q 814 926 1013 831 q 760 832 790 896 q 693 669 729 768 q 659 571 675 621 q 625 472 643 521 q 546 294 601 406 q 514 240 532 268 q 474 182 496 213 l 476 183 q 554 222 513 203 q 649 251 596 242 q 737 265 693 261 q 824 265 781 268 q 833 258 833 265 q 822 250 833 250 q 806 251 815 250 q 790 251 797 251 q 660 231 733 251 q 511 156 565 203 q 419 19 419 75 q 504 -42 419 -42 m 332 276 q 317 289 324 276 q 308 317 308 304 q 332 343 308 343 q 438 342 361 343 q 638 338 514 340 q 667 315 667 338 q 643 300 667 300 q 513 294 590 300 q 332 276 435 288 z "},"Δ":{"ha":806,"x_min":110,"x_max":729,"o":"m 142 -14 q 119 3 129 -14 q 110 32 110 21 q 126 64 110 36 q 160 121 143 92 q 191 175 172 142 q 230 244 210 208 q 268 308 250 279 q 308 376 282 332 q 360 465 333 419 q 406 544 386 511 q 428 579 425 576 q 449 607 433 592 q 476 622 465 622 q 492 617 486 622 l 726 89 l 729 76 q 706 22 728 44 q 661 -14 685 -1 l 142 -14 m 633 57 l 442 500 l 182 57 l 633 57 z "},"ǅ":{"ha":1443,"x_min":-49,"x_max":1564,"o":"m 71 -81 q -49 17 -49 -81 q -22 85 -49 54 q 47 117 7 117 q 93 97 76 117 q 108 58 108 79 q 81 1 108 25 q 31 -19 58 -19 q -12 -3 7 -19 q 67 -43 3 -43 q 99 -39 85 -43 q 299 101 214 -7 q 379 223 329 140 q 493 435 429 306 q 547 549 522 494 q 593 651 571 604 q 763 946 703 881 q 644 964 708 964 q 271 814 453 964 q 119 646 175 735 q 69 507 69 567 q 135 438 69 438 q 292 504 194 438 q 428 668 390 572 q 439 679 432 679 q 443 668 446 676 q 299 474 403 546 q 144 418 215 418 q 50 454 86 418 q 13 550 13 490 q 188 829 13 686 q 642 990 385 990 q 718 986 681 990 q 790 972 756 982 q 969 1047 876 1047 q 1043 1032 1006 1047 q 1050 1021 1053 1028 q 1040 1015 1046 1014 q 990 1025 1019 1025 q 842 957 911 1025 q 1035 819 967 913 q 1111 574 1111 718 q 1111 545 1111 560 q 1108 515 1111 531 q 928 125 1086 292 q 540 -65 769 -44 q 521 -67 531 -67 q 501 -68 511 -68 q 361 22 361 -68 q 371 65 361 44 q 71 -81 219 -81 m 504 -42 q 519 -42 511 -42 q 535 -40 526 -42 q 864 142 732 -19 q 1007 493 979 285 q 1011 534 1010 514 q 1013 574 1013 554 q 814 926 1013 831 q 760 832 790 896 q 693 669 729 768 q 659 571 675 621 q 625 472 643 521 q 546 294 601 406 q 514 240 532 268 q 474 182 496 213 l 476 183 q 554 222 513 203 q 649 251 596 242 q 737 265 693 261 q 824 265 781 268 q 833 258 833 265 q 822 250 833 250 q 806 251 815 250 q 790 251 797 251 q 660 231 733 251 q 511 156 565 203 q 419 19 419 75 q 504 -42 419 -42 m 1064 0 l 1110 81 q 1272 260 1139 108 l 1189 260 l 1222 279 l 1289 279 q 1361 359 1329 324 q 1415 418 1393 394 q 1340 415 1385 418 q 1238 407 1296 413 q 1204 386 1224 397 q 1201 385 1203 386 q 1197 385 1200 385 q 1185 389 1192 385 l 1271 485 l 1535 483 l 1479 431 q 1435 385 1471 424 q 1333 279 1399 347 l 1449 279 l 1415 260 l 1315 260 q 1292 235 1304 247 q 1269 213 1281 224 q 1227 166 1256 199 q 1154 81 1199 133 q 1229 76 1174 81 q 1313 72 1286 72 q 1390 88 1375 72 l 1413 110 l 1431 96 l 1344 1 l 1064 0 m 1393 550 q 1372 568 1388 550 q 1340 610 1357 586 q 1310 652 1322 633 q 1297 674 1297 671 q 1308 683 1297 683 q 1328 673 1313 683 q 1363 649 1343 663 q 1394 625 1382 636 q 1414 615 1406 615 q 1421 617 1417 615 q 1431 621 1425 619 q 1478 647 1450 632 q 1531 672 1507 661 q 1557 683 1554 683 q 1564 674 1564 683 q 1540 653 1564 672 q 1485 610 1517 635 q 1428 568 1454 586 q 1396 550 1401 550 l 1393 550 z "},"E":{"ha":814,"x_min":11,"x_max":965,"o":"m 363 -87 q 100 -8 194 -87 q 15 174 15 63 q 118 396 15 297 q 418 524 232 506 q 392 571 403 546 q 317 577 353 572 q 249 589 281 582 q 69 678 133 617 q 11 801 11 735 q 83 928 11 876 q 265 976 156 976 q 372 965 318 976 q 481 926 426 953 q 485 918 485 925 q 472 910 485 904 q 274 958 371 958 q 136 915 188 958 q 85 803 85 872 q 131 688 85 740 q 274 608 183 629 q 328 599 300 603 q 385 593 356 594 q 379 644 379 615 q 458 822 379 743 q 726 946 553 917 q 762 950 744 949 q 796 951 779 951 q 918 919 871 951 q 965 838 965 889 q 853 678 965 757 q 453 571 710 579 q 464 528 454 549 q 511 528 488 529 q 558 526 535 528 q 608 489 608 522 q 554 457 608 457 q 435 506 483 457 q 225 376 307 485 q 151 156 151 275 q 203 -1 151 58 q 363 -69 258 -69 q 489 -42 429 -69 q 596 31 549 -14 q 670 124 643 75 q 697 214 697 172 q 669 278 697 253 q 576 304 640 304 q 484 284 533 304 q 389 233 435 264 q 310 168 343 201 q 265 110 276 135 q 254 106 263 101 q 249 118 246 110 q 299 192 264 154 q 381 263 333 229 q 482 316 428 296 q 592 336 536 336 q 744 299 697 336 q 792 208 792 261 q 760 110 792 161 q 670 13 728 58 q 534 -60 613 -32 q 363 -87 456 -87 m 453 594 q 815 707 669 606 q 933 851 933 790 q 832 914 933 914 q 567 800 694 914 q 453 594 461 707 z "},"É":{"ha":814,"x_min":11,"x_max":965,"o":"m 363 -87 q 100 -8 194 -87 q 15 174 15 63 q 118 396 15 297 q 418 524 232 506 q 392 571 403 546 q 317 577 353 572 q 249 589 281 582 q 69 678 133 617 q 11 801 11 735 q 83 928 11 876 q 265 976 156 976 q 372 965 318 976 q 481 926 426 953 q 485 918 485 925 q 472 910 485 904 q 274 958 371 958 q 136 915 188 958 q 85 803 85 872 q 131 688 85 740 q 274 608 183 629 q 328 599 300 603 q 385 593 356 594 q 379 644 379 615 q 458 822 379 743 q 726 946 553 917 q 762 950 744 949 q 796 951 779 951 q 918 919 871 951 q 965 838 965 889 q 853 678 965 757 q 453 571 710 579 q 464 528 454 549 q 511 528 488 529 q 558 526 535 528 q 608 489 608 522 q 554 457 608 457 q 435 506 483 457 q 225 376 307 485 q 151 156 151 275 q 203 -1 151 58 q 363 -69 258 -69 q 489 -42 429 -69 q 596 31 549 -14 q 670 124 643 75 q 697 214 697 172 q 669 278 697 253 q 576 304 640 304 q 484 284 533 304 q 389 233 435 264 q 310 168 343 201 q 265 110 276 135 q 254 106 263 101 q 249 118 246 110 q 299 192 264 154 q 381 263 333 229 q 482 316 428 296 q 592 336 536 336 q 744 299 697 336 q 792 208 792 261 q 760 110 792 161 q 670 13 728 58 q 534 -60 613 -32 q 363 -87 456 -87 m 453 594 q 815 707 669 606 q 933 851 933 790 q 832 914 933 914 q 567 800 694 914 q 453 594 461 707 m 728 1011 q 717 1021 717 1013 q 733 1037 717 1022 q 775 1072 750 1051 q 827 1111 800 1092 q 875 1144 854 1131 q 901 1158 896 1158 q 924 1132 924 1158 q 878 1075 924 1099 q 820 1049 854 1064 q 759 1022 786 1033 q 728 1011 732 1011 z "},"Ĕ":{"ha":814,"x_min":11,"x_max":981,"o":"m 363 -87 q 100 -8 194 -87 q 15 174 15 63 q 118 396 15 297 q 418 524 232 506 q 392 571 403 546 q 317 577 353 572 q 249 589 281 582 q 69 678 133 617 q 11 801 11 735 q 83 928 11 876 q 265 976 156 976 q 372 965 318 976 q 481 926 426 953 q 485 918 485 925 q 472 910 485 904 q 274 958 371 958 q 136 915 188 958 q 85 803 85 872 q 131 688 85 740 q 274 608 183 629 q 328 599 300 603 q 385 593 356 594 q 379 644 379 615 q 458 822 379 743 q 726 946 553 917 q 762 950 744 949 q 796 951 779 951 q 918 919 871 951 q 965 838 965 889 q 853 678 965 757 q 453 571 710 579 q 464 528 454 549 q 511 528 488 529 q 558 526 535 528 q 608 489 608 522 q 554 457 608 457 q 435 506 483 457 q 225 376 307 485 q 151 156 151 275 q 203 -1 151 58 q 363 -69 258 -69 q 489 -42 429 -69 q 596 31 549 -14 q 670 124 643 75 q 697 214 697 172 q 669 278 697 253 q 576 304 640 304 q 484 284 533 304 q 389 233 435 264 q 310 168 343 201 q 265 110 276 135 q 254 106 263 101 q 249 118 246 110 q 299 192 264 154 q 381 263 333 229 q 482 316 428 296 q 592 336 536 336 q 744 299 697 336 q 792 208 792 261 q 760 110 792 161 q 670 13 728 58 q 534 -60 613 -32 q 363 -87 456 -87 m 453 594 q 815 707 669 606 q 933 851 933 790 q 832 914 933 914 q 567 800 694 914 q 453 594 461 707 m 792 1007 q 683 1097 683 1007 q 690 1128 683 1114 q 706 1143 696 1142 l 707 1143 q 728 1131 722 1143 q 744 1078 724 1088 q 808 1068 764 1068 q 892 1078 851 1068 q 958 1136 932 1089 q 969 1143 963 1143 q 976 1131 981 1143 q 951 1081 972 1110 q 890 1029 929 1051 q 792 1007 851 1007 z "},"Ě":{"ha":814,"x_min":11,"x_max":1008,"o":"m 363 -87 q 100 -8 194 -87 q 15 174 15 63 q 118 396 15 297 q 418 524 232 506 q 392 571 403 546 q 317 577 353 572 q 249 589 281 582 q 69 678 133 617 q 11 801 11 735 q 83 928 11 876 q 265 976 156 976 q 372 965 318 976 q 481 926 426 953 q 485 918 485 925 q 472 910 485 904 q 274 958 371 958 q 136 915 188 958 q 85 803 85 872 q 131 688 85 740 q 274 608 183 629 q 328 599 300 603 q 385 593 356 594 q 379 644 379 615 q 458 822 379 743 q 726 946 553 917 q 762 950 744 949 q 796 951 779 951 q 918 919 871 951 q 965 838 965 889 q 853 678 965 757 q 453 571 710 579 q 464 528 454 549 q 511 528 488 529 q 558 526 535 528 q 608 489 608 522 q 554 457 608 457 q 435 506 483 457 q 225 376 307 485 q 151 156 151 275 q 203 -1 151 58 q 363 -69 258 -69 q 489 -42 429 -69 q 596 31 549 -14 q 670 124 643 75 q 697 214 697 172 q 669 278 697 253 q 576 304 640 304 q 484 284 533 304 q 389 233 435 264 q 310 168 343 201 q 265 110 276 135 q 254 106 263 101 q 249 118 246 110 q 299 192 264 154 q 381 263 333 229 q 482 316 428 296 q 592 336 536 336 q 744 299 697 336 q 792 208 792 261 q 760 110 792 161 q 670 13 728 58 q 534 -60 613 -32 q 363 -87 456 -87 m 453 594 q 815 707 669 606 q 933 851 933 790 q 832 914 933 914 q 567 800 694 914 q 453 594 461 707 m 806 1013 q 781 1030 800 1013 q 740 1070 763 1047 q 702 1111 718 1093 q 686 1132 686 1129 q 703 1143 686 1143 q 743 1127 710 1143 q 807 1096 776 1111 q 832 1090 818 1090 q 848 1092 840 1090 q 865 1097 856 1094 q 918 1117 889 1106 q 971 1135 947 1128 q 997 1143 994 1143 q 1008 1132 1008 1143 q 990 1118 1008 1131 q 943 1088 971 1106 q 887 1053 915 1071 q 837 1024 858 1036 q 810 1013 815 1013 l 806 1013 z "},"Ê":{"ha":814,"x_min":11,"x_max":968,"o":"m 363 -87 q 100 -8 194 -87 q 15 174 15 63 q 118 396 15 297 q 418 524 232 506 q 392 571 403 546 q 317 577 353 572 q 249 589 281 582 q 69 678 133 617 q 11 801 11 735 q 83 928 11 876 q 265 976 156 976 q 372 965 318 976 q 481 926 426 953 q 485 918 485 925 q 472 910 485 904 q 274 958 371 958 q 136 915 188 958 q 85 803 85 872 q 131 688 85 740 q 274 608 183 629 q 328 599 300 603 q 385 593 356 594 q 379 644 379 615 q 458 822 379 743 q 726 946 553 917 q 762 950 744 949 q 796 951 779 951 q 918 919 871 951 q 965 838 965 889 q 853 678 965 757 q 453 571 710 579 q 464 528 454 549 q 511 528 488 529 q 558 526 535 528 q 608 489 608 522 q 554 457 608 457 q 435 506 483 457 q 225 376 307 485 q 151 156 151 275 q 203 -1 151 58 q 363 -69 258 -69 q 489 -42 429 -69 q 596 31 549 -14 q 670 124 643 75 q 697 214 697 172 q 669 278 697 253 q 576 304 640 304 q 484 284 533 304 q 389 233 435 264 q 310 168 343 201 q 265 110 276 135 q 254 106 263 101 q 249 118 246 110 q 299 192 264 154 q 381 263 333 229 q 482 316 428 296 q 592 336 536 336 q 744 299 697 336 q 792 208 792 261 q 760 110 792 161 q 670 13 728 58 q 534 -60 613 -32 q 363 -87 456 -87 m 453 594 q 815 707 669 606 q 933 851 933 790 q 832 914 933 914 q 567 800 694 914 q 453 594 461 707 m 657 1013 q 646 1024 646 1013 q 665 1038 646 1025 q 711 1067 683 1050 q 767 1102 739 1085 q 817 1131 796 1119 q 844 1143 839 1143 l 849 1143 q 873 1126 854 1143 q 914 1085 892 1108 q 952 1044 936 1063 q 968 1024 968 1026 q 951 1013 968 1013 q 913 1029 946 1013 q 847 1060 879 1046 q 822 1065 836 1065 q 806 1063 814 1065 q 789 1058 799 1061 q 737 1039 767 1050 q 684 1020 707 1028 q 657 1013 661 1013 z "},"Ế":{"ha":814,"x_min":11,"x_max":1149,"o":"m 363 -87 q 100 -8 194 -87 q 15 174 15 63 q 118 396 15 297 q 418 524 232 506 q 392 571 403 546 q 317 577 353 572 q 249 589 281 582 q 69 678 133 617 q 11 801 11 735 q 83 928 11 876 q 265 976 156 976 q 372 965 318 976 q 481 926 426 953 q 485 918 485 925 q 472 910 485 904 q 274 958 371 958 q 136 915 188 958 q 85 803 85 872 q 131 688 85 740 q 274 608 183 629 q 328 599 300 603 q 385 593 356 594 q 379 644 379 615 q 458 822 379 743 q 726 946 553 917 q 762 950 744 949 q 796 951 779 951 q 918 919 871 951 q 965 838 965 889 q 853 678 965 757 q 453 571 710 579 q 464 528 454 549 q 511 528 488 529 q 558 526 535 528 q 608 489 608 522 q 554 457 608 457 q 435 506 483 457 q 225 376 307 485 q 151 156 151 275 q 203 -1 151 58 q 363 -69 258 -69 q 489 -42 429 -69 q 596 31 549 -14 q 670 124 643 75 q 697 214 697 172 q 669 278 697 253 q 576 304 640 304 q 484 284 533 304 q 389 233 435 264 q 310 168 343 201 q 265 110 276 135 q 254 106 263 101 q 249 118 246 110 q 299 192 264 154 q 381 263 333 229 q 482 316 428 296 q 592 336 536 336 q 744 299 697 336 q 792 208 792 261 q 760 110 792 161 q 670 13 728 58 q 534 -60 613 -32 q 363 -87 456 -87 m 453 594 q 815 707 669 606 q 933 851 933 790 q 832 914 933 914 q 567 800 694 914 q 453 594 461 707 m 657 1013 q 646 1024 646 1013 q 665 1038 646 1025 q 711 1067 683 1050 q 767 1102 739 1085 q 817 1131 796 1119 q 844 1143 839 1143 l 849 1143 q 873 1126 854 1143 q 914 1085 892 1108 q 952 1044 936 1063 q 968 1024 968 1026 q 951 1013 968 1013 q 913 1029 946 1013 q 847 1060 879 1046 q 822 1065 836 1065 q 806 1063 814 1065 q 789 1058 799 1061 q 737 1039 767 1050 q 684 1020 707 1028 q 657 1013 661 1013 m 953 1133 q 942 1143 942 1135 q 958 1159 942 1144 q 1000 1194 975 1174 q 1052 1233 1025 1214 q 1100 1267 1079 1253 q 1126 1281 1121 1281 q 1149 1254 1149 1281 q 1103 1197 1149 1221 q 1045 1171 1079 1186 q 984 1144 1011 1156 q 953 1133 957 1133 z "},"Ệ":{"ha":814,"x_min":11,"x_max":968,"o":"m 363 -87 q 100 -8 194 -87 q 15 174 15 63 q 118 396 15 297 q 418 524 232 506 q 392 571 403 546 q 317 577 353 572 q 249 589 281 582 q 69 678 133 617 q 11 801 11 735 q 83 928 11 876 q 265 976 156 976 q 372 965 318 976 q 481 926 426 953 q 485 918 485 925 q 472 910 485 904 q 274 958 371 958 q 136 915 188 958 q 85 803 85 872 q 131 688 85 740 q 274 608 183 629 q 328 599 300 603 q 385 593 356 594 q 379 644 379 615 q 458 822 379 743 q 726 946 553 917 q 762 950 744 949 q 796 951 779 951 q 918 919 871 951 q 965 838 965 889 q 853 678 965 757 q 453 571 710 579 q 464 528 454 549 q 511 528 488 529 q 558 526 535 528 q 608 489 608 522 q 554 457 608 457 q 435 506 483 457 q 225 376 307 485 q 151 156 151 275 q 203 -1 151 58 q 363 -69 258 -69 q 489 -42 429 -69 q 596 31 549 -14 q 670 124 643 75 q 697 214 697 172 q 669 278 697 253 q 576 304 640 304 q 484 284 533 304 q 389 233 435 264 q 310 168 343 201 q 265 110 276 135 q 254 106 263 101 q 249 118 246 110 q 299 192 264 154 q 381 263 333 229 q 482 316 428 296 q 592 336 536 336 q 744 299 697 336 q 792 208 792 261 q 760 110 792 161 q 670 13 728 58 q 534 -60 613 -32 q 363 -87 456 -87 m 453 594 q 815 707 669 606 q 933 851 933 790 q 832 914 933 914 q 567 800 694 914 q 453 594 461 707 m 322 -257 q 275 -211 275 -257 q 319 -165 275 -165 q 367 -211 367 -165 q 322 -257 367 -257 m 657 1013 q 646 1024 646 1013 q 665 1038 646 1025 q 711 1067 683 1050 q 767 1102 739 1085 q 817 1131 796 1119 q 844 1143 839 1143 l 849 1143 q 873 1126 854 1143 q 914 1085 892 1108 q 952 1044 936 1063 q 968 1024 968 1026 q 951 1013 968 1013 q 913 1029 946 1013 q 847 1060 879 1046 q 822 1065 836 1065 q 806 1063 814 1065 q 789 1058 799 1061 q 737 1039 767 1050 q 684 1020 707 1028 q 657 1013 661 1013 z "},"Ề":{"ha":814,"x_min":11,"x_max":1082,"o":"m 363 -87 q 100 -8 194 -87 q 15 174 15 63 q 118 396 15 297 q 418 524 232 506 q 392 571 403 546 q 317 577 353 572 q 249 589 281 582 q 69 678 133 617 q 11 801 11 735 q 83 928 11 876 q 265 976 156 976 q 372 965 318 976 q 481 926 426 953 q 485 918 485 925 q 472 910 485 904 q 274 958 371 958 q 136 915 188 958 q 85 803 85 872 q 131 688 85 740 q 274 608 183 629 q 328 599 300 603 q 385 593 356 594 q 379 644 379 615 q 458 822 379 743 q 726 946 553 917 q 762 950 744 949 q 796 951 779 951 q 918 919 871 951 q 965 838 965 889 q 853 678 965 757 q 453 571 710 579 q 464 528 454 549 q 511 528 488 529 q 558 526 535 528 q 608 489 608 522 q 554 457 608 457 q 435 506 483 457 q 225 376 307 485 q 151 156 151 275 q 203 -1 151 58 q 363 -69 258 -69 q 489 -42 429 -69 q 596 31 549 -14 q 670 124 643 75 q 697 214 697 172 q 669 278 697 253 q 576 304 640 304 q 484 284 533 304 q 389 233 435 264 q 310 168 343 201 q 265 110 276 135 q 254 106 263 101 q 249 118 246 110 q 299 192 264 154 q 381 263 333 229 q 482 316 428 296 q 592 336 536 336 q 744 299 697 336 q 792 208 792 261 q 760 110 792 161 q 670 13 728 58 q 534 -60 613 -32 q 363 -87 456 -87 m 453 594 q 815 707 669 606 q 933 851 933 790 q 832 914 933 914 q 567 800 694 914 q 453 594 461 707 m 657 1013 q 646 1024 646 1013 q 665 1038 646 1025 q 711 1067 683 1050 q 767 1102 739 1085 q 817 1131 796 1119 q 844 1143 839 1143 l 849 1143 q 873 1126 854 1143 q 914 1085 892 1108 q 952 1044 936 1063 q 968 1024 968 1026 q 951 1013 968 1013 q 913 1029 946 1013 q 847 1060 879 1046 q 822 1065 836 1065 q 806 1063 814 1065 q 789 1058 799 1061 q 737 1039 767 1050 q 684 1020 707 1028 q 657 1013 661 1013 m 1069 1132 q 1038 1143 1065 1132 q 976 1169 1010 1154 q 919 1196 943 1185 q 874 1253 874 1222 q 897 1279 874 1279 q 924 1266 904 1279 q 971 1233 944 1253 q 1023 1192 997 1213 q 1065 1158 1049 1172 q 1082 1143 1082 1144 q 1069 1132 1082 1132 z "},"Ể":{"ha":814,"x_min":11,"x_max":1107,"o":"m 363 -87 q 100 -8 194 -87 q 15 174 15 63 q 118 396 15 297 q 418 524 232 506 q 392 571 403 546 q 317 577 353 572 q 249 589 281 582 q 69 678 133 617 q 11 801 11 735 q 83 928 11 876 q 265 976 156 976 q 372 965 318 976 q 481 926 426 953 q 485 918 485 925 q 472 910 485 904 q 274 958 371 958 q 136 915 188 958 q 85 803 85 872 q 131 688 85 740 q 274 608 183 629 q 328 599 300 603 q 385 593 356 594 q 379 644 379 615 q 458 822 379 743 q 726 946 553 917 q 762 950 744 949 q 796 951 779 951 q 918 919 871 951 q 965 838 965 889 q 853 678 965 757 q 453 571 710 579 q 464 528 454 549 q 511 528 488 529 q 558 526 535 528 q 608 489 608 522 q 554 457 608 457 q 435 506 483 457 q 225 376 307 485 q 151 156 151 275 q 203 -1 151 58 q 363 -69 258 -69 q 489 -42 429 -69 q 596 31 549 -14 q 670 124 643 75 q 697 214 697 172 q 669 278 697 253 q 576 304 640 304 q 484 284 533 304 q 389 233 435 264 q 310 168 343 201 q 265 110 276 135 q 254 106 263 101 q 249 118 246 110 q 299 192 264 154 q 381 263 333 229 q 482 316 428 296 q 592 336 536 336 q 744 299 697 336 q 792 208 792 261 q 760 110 792 161 q 670 13 728 58 q 534 -60 613 -32 q 363 -87 456 -87 m 453 594 q 815 707 669 606 q 933 851 933 790 q 832 914 933 914 q 567 800 694 914 q 453 594 461 707 m 657 1013 q 646 1024 646 1013 q 665 1038 646 1025 q 711 1067 683 1050 q 767 1102 739 1085 q 817 1131 796 1119 q 844 1143 839 1143 l 849 1143 q 873 1126 854 1143 q 914 1085 892 1108 q 952 1044 936 1063 q 968 1024 968 1026 q 951 1013 968 1013 q 913 1029 946 1013 q 847 1060 879 1046 q 822 1065 836 1065 q 806 1063 814 1065 q 789 1058 799 1061 q 737 1039 767 1050 q 684 1020 707 1028 q 657 1013 661 1013 m 990 1128 q 983 1133 983 1128 q 989 1144 983 1139 q 1028 1178 1011 1163 q 1046 1225 1046 1194 q 1015 1244 1046 1244 q 976 1240 996 1244 q 951 1235 957 1235 q 942 1242 942 1235 q 959 1264 942 1253 q 1002 1283 976 1275 q 1050 1290 1028 1290 q 1094 1275 1082 1290 q 1107 1240 1107 1260 q 1080 1172 1107 1192 q 1014 1133 1053 1153 q 990 1128 1003 1128 z "},"Ễ":{"ha":814,"x_min":11,"x_max":1036,"o":"m 363 -87 q 100 -8 194 -87 q 15 174 15 63 q 118 396 15 297 q 418 524 232 506 q 392 571 403 546 q 317 577 353 572 q 249 589 281 582 q 69 678 133 617 q 11 801 11 735 q 83 928 11 876 q 265 976 156 976 q 372 965 318 976 q 481 926 426 953 q 485 918 485 925 q 472 910 485 904 q 274 958 371 958 q 136 915 188 958 q 85 803 85 872 q 131 688 85 740 q 274 608 183 629 q 328 599 300 603 q 385 593 356 594 q 379 644 379 615 q 458 822 379 743 q 726 946 553 917 q 762 950 744 949 q 796 951 779 951 q 918 919 871 951 q 965 838 965 889 q 853 678 965 757 q 453 571 710 579 q 464 528 454 549 q 511 528 488 529 q 558 526 535 528 q 608 489 608 522 q 554 457 608 457 q 435 506 483 457 q 225 376 307 485 q 151 156 151 275 q 203 -1 151 58 q 363 -69 258 -69 q 489 -42 429 -69 q 596 31 549 -14 q 670 124 643 75 q 697 214 697 172 q 669 278 697 253 q 576 304 640 304 q 484 284 533 304 q 389 233 435 264 q 310 168 343 201 q 265 110 276 135 q 254 106 263 101 q 249 118 246 110 q 299 192 264 154 q 381 263 333 229 q 482 316 428 296 q 592 336 536 336 q 744 299 697 336 q 792 208 792 261 q 760 110 792 161 q 670 13 728 58 q 534 -60 613 -32 q 363 -87 456 -87 m 453 594 q 815 707 669 606 q 933 851 933 790 q 832 914 933 914 q 567 800 694 914 q 453 594 461 707 m 657 1013 q 646 1024 646 1013 q 665 1038 646 1025 q 711 1067 683 1050 q 767 1102 739 1085 q 817 1131 796 1119 q 844 1143 839 1143 l 849 1143 q 873 1126 854 1143 q 914 1085 892 1108 q 952 1044 936 1063 q 968 1024 968 1026 q 951 1013 968 1013 q 913 1029 946 1013 q 847 1060 879 1046 q 822 1065 836 1065 q 806 1063 814 1065 q 789 1058 799 1061 q 737 1039 767 1050 q 684 1020 707 1028 q 657 1013 661 1013 m 932 1176 q 850 1199 897 1176 q 788 1218 808 1218 q 756 1209 769 1218 q 728 1182 743 1200 q 715 1179 728 1179 q 703 1181 710 1179 q 699 1185 697 1182 q 747 1249 721 1229 q 804 1269 772 1269 q 876 1251 833 1269 q 947 1232 915 1232 q 1007 1269 989 1232 q 1021 1274 1010 1274 q 1031 1272 1025 1274 q 1035 1268 1036 1271 q 993 1199 1019 1221 q 932 1176 967 1176 z "},"Ȅ":{"ha":814,"x_min":11,"x_max":965,"o":"m 363 -87 q 100 -8 194 -87 q 15 174 15 63 q 118 396 15 297 q 418 524 232 506 q 392 571 403 546 q 317 577 353 572 q 249 589 281 582 q 69 678 133 617 q 11 801 11 735 q 83 928 11 876 q 265 976 156 976 q 372 965 318 976 q 481 926 426 953 q 485 918 485 925 q 472 910 485 904 q 274 958 371 958 q 136 915 188 958 q 85 803 85 872 q 131 688 85 740 q 274 608 183 629 q 328 599 300 603 q 385 593 356 594 q 379 644 379 615 q 458 822 379 743 q 726 946 553 917 q 762 950 744 949 q 796 951 779 951 q 918 919 871 951 q 965 838 965 889 q 853 678 965 757 q 453 571 710 579 q 464 528 454 549 q 511 528 488 529 q 558 526 535 528 q 608 489 608 522 q 554 457 608 457 q 435 506 483 457 q 225 376 307 485 q 151 156 151 275 q 203 -1 151 58 q 363 -69 258 -69 q 489 -42 429 -69 q 596 31 549 -14 q 670 124 643 75 q 697 214 697 172 q 669 278 697 253 q 576 304 640 304 q 484 284 533 304 q 389 233 435 264 q 310 168 343 201 q 265 110 276 135 q 254 106 263 101 q 249 118 246 110 q 299 192 264 154 q 381 263 333 229 q 482 316 428 296 q 592 336 536 336 q 744 299 697 336 q 792 208 792 261 q 760 110 792 161 q 670 13 728 58 q 534 -60 613 -32 q 363 -87 456 -87 m 453 594 q 815 707 669 606 q 933 851 933 790 q 832 914 933 914 q 567 800 694 914 q 453 594 461 707 m 864 1007 q 833 1020 860 1007 q 774 1050 806 1033 q 719 1079 742 1067 q 678 1139 678 1107 q 684 1160 678 1154 q 703 1165 690 1165 q 729 1149 710 1164 q 774 1113 749 1135 q 822 1069 799 1090 q 862 1032 846 1047 q 878 1015 878 1017 q 864 1007 876 1007 m 722 1007 q 690 1019 718 1007 q 630 1048 663 1032 q 575 1075 597 1064 q 531 1135 531 1101 q 556 1160 532 1160 q 581 1145 561 1160 q 627 1110 601 1131 q 678 1068 653 1089 q 719 1033 703 1047 q 735 1017 735 1018 q 722 1007 735 1006 z "},"Ë":{"ha":814,"x_min":11,"x_max":965,"o":"m 363 -87 q 100 -8 194 -87 q 15 174 15 63 q 118 396 15 297 q 418 524 232 506 q 392 571 403 546 q 317 577 353 572 q 249 589 281 582 q 69 678 133 617 q 11 801 11 735 q 83 928 11 876 q 265 976 156 976 q 372 965 318 976 q 481 926 426 953 q 485 918 485 925 q 472 910 485 904 q 274 958 371 958 q 136 915 188 958 q 85 803 85 872 q 131 688 85 740 q 274 608 183 629 q 328 599 300 603 q 385 593 356 594 q 379 644 379 615 q 458 822 379 743 q 726 946 553 917 q 762 950 744 949 q 796 951 779 951 q 918 919 871 951 q 965 838 965 889 q 853 678 965 757 q 453 571 710 579 q 464 528 454 549 q 511 528 488 529 q 558 526 535 528 q 608 489 608 522 q 554 457 608 457 q 435 506 483 457 q 225 376 307 485 q 151 156 151 275 q 203 -1 151 58 q 363 -69 258 -69 q 489 -42 429 -69 q 596 31 549 -14 q 670 124 643 75 q 697 214 697 172 q 669 278 697 253 q 576 304 640 304 q 484 284 533 304 q 389 233 435 264 q 310 168 343 201 q 265 110 276 135 q 254 106 263 101 q 249 118 246 110 q 299 192 264 154 q 381 263 333 229 q 482 316 428 296 q 592 336 536 336 q 744 299 697 336 q 792 208 792 261 q 760 110 792 161 q 670 13 728 58 q 534 -60 613 -32 q 363 -87 456 -87 m 453 594 q 815 707 669 606 q 933 851 933 790 q 832 914 933 914 q 567 800 694 914 q 453 594 461 707 m 888 1013 q 840 1058 840 1013 q 885 1104 840 1104 q 932 1058 932 1104 q 888 1013 932 1013 m 708 1013 q 661 1058 661 1013 q 706 1104 661 1104 q 753 1058 753 1104 q 708 1013 753 1013 z "},"Ė":{"ha":814,"x_min":11,"x_max":965,"o":"m 363 -87 q 100 -8 194 -87 q 15 174 15 63 q 118 396 15 297 q 418 524 232 506 q 392 571 403 546 q 317 577 353 572 q 249 589 281 582 q 69 678 133 617 q 11 801 11 735 q 83 928 11 876 q 265 976 156 976 q 372 965 318 976 q 481 926 426 953 q 485 918 485 925 q 472 910 485 904 q 274 958 371 958 q 136 915 188 958 q 85 803 85 872 q 131 688 85 740 q 274 608 183 629 q 328 599 300 603 q 385 593 356 594 q 379 644 379 615 q 458 822 379 743 q 726 946 553 917 q 762 950 744 949 q 796 951 779 951 q 918 919 871 951 q 965 838 965 889 q 853 678 965 757 q 453 571 710 579 q 464 528 454 549 q 511 528 488 529 q 558 526 535 528 q 608 489 608 522 q 554 457 608 457 q 435 506 483 457 q 225 376 307 485 q 151 156 151 275 q 203 -1 151 58 q 363 -69 258 -69 q 489 -42 429 -69 q 596 31 549 -14 q 670 124 643 75 q 697 214 697 172 q 669 278 697 253 q 576 304 640 304 q 484 284 533 304 q 389 233 435 264 q 310 168 343 201 q 265 110 276 135 q 254 106 263 101 q 249 118 246 110 q 299 192 264 154 q 381 263 333 229 q 482 316 428 296 q 592 336 536 336 q 744 299 697 336 q 792 208 792 261 q 760 110 792 161 q 670 13 728 58 q 534 -60 613 -32 q 363 -87 456 -87 m 453 594 q 815 707 669 606 q 933 851 933 790 q 832 914 933 914 q 567 800 694 914 q 453 594 461 707 m 799 1013 q 751 1058 751 1013 q 796 1104 751 1104 q 843 1058 843 1104 q 799 1013 843 1013 z "},"Ẹ":{"ha":814,"x_min":11,"x_max":965,"o":"m 363 -87 q 100 -8 194 -87 q 15 174 15 63 q 118 396 15 297 q 418 524 232 506 q 392 571 403 546 q 317 577 353 572 q 249 589 281 582 q 69 678 133 617 q 11 801 11 735 q 83 928 11 876 q 265 976 156 976 q 372 965 318 976 q 481 926 426 953 q 485 918 485 925 q 472 910 485 904 q 274 958 371 958 q 136 915 188 958 q 85 803 85 872 q 131 688 85 740 q 274 608 183 629 q 328 599 300 603 q 385 593 356 594 q 379 644 379 615 q 458 822 379 743 q 726 946 553 917 q 762 950 744 949 q 796 951 779 951 q 918 919 871 951 q 965 838 965 889 q 853 678 965 757 q 453 571 710 579 q 464 528 454 549 q 511 528 488 529 q 558 526 535 528 q 608 489 608 522 q 554 457 608 457 q 435 506 483 457 q 225 376 307 485 q 151 156 151 275 q 203 -1 151 58 q 363 -69 258 -69 q 489 -42 429 -69 q 596 31 549 -14 q 670 124 643 75 q 697 214 697 172 q 669 278 697 253 q 576 304 640 304 q 484 284 533 304 q 389 233 435 264 q 310 168 343 201 q 265 110 276 135 q 254 106 263 101 q 249 118 246 110 q 299 192 264 154 q 381 263 333 229 q 482 316 428 296 q 592 336 536 336 q 744 299 697 336 q 792 208 792 261 q 760 110 792 161 q 670 13 728 58 q 534 -60 613 -32 q 363 -87 456 -87 m 453 594 q 815 707 669 606 q 933 851 933 790 q 832 914 933 914 q 567 800 694 914 q 453 594 461 707 m 322 -257 q 275 -211 275 -257 q 319 -165 275 -165 q 367 -211 367 -165 q 322 -257 367 -257 z "},"È":{"ha":814,"x_min":11,"x_max":965,"o":"m 363 -87 q 100 -8 194 -87 q 15 174 15 63 q 118 396 15 297 q 418 524 232 506 q 392 571 403 546 q 317 577 353 572 q 249 589 281 582 q 69 678 133 617 q 11 801 11 735 q 83 928 11 876 q 265 976 156 976 q 372 965 318 976 q 481 926 426 953 q 485 918 485 925 q 472 910 485 904 q 274 958 371 958 q 136 915 188 958 q 85 803 85 872 q 131 688 85 740 q 274 608 183 629 q 328 599 300 603 q 385 593 356 594 q 379 644 379 615 q 458 822 379 743 q 726 946 553 917 q 762 950 744 949 q 796 951 779 951 q 918 919 871 951 q 965 838 965 889 q 853 678 965 757 q 453 571 710 579 q 464 528 454 549 q 511 528 488 529 q 558 526 535 528 q 608 489 608 522 q 554 457 608 457 q 435 506 483 457 q 225 376 307 485 q 151 156 151 275 q 203 -1 151 58 q 363 -69 258 -69 q 489 -42 429 -69 q 596 31 549 -14 q 670 124 643 75 q 697 214 697 172 q 669 278 697 253 q 576 304 640 304 q 484 284 533 304 q 389 233 435 264 q 310 168 343 201 q 265 110 276 135 q 254 106 263 101 q 249 118 246 110 q 299 192 264 154 q 381 263 333 229 q 482 316 428 296 q 592 336 536 336 q 744 299 697 336 q 792 208 792 261 q 760 110 792 161 q 670 13 728 58 q 534 -60 613 -32 q 363 -87 456 -87 m 453 594 q 815 707 669 606 q 933 851 933 790 q 832 914 933 914 q 567 800 694 914 q 453 594 461 707 m 844 1010 q 813 1021 840 1010 q 751 1047 785 1032 q 694 1074 718 1063 q 649 1131 649 1100 q 672 1157 649 1157 q 699 1144 679 1157 q 746 1110 719 1131 q 798 1070 772 1090 q 840 1036 824 1050 q 857 1021 857 1022 q 844 1010 857 1010 z "},"Ẻ":{"ha":814,"x_min":11,"x_max":965,"o":"m 363 -87 q 100 -8 194 -87 q 15 174 15 63 q 118 396 15 297 q 418 524 232 506 q 392 571 403 546 q 317 577 353 572 q 249 589 281 582 q 69 678 133 617 q 11 801 11 735 q 83 928 11 876 q 265 976 156 976 q 372 965 318 976 q 481 926 426 953 q 485 918 485 925 q 472 910 485 904 q 274 958 371 958 q 136 915 188 958 q 85 803 85 872 q 131 688 85 740 q 274 608 183 629 q 328 599 300 603 q 385 593 356 594 q 379 644 379 615 q 458 822 379 743 q 726 946 553 917 q 762 950 744 949 q 796 951 779 951 q 918 919 871 951 q 965 838 965 889 q 853 678 965 757 q 453 571 710 579 q 464 528 454 549 q 511 528 488 529 q 558 526 535 528 q 608 489 608 522 q 554 457 608 457 q 435 506 483 457 q 225 376 307 485 q 151 156 151 275 q 203 -1 151 58 q 363 -69 258 -69 q 489 -42 429 -69 q 596 31 549 -14 q 670 124 643 75 q 697 214 697 172 q 669 278 697 253 q 576 304 640 304 q 484 284 533 304 q 389 233 435 264 q 310 168 343 201 q 265 110 276 135 q 254 106 263 101 q 249 118 246 110 q 299 192 264 154 q 381 263 333 229 q 482 316 428 296 q 592 336 536 336 q 744 299 697 336 q 792 208 792 261 q 760 110 792 161 q 670 13 728 58 q 534 -60 613 -32 q 363 -87 456 -87 m 453 594 q 815 707 669 606 q 933 851 933 790 q 832 914 933 914 q 567 800 694 914 q 453 594 461 707 m 803 1017 q 796 1022 796 1017 q 801 1033 796 1028 q 841 1067 824 1051 q 858 1114 858 1083 q 828 1133 858 1133 q 789 1128 808 1133 q 764 1124 769 1124 q 754 1131 754 1124 q 772 1153 754 1142 q 815 1172 789 1164 q 863 1179 840 1179 q 907 1164 894 1179 q 919 1129 919 1149 q 892 1061 919 1081 q 826 1022 865 1042 q 803 1017 815 1017 z "},"Ȇ":{"ha":814,"x_min":11,"x_max":965,"o":"m 857 1143 q 930 1119 906 1143 q 954 1060 954 1096 q 950 1026 954 1042 q 935 1007 946 1010 l 932 1007 q 914 1018 919 1007 q 915 1028 915 1024 q 915 1039 915 1033 q 897 1077 915 1067 q 844 1088 879 1088 q 769 1072 806 1088 q 707 1013 732 1057 q 697 1007 703 1007 q 690 1018 686 1007 q 715 1067 696 1038 q 769 1120 733 1097 q 857 1143 804 1143 m 363 -87 q 100 -8 194 -87 q 15 174 15 63 q 118 396 15 297 q 418 524 232 506 q 392 571 403 546 q 317 577 353 572 q 249 589 281 582 q 69 678 133 617 q 11 801 11 735 q 83 928 11 876 q 265 976 156 976 q 372 965 318 976 q 481 926 426 953 q 485 918 485 925 q 472 910 485 904 q 274 958 371 958 q 136 915 188 958 q 85 803 85 872 q 131 688 85 740 q 274 608 183 629 q 328 599 300 603 q 385 593 356 594 q 379 644 379 615 q 458 822 379 743 q 726 946 553 917 q 762 950 744 949 q 796 951 779 951 q 918 919 871 951 q 965 838 965 889 q 853 678 965 757 q 453 571 710 579 q 464 528 454 549 q 511 528 488 529 q 558 526 535 528 q 608 489 608 522 q 554 457 608 457 q 435 506 483 457 q 225 376 307 485 q 151 156 151 275 q 203 -1 151 58 q 363 -69 258 -69 q 489 -42 429 -69 q 596 31 549 -14 q 670 124 643 75 q 697 214 697 172 q 669 278 697 253 q 576 304 640 304 q 484 284 533 304 q 389 233 435 264 q 310 168 343 201 q 265 110 276 135 q 254 106 263 101 q 249 118 246 110 q 299 192 264 154 q 381 263 333 229 q 482 316 428 296 q 592 336 536 336 q 744 299 697 336 q 792 208 792 261 q 760 110 792 161 q 670 13 728 58 q 534 -60 613 -32 q 363 -87 456 -87 m 453 594 q 815 707 669 606 q 933 851 933 790 q 832 914 933 914 q 567 800 694 914 q 453 594 461 707 z "},"Ē":{"ha":814,"x_min":11,"x_max":965,"o":"m 363 -87 q 100 -8 194 -87 q 15 174 15 63 q 118 396 15 297 q 418 524 232 506 q 392 571 403 546 q 317 577 353 572 q 249 589 281 582 q 69 678 133 617 q 11 801 11 735 q 83 928 11 876 q 265 976 156 976 q 372 965 318 976 q 481 926 426 953 q 485 918 485 925 q 472 910 485 904 q 274 958 371 958 q 136 915 188 958 q 85 803 85 872 q 131 688 85 740 q 274 608 183 629 q 328 599 300 603 q 385 593 356 594 q 379 644 379 615 q 458 822 379 743 q 726 946 553 917 q 762 950 744 949 q 796 951 779 951 q 918 919 871 951 q 965 838 965 889 q 853 678 965 757 q 453 571 710 579 q 464 528 454 549 q 511 528 488 529 q 558 526 535 528 q 608 489 608 522 q 554 457 608 457 q 435 506 483 457 q 225 376 307 485 q 151 156 151 275 q 203 -1 151 58 q 363 -69 258 -69 q 489 -42 429 -69 q 596 31 549 -14 q 670 124 643 75 q 697 214 697 172 q 669 278 697 253 q 576 304 640 304 q 484 284 533 304 q 389 233 435 264 q 310 168 343 201 q 265 110 276 135 q 254 106 263 101 q 249 118 246 110 q 299 192 264 154 q 381 263 333 229 q 482 316 428 296 q 592 336 536 336 q 744 299 697 336 q 792 208 792 261 q 760 110 792 161 q 670 13 728 58 q 534 -60 613 -32 q 363 -87 456 -87 m 453 594 q 815 707 669 606 q 933 851 933 790 q 832 914 933 914 q 567 800 694 914 q 453 594 461 707 m 642 1029 q 635 1042 635 1032 q 643 1065 635 1053 q 661 1076 651 1076 l 949 1076 q 954 1065 954 1076 q 948 1042 954 1056 q 931 1029 942 1029 l 642 1029 z "},"Ŋ":{"ha":1182,"x_min":40,"x_max":1564,"o":"m 490 -529 q 381 -502 419 -529 q 327 -433 342 -475 q 313 -344 313 -390 q 317 -290 313 -317 q 323 -283 317 -286 q 335 -281 329 -281 q 347 -289 347 -281 q 345 -310 346 -300 q 344 -331 344 -321 q 375 -433 344 -394 q 481 -471 406 -471 q 552 -457 513 -471 q 633 -408 592 -443 q 710 -308 674 -372 q 752 -233 726 -279 q 806 -131 778 -186 q 855 -24 833 -76 q 885 69 876 29 q 885 71 883 68 q 847 197 867 117 q 812 376 828 278 q 786 576 796 474 q 776 767 776 678 q 803 925 776 864 q 712 790 760 897 q 593 469 664 683 q 551 348 574 413 q 495 221 528 283 q 417 106 463 158 q 310 22 372 54 q 163 -17 247 -11 q 149 -18 157 -17 q 135 -19 142 -19 q 40 60 40 -19 q 57 107 40 86 q 107 132 78 132 q 144 115 131 131 q 156 100 151 108 q 160 82 160 92 q 111 29 160 29 q 69 50 79 29 q 139 11 75 11 q 151 12 146 11 q 163 14 157 13 q 280 83 226 29 q 379 216 333 138 q 467 385 425 294 q 548 564 508 475 q 629 726 588 653 q 739 894 683 824 q 854 1001 794 964 l 829 1006 q 783 1011 807 1010 q 731 1013 758 1013 q 630 1007 681 1013 q 528 990 579 1001 q 435 964 476 979 q 363 931 394 949 q 206 747 206 839 q 307 672 206 672 q 440 704 365 672 q 569 792 515 738 q 578 794 575 794 q 589 785 589 794 q 588 781 589 782 q 463 686 546 726 q 292 646 379 646 q 163 676 214 646 q 111 758 111 707 q 163 867 111 807 q 397 999 236 953 q 540 1028 465 1018 q 696 1038 614 1038 q 781 1033 740 1038 q 858 1025 821 1029 q 867 1024 861 1025 q 883 1022 874 1024 q 919 1028 906 1033 q 947 1032 935 1031 q 971 1033 960 1033 q 1038 999 1038 1033 q 1019 972 1038 982 q 976 963 1000 963 q 897 990 944 963 q 831 789 831 951 q 836 644 831 731 q 851 461 842 558 q 874 273 861 364 q 901 115 888 182 q 981 378 942 246 q 1063 631 1019 511 q 1163 843 1107 750 q 1290 990 1218 936 q 1460 1044 1363 1044 q 1564 975 1564 1044 q 1546 919 1564 943 q 1492 890 1524 890 q 1449 908 1465 890 q 1432 946 1432 925 q 1492 1008 1432 1008 q 1533 986 1519 1008 q 1471 1026 1528 1026 q 1434 1019 1453 1026 q 1397 1006 1415 1011 q 1280 923 1331 985 q 1189 769 1229 861 q 1115 566 1149 678 q 1049 333 1082 454 q 981 89 1017 211 q 900 -146 944 -33 q 797 -350 856 -258 q 669 -482 742 -435 q 490 -529 596 -529 z "},"Ę":{"ha":814,"x_min":11,"x_max":965,"o":"m 363 -87 q 100 -8 194 -87 q 15 174 15 63 q 118 396 15 297 q 418 524 232 506 q 392 571 403 546 q 317 577 353 572 q 249 589 281 582 q 69 678 133 617 q 11 801 11 735 q 83 928 11 876 q 265 976 156 976 q 372 965 318 976 q 481 926 426 953 q 485 918 485 925 q 472 910 485 904 q 274 958 371 958 q 136 915 188 958 q 85 803 85 872 q 131 688 85 740 q 274 608 183 629 q 328 599 300 603 q 385 593 356 594 q 379 644 379 615 q 458 822 379 743 q 726 946 553 917 q 762 950 744 949 q 796 951 779 951 q 918 919 871 951 q 965 838 965 889 q 853 678 965 757 q 453 571 710 579 q 464 528 454 549 q 511 528 488 529 q 558 526 535 528 q 608 489 608 522 q 554 457 608 457 q 435 506 483 457 q 225 376 307 485 q 151 156 151 275 q 203 -1 151 58 q 363 -69 258 -69 q 489 -42 429 -69 q 596 31 549 -14 q 670 124 643 75 q 697 214 697 172 q 669 278 697 253 q 576 304 640 304 q 484 284 533 304 q 389 233 435 264 q 310 168 343 201 q 265 110 276 135 q 254 106 263 101 q 249 118 246 110 q 299 192 264 154 q 381 263 333 229 q 482 316 428 296 q 592 336 536 336 q 744 299 697 336 q 792 208 792 261 q 760 110 792 161 q 670 13 728 58 q 534 -60 613 -32 q 363 -87 456 -87 m 453 594 q 815 707 669 606 q 933 851 933 790 q 832 914 933 914 q 567 800 694 914 q 453 594 461 707 m 557 -275 q 491 -256 513 -275 q 469 -207 469 -237 q 494 -125 469 -172 q 568 -24 519 -78 q 590 -11 581 -11 q 601 -16 597 -11 q 600 -26 606 -21 q 550 -104 574 -60 q 525 -185 525 -151 q 572 -229 525 -228 q 625 -223 594 -229 q 676 -207 656 -217 q 678 -206 678 -207 q 681 -206 679 -206 q 689 -215 689 -206 q 683 -228 688 -221 q 672 -239 679 -235 q 613 -265 650 -254 q 557 -275 576 -275 z "},"Ð":{"ha":1063,"x_min":-49,"x_max":1111,"o":"m 71 -81 q -49 17 -49 -81 q -22 85 -49 54 q 47 117 7 117 q 93 97 76 117 q 108 58 108 79 q 81 1 108 25 q 31 -19 58 -19 q -12 -3 7 -19 q 67 -43 3 -43 q 99 -39 85 -43 q 299 101 214 -7 q 379 223 329 140 q 493 435 429 306 q 547 549 522 494 q 593 651 571 604 q 763 946 703 881 q 644 964 708 964 q 271 814 453 964 q 119 646 175 735 q 69 507 69 567 q 135 438 69 438 q 292 504 194 438 q 428 668 390 572 q 439 679 432 679 q 443 668 446 676 q 299 474 403 546 q 144 418 215 418 q 50 454 86 418 q 13 550 13 490 q 188 829 13 686 q 642 990 385 990 q 718 986 681 990 q 790 972 756 982 q 969 1047 876 1047 q 1043 1032 1006 1047 q 1050 1021 1053 1028 q 1040 1015 1046 1014 q 990 1025 1019 1025 q 842 957 911 1025 q 1035 819 967 913 q 1111 574 1111 718 q 1111 545 1111 560 q 1108 515 1111 531 q 928 125 1086 292 q 540 -65 769 -44 q 521 -67 531 -67 q 501 -68 511 -68 q 361 22 361 -68 q 371 65 361 44 q 71 -81 219 -81 m 504 -42 q 519 -42 511 -42 q 535 -40 526 -42 q 864 142 732 -19 q 1007 493 979 285 q 1011 534 1010 514 q 1013 574 1013 554 q 814 926 1013 831 q 760 832 790 896 q 693 669 729 768 q 659 571 675 621 q 625 472 643 521 q 546 294 601 406 q 514 240 532 268 q 474 182 496 213 l 476 183 q 554 222 513 203 q 649 251 596 242 q 737 265 693 261 q 824 265 781 268 q 833 258 833 265 q 822 250 833 250 q 806 251 815 250 q 790 251 797 251 q 660 231 733 251 q 511 156 565 203 q 419 19 419 75 q 504 -42 419 -42 m 332 276 q 317 289 324 276 q 308 317 308 304 q 332 343 308 343 q 438 342 361 343 q 638 338 514 340 q 667 315 667 338 q 643 300 667 300 q 513 294 590 300 q 332 276 435 288 z "},"Ẽ":{"ha":814,"x_min":11,"x_max":994,"o":"m 363 -87 q 100 -8 194 -87 q 15 174 15 63 q 118 396 15 297 q 418 524 232 506 q 392 571 403 546 q 317 577 353 572 q 249 589 281 582 q 69 678 133 617 q 11 801 11 735 q 83 928 11 876 q 265 976 156 976 q 372 965 318 976 q 481 926 426 953 q 485 918 485 925 q 472 910 485 904 q 274 958 371 958 q 136 915 188 958 q 85 803 85 872 q 131 688 85 740 q 274 608 183 629 q 328 599 300 603 q 385 593 356 594 q 379 644 379 615 q 458 822 379 743 q 726 946 553 917 q 762 950 744 949 q 796 951 779 951 q 918 919 871 951 q 965 838 965 889 q 853 678 965 757 q 453 571 710 579 q 464 528 454 549 q 511 528 488 529 q 558 526 535 528 q 608 489 608 522 q 554 457 608 457 q 435 506 483 457 q 225 376 307 485 q 151 156 151 275 q 203 -1 151 58 q 363 -69 258 -69 q 489 -42 429 -69 q 596 31 549 -14 q 670 124 643 75 q 697 214 697 172 q 669 278 697 253 q 576 304 640 304 q 484 284 533 304 q 389 233 435 264 q 310 168 343 201 q 265 110 276 135 q 254 106 263 101 q 249 118 246 110 q 299 192 264 154 q 381 263 333 229 q 482 316 428 296 q 592 336 536 336 q 744 299 697 336 q 792 208 792 261 q 760 110 792 161 q 670 13 728 58 q 534 -60 613 -32 q 363 -87 456 -87 m 453 594 q 815 707 669 606 q 933 851 933 790 q 832 914 933 914 q 567 800 694 914 q 453 594 461 707 m 890 1013 q 808 1035 856 1013 q 746 1054 767 1054 q 715 1045 728 1054 q 686 1018 701 1036 q 674 1015 686 1015 q 662 1017 668 1015 q 657 1021 656 1018 q 705 1085 679 1065 q 763 1106 731 1106 q 835 1088 792 1106 q 906 1068 874 1068 q 965 1106 947 1068 q 979 1110 968 1110 q 989 1108 983 1110 q 993 1104 994 1107 q 951 1035 978 1057 q 890 1013 925 1013 z "},"€":{"ha":799,"x_min":69,"x_max":771,"o":"m 335 -39 q 160 33 218 -39 q 101 211 101 106 q 107 287 101 249 q 122 361 113 325 l 69 361 l 81 390 l 128 390 q 138 419 133 407 q 149 447 143 431 l 92 447 l 104 478 l 160 478 q 227 597 183 533 q 329 716 271 660 q 458 808 388 772 q 604 843 528 843 q 723 803 675 843 q 771 690 771 764 q 761 629 771 667 q 731 563 751 592 q 681 535 711 535 q 668 542 668 535 q 685 572 668 543 q 719 643 703 600 q 736 728 736 686 q 719 787 736 764 q 664 810 703 810 q 532 778 594 810 q 416 697 469 747 q 322 589 363 647 q 256 478 281 531 l 513 478 l 499 447 l 243 447 q 232 419 238 431 q 221 390 226 407 l 475 390 l 463 361 l 215 361 q 202 292 207 326 q 197 221 197 257 q 215 108 197 160 q 273 24 232 56 q 383 -7 314 -7 q 473 15 429 -7 q 557 70 517 36 q 631 142 597 104 q 690 213 665 179 q 715 225 701 225 q 729 213 729 225 q 722 196 729 206 q 558 28 653 94 q 335 -39 463 -39 z "},"F":{"ha":793,"x_min":21,"x_max":1246,"o":"m 257 483 q 78 547 139 483 q 28 675 28 597 q 68 803 28 742 q 117 859 88 835 q 182 901 146 883 q 306 946 240 931 q 446 961 372 961 q 572 951 499 961 q 740 922 646 942 q 935 887 856 900 q 1054 874 1014 874 q 1101 878 1078 874 q 1147 888 1125 882 q 1224 940 1215 906 q 1238 954 1228 954 q 1246 946 1246 954 q 1242 933 1246 940 q 1124 843 1213 869 q 1008 826 1069 826 q 915 835 986 826 q 725 861 844 843 q 578 881 643 875 q 469 888 514 888 q 217 822 315 888 q 167 782 190 804 q 126 732 144 760 q 92 626 92 676 q 131 540 92 571 q 250 508 171 508 q 465 589 351 508 q 553 665 514 622 q 622 764 592 708 q 640 774 628 774 q 649 763 653 774 q 493 563 594 636 q 381 503 439 524 q 257 483 322 483 m 182 -61 q 64 -28 113 -61 q 21 54 21 1 q 46 118 21 92 q 114 150 74 150 q 160 131 140 150 q 175 89 175 114 q 151 35 175 56 q 100 14 129 14 q 56 33 75 14 q 93 -8 60 4 q 138 -17 114 -17 q 217 -3 179 -17 q 286 36 254 11 q 394 161 339 76 q 463 271 428 211 q 535 400 499 331 q 324 354 411 383 q 190 226 190 308 q 233 153 190 175 q 236 140 240 149 q 225 136 232 133 q 172 186 196 151 q 150 258 150 221 q 272 388 150 346 q 551 431 360 418 l 618 560 q 762 750 683 688 q 925 813 840 813 q 974 808 949 813 q 983 801 983 806 q 975 794 983 794 q 960 796 968 794 q 944 797 951 797 q 715 575 804 797 q 692 519 706 553 q 661 439 679 485 q 753 447 718 443 q 843 531 775 494 q 881 542 863 542 q 915 511 915 542 q 819 432 915 461 q 772 424 800 428 q 752 367 758 396 q 744 306 746 338 q 736 297 744 297 q 726 307 728 299 q 730 368 725 339 q 744 421 735 397 q 650 413 732 419 q 369 -1 529 113 q 182 -61 285 -61 z "},"G":{"ha":838,"x_min":17,"x_max":1051,"o":"m 222 -450 q 125 -424 165 -450 q 76 -337 76 -394 q 160 -236 76 -236 q 206 -256 186 -236 q 221 -297 221 -272 q 196 -351 221 -331 q 146 -372 174 -372 q 99 -351 118 -372 q 178 -397 106 -397 q 465 -192 324 -397 q 703 246 597 0 q 356 -7 529 -7 q 146 71 215 -7 q 85 258 85 140 q 188 583 85 422 q 67 667 115 615 q 17 785 17 724 q 97 919 17 872 q 240 956 157 956 q 489 863 383 956 q 881 979 692 979 q 1051 890 1051 979 q 903 693 1051 800 q 396 547 697 547 q 350 549 372 547 q 307 553 328 550 q 189 219 189 368 q 236 82 189 129 q 356 33 285 33 q 567 131 461 33 q 721 317 632 192 l 726 326 q 732 386 731 383 q 740 427 735 408 q 754 464 746 446 q 821 517 782 517 q 860 471 860 517 q 804 353 860 421 q 786 332 797 343 q 760 307 775 321 q 739 263 753 304 q 688 92 713 178 q 636 -79 664 6 q 552 -246 604 -175 q 433 -367 500 -317 q 222 -450 324 -450 m 400 578 q 532 590 465 578 q 713 646 625 608 q 883 743 801 683 q 923 776 904 758 q 960 817 942 794 q 999 901 999 865 q 913 953 999 953 q 539 810 724 953 q 588 732 569 774 q 581 721 592 724 l 576 721 q 563 728 567 721 q 515 792 547 751 q 328 583 410 703 q 365 579 347 581 q 400 578 382 578 m 210 617 q 458 844 306 749 q 236 926 351 926 q 131 897 175 926 q 75 789 75 861 q 210 617 75 675 z "},"Ğ":{"ha":838,"x_min":17,"x_max":1053,"o":"m 222 -450 q 125 -424 165 -450 q 76 -337 76 -394 q 160 -236 76 -236 q 206 -256 186 -236 q 221 -297 221 -272 q 196 -351 221 -331 q 146 -372 174 -372 q 99 -351 118 -372 q 178 -397 106 -397 q 465 -192 324 -397 q 703 246 597 0 q 356 -7 529 -7 q 146 71 215 -7 q 85 258 85 140 q 188 583 85 422 q 67 667 115 615 q 17 785 17 724 q 97 919 17 872 q 240 956 157 956 q 489 863 383 956 q 881 979 692 979 q 1051 890 1051 979 q 903 693 1051 800 q 396 547 697 547 q 350 549 372 547 q 307 553 328 550 q 189 219 189 368 q 236 82 189 129 q 356 33 285 33 q 567 131 461 33 q 721 317 632 192 l 726 326 q 732 386 731 383 q 740 427 735 408 q 754 464 746 446 q 821 517 782 517 q 860 471 860 517 q 804 353 860 421 q 786 332 797 343 q 760 307 775 321 q 739 263 753 304 q 688 92 713 178 q 636 -79 664 6 q 552 -246 604 -175 q 433 -367 500 -317 q 222 -450 324 -450 m 400 578 q 532 590 465 578 q 713 646 625 608 q 883 743 801 683 q 923 776 904 758 q 960 817 942 794 q 999 901 999 865 q 913 953 999 953 q 539 810 724 953 q 588 732 569 774 q 581 721 592 724 l 576 721 q 563 728 567 721 q 515 792 547 751 q 328 583 410 703 q 365 579 347 581 q 400 578 382 578 m 210 617 q 458 844 306 749 q 236 926 351 926 q 131 897 175 926 q 75 789 75 861 q 210 617 75 675 m 882 1035 q 810 1059 835 1035 q 785 1118 785 1083 q 789 1153 785 1138 q 804 1171 793 1169 l 807 1171 q 825 1160 819 1171 q 824 1149 824 1154 q 824 1139 824 1144 q 842 1101 824 1113 q 894 1090 860 1090 q 970 1106 933 1090 q 1032 1165 1007 1122 q 1042 1171 1036 1171 q 1049 1160 1053 1171 q 1025 1110 1044 1140 q 970 1058 1006 1081 q 882 1035 935 1035 z "},"Ǧ":{"ha":838,"x_min":17,"x_max":1056,"o":"m 222 -450 q 125 -424 165 -450 q 76 -337 76 -394 q 160 -236 76 -236 q 206 -256 186 -236 q 221 -297 221 -272 q 196 -351 221 -331 q 146 -372 174 -372 q 99 -351 118 -372 q 178 -397 106 -397 q 465 -192 324 -397 q 703 246 597 0 q 356 -7 529 -7 q 146 71 215 -7 q 85 258 85 140 q 188 583 85 422 q 67 667 115 615 q 17 785 17 724 q 97 919 17 872 q 240 956 157 956 q 489 863 383 956 q 881 979 692 979 q 1051 890 1051 979 q 903 693 1051 800 q 396 547 697 547 q 350 549 372 547 q 307 553 328 550 q 189 219 189 368 q 236 82 189 129 q 356 33 285 33 q 567 131 461 33 q 721 317 632 192 l 726 326 q 732 386 731 383 q 740 427 735 408 q 754 464 746 446 q 821 517 782 517 q 860 471 860 517 q 804 353 860 421 q 786 332 797 343 q 760 307 775 321 q 739 263 753 304 q 688 92 713 178 q 636 -79 664 6 q 552 -246 604 -175 q 433 -367 500 -317 q 222 -450 324 -450 m 400 578 q 532 590 465 578 q 713 646 625 608 q 883 743 801 683 q 923 776 904 758 q 960 817 942 794 q 999 901 999 865 q 913 953 999 953 q 539 810 724 953 q 588 732 569 774 q 581 721 592 724 l 576 721 q 563 728 567 721 q 515 792 547 751 q 328 583 410 703 q 365 579 347 581 q 400 578 382 578 m 210 617 q 458 844 306 749 q 236 926 351 926 q 131 897 175 926 q 75 789 75 861 q 210 617 75 675 m 885 1040 q 864 1058 879 1040 q 831 1100 849 1076 q 801 1142 814 1124 q 789 1164 789 1161 q 800 1174 789 1174 q 819 1163 804 1174 q 854 1140 835 1153 q 886 1115 874 1126 q 906 1106 897 1106 q 913 1108 908 1106 q 922 1111 917 1110 q 970 1137 942 1122 q 1022 1163 999 1151 q 1049 1174 1046 1174 q 1056 1164 1056 1174 q 1032 1144 1056 1163 q 977 1101 1008 1125 q 919 1058 946 1076 q 888 1040 893 1040 l 885 1040 z "},"Ĝ":{"ha":838,"x_min":17,"x_max":1051,"o":"m 222 -450 q 125 -424 165 -450 q 76 -337 76 -394 q 160 -236 76 -236 q 206 -256 186 -236 q 221 -297 221 -272 q 196 -351 221 -331 q 146 -372 174 -372 q 99 -351 118 -372 q 178 -397 106 -397 q 465 -192 324 -397 q 703 246 597 0 q 356 -7 529 -7 q 146 71 215 -7 q 85 258 85 140 q 188 583 85 422 q 67 667 115 615 q 17 785 17 724 q 97 919 17 872 q 240 956 157 956 q 489 863 383 956 q 881 979 692 979 q 1051 890 1051 979 q 903 693 1051 800 q 396 547 697 547 q 350 549 372 547 q 307 553 328 550 q 189 219 189 368 q 236 82 189 129 q 356 33 285 33 q 567 131 461 33 q 721 317 632 192 l 726 326 q 732 386 731 383 q 740 427 735 408 q 754 464 746 446 q 821 517 782 517 q 860 471 860 517 q 804 353 860 421 q 786 332 797 343 q 760 307 775 321 q 739 263 753 304 q 688 92 713 178 q 636 -79 664 6 q 552 -246 604 -175 q 433 -367 500 -317 q 222 -450 324 -450 m 400 578 q 532 590 465 578 q 713 646 625 608 q 883 743 801 683 q 923 776 904 758 q 960 817 942 794 q 999 901 999 865 q 913 953 999 953 q 539 810 724 953 q 588 732 569 774 q 581 721 592 724 l 576 721 q 563 728 567 721 q 515 792 547 751 q 328 583 410 703 q 365 579 347 581 q 400 578 382 578 m 210 617 q 458 844 306 749 q 236 926 351 926 q 131 897 175 926 q 75 789 75 861 q 210 617 75 675 m 764 1038 q 757 1047 757 1038 q 781 1067 757 1049 q 835 1110 804 1086 q 893 1153 867 1135 q 925 1171 919 1171 l 928 1171 q 949 1153 933 1171 q 981 1111 964 1135 q 1011 1069 999 1088 q 1024 1047 1024 1050 q 1013 1038 1024 1038 q 994 1048 1010 1038 q 959 1072 978 1058 q 926 1096 940 1086 q 907 1106 915 1106 q 900 1104 904 1106 q 890 1100 896 1103 q 842 1075 871 1090 q 791 1049 814 1060 q 764 1038 768 1038 z "},"Ģ":{"ha":838,"x_min":17,"x_max":1051,"o":"m 222 -450 q 125 -424 165 -450 q 76 -337 76 -394 q 160 -236 76 -236 q 206 -256 186 -236 q 221 -297 221 -272 q 196 -351 221 -331 q 146 -372 174 -372 q 99 -351 118 -372 q 178 -397 106 -397 q 465 -192 324 -397 q 703 246 597 0 q 356 -7 529 -7 q 146 71 215 -7 q 85 258 85 140 q 188 583 85 422 q 67 667 115 615 q 17 785 17 724 q 97 919 17 872 q 240 956 157 956 q 489 863 383 956 q 881 979 692 979 q 1051 890 1051 979 q 903 693 1051 800 q 396 547 697 547 q 350 549 372 547 q 307 553 328 550 q 189 219 189 368 q 236 82 189 129 q 356 33 285 33 q 567 131 461 33 q 721 317 632 192 l 726 326 q 732 386 731 383 q 740 427 735 408 q 754 464 746 446 q 821 517 782 517 q 860 471 860 517 q 804 353 860 421 q 786 332 797 343 q 760 307 775 321 q 739 263 753 304 q 688 92 713 178 q 636 -79 664 6 q 552 -246 604 -175 q 433 -367 500 -317 q 222 -450 324 -450 m 400 578 q 532 590 465 578 q 713 646 625 608 q 883 743 801 683 q 923 776 904 758 q 960 817 942 794 q 999 901 999 865 q 913 953 999 953 q 539 810 724 953 q 588 732 569 774 q 581 721 592 724 l 576 721 q 563 728 567 721 q 515 792 547 751 q 328 583 410 703 q 365 579 347 581 q 400 578 382 578 m 210 617 q 458 844 306 749 q 236 926 351 926 q 131 897 175 926 q 75 789 75 861 q 210 617 75 675 m 196 -789 q 189 -787 193 -789 q 186 -785 185 -786 q 192 -774 186 -782 q 239 -704 219 -737 q 264 -644 258 -671 q 235 -656 253 -656 q 207 -645 219 -656 q 194 -618 194 -635 q 212 -577 194 -593 q 251 -561 229 -561 q 290 -575 274 -561 q 306 -614 306 -589 q 275 -707 306 -658 q 208 -785 244 -756 q 196 -789 203 -789 z "},"Ġ":{"ha":838,"x_min":17,"x_max":1051,"o":"m 222 -450 q 125 -424 165 -450 q 76 -337 76 -394 q 160 -236 76 -236 q 206 -256 186 -236 q 221 -297 221 -272 q 196 -351 221 -331 q 146 -372 174 -372 q 99 -351 118 -372 q 178 -397 106 -397 q 465 -192 324 -397 q 703 246 597 0 q 356 -7 529 -7 q 146 71 215 -7 q 85 258 85 140 q 188 583 85 422 q 67 667 115 615 q 17 785 17 724 q 97 919 17 872 q 240 956 157 956 q 489 863 383 956 q 881 979 692 979 q 1051 890 1051 979 q 903 693 1051 800 q 396 547 697 547 q 350 549 372 547 q 307 553 328 550 q 189 219 189 368 q 236 82 189 129 q 356 33 285 33 q 567 131 461 33 q 721 317 632 192 l 726 326 q 732 386 731 383 q 740 427 735 408 q 754 464 746 446 q 821 517 782 517 q 860 471 860 517 q 804 353 860 421 q 786 332 797 343 q 760 307 775 321 q 739 263 753 304 q 688 92 713 178 q 636 -79 664 6 q 552 -246 604 -175 q 433 -367 500 -317 q 222 -450 324 -450 m 400 578 q 532 590 465 578 q 713 646 625 608 q 883 743 801 683 q 923 776 904 758 q 960 817 942 794 q 999 901 999 865 q 913 953 999 953 q 539 810 724 953 q 588 732 569 774 q 581 721 592 724 l 576 721 q 563 728 567 721 q 515 792 547 751 q 328 583 410 703 q 365 579 347 581 q 400 578 382 578 m 210 617 q 458 844 306 749 q 236 926 351 926 q 131 897 175 926 q 75 789 75 861 q 210 617 75 675 m 893 1040 q 846 1086 846 1040 q 890 1132 846 1132 q 938 1086 938 1132 q 893 1040 938 1040 z "},"ẞ":{"ha":808,"x_min":-343,"x_max":814,"o":"m -254 -294 q -343 -236 -336 -294 q -340 -214 -343 -225 q -326 -194 -336 -203 q -286 -178 -310 -178 q -258 -187 -268 -178 q -251 -215 -249 -199 q -267 -240 -251 -228 q -297 -253 -279 -253 q -321 -243 -311 -253 q -254 -268 -300 -268 q -242 -267 -247 -268 q -232 -265 -237 -267 q -107 -211 -161 -249 q -5 -103 -53 -174 q 97 83 43 -32 q 219 366 150 197 q 383 768 288 535 q 455 903 421 860 q 528 958 489 946 q 621 971 567 971 q 763 917 711 971 q 808 771 814 864 q 764 663 806 718 q 661 561 722 607 q 536 492 600 515 q 549 480 536 486 q 588 461 561 474 q 690 394 644 438 q 736 281 736 350 q 702 153 736 215 q 610 42 668 92 q 481 -36 553 -7 q 335 -65 410 -65 q 285 -62 310 -65 q 235 -50 260 -58 q 206 -40 217 -43 q 196 -31 196 -36 q 213 -21 196 -21 q 249 -25 224 -21 q 293 -29 272 -29 q 413 -3 354 -29 q 519 66 472 22 q 595 166 567 110 q 624 283 624 222 q 544 421 624 374 q 494 485 492 453 q 521 522 494 503 q 581 564 547 542 q 688 673 658 617 q 717 792 717 729 q 686 901 717 861 q 613 940 656 940 q 534 906 574 940 q 465 794 494 871 q 355 488 407 642 q 247 198 303 335 q 125 -47 192 61 q -28 -221 58 -156 q -233 -293 -115 -286 q -244 -294 -239 -293 q -254 -294 -249 -294 z "},"H":{"ha":1186,"x_min":1,"x_max":1454,"o":"m 119 -81 q 1 11 4 -81 q 26 81 1 50 q 88 113 51 113 q 132 90 114 113 q 147 49 147 74 q 83 -19 147 -19 q 36 7 50 -19 q 117 -43 43 -43 q 147 -39 133 -43 q 440 217 310 3 l 468 263 q 392 456 392 372 q 424 539 392 510 q 508 569 454 569 q 619 542 557 569 l 690 679 q 800 853 747 792 q 946 958 864 929 q 873 966 911 964 q 792 968 835 968 q 431 906 538 968 q 368 862 396 885 q 321 815 340 839 q 282 725 282 767 q 339 665 282 676 q 378 661 358 661 q 628 772 513 661 q 640 775 633 778 q 646 767 646 774 q 644 761 646 763 q 590 710 622 733 q 517 667 558 686 q 356 628 433 628 q 250 656 294 628 q 197 744 197 688 q 240 844 197 796 q 747 992 367 992 q 866 988 808 992 q 979 974 924 983 q 1064 986 1028 986 q 1135 951 1135 986 q 1115 924 1135 935 q 1069 913 1096 913 q 1033 921 1054 913 q 982 947 1011 929 q 872 861 915 922 q 839 799 857 839 q 800 701 821 758 q 752 574 774 631 q 713 478 731 518 q 808 374 765 435 q 872 278 843 326 q 928 178 901 229 q 1008 508 931 318 q 1084 667 1043 592 q 1172 808 1125 742 q 1438 1017 1308 1000 l 1444 1017 q 1454 1010 1454 1017 q 1446 1000 1454 1000 q 1249 822 1351 989 q 1163 658 1203 749 q 1089 463 1122 568 q 1022 126 1022 257 q 1079 8 1022 8 q 1171 78 1117 8 q 1296 294 1224 144 q 1310 311 1301 308 l 1311 311 q 1317 301 1317 311 q 1310 279 1317 293 q 1217 97 1233 124 q 1079 -21 1149 -12 q 1069 -22 1074 -22 q 1060 -22 1065 -22 q 939 82 972 -22 q 919 127 933 100 q 882 193 906 154 q 828 276 856 238 q 774 344 801 314 q 732 388 753 368 q 689 426 711 408 q 626 306 658 363 q 557 201 593 250 q 721 71 629 121 q 724 61 728 68 q 713 58 719 57 q 538 178 618 100 q 415 47 483 110 q 274 -48 347 -15 q 119 -81 200 -81 m 488 297 q 537 385 511 338 q 590 485 563 432 q 525 499 557 499 q 447 419 447 499 q 488 297 447 369 z "},"Ħ":{"ha":1186,"x_min":1,"x_max":1454,"o":"m 490 744 q 475 751 481 744 q 467 769 467 761 q 490 786 467 786 q 997 785 789 786 q 1324 782 1206 783 q 1350 768 1350 782 q 1328 758 1350 758 q 893 754 1214 758 q 617 749 718 751 q 490 744 517 746 m 119 -81 q 1 11 4 -81 q 26 81 1 50 q 88 113 51 113 q 132 90 114 113 q 147 49 147 74 q 83 -19 147 -19 q 36 7 50 -19 q 117 -43 43 -43 q 147 -39 133 -43 q 440 217 310 3 l 468 263 q 392 456 392 372 q 424 539 392 510 q 508 569 454 569 q 619 542 557 569 l 690 679 q 800 853 747 792 q 946 958 864 929 q 873 966 911 964 q 792 968 835 968 q 431 906 538 968 q 368 862 396 885 q 321 815 340 839 q 282 725 282 767 q 339 665 282 676 q 378 661 358 661 q 628 772 513 661 q 640 775 633 778 q 646 767 646 774 q 644 761 646 763 q 590 710 622 733 q 517 667 558 686 q 356 628 433 628 q 250 656 294 628 q 197 744 197 688 q 240 844 197 796 q 747 992 367 992 q 866 988 808 992 q 979 974 924 983 q 1064 986 1028 986 q 1135 951 1135 986 q 1115 924 1135 935 q 1069 913 1096 913 q 1033 921 1054 913 q 982 947 1011 929 q 872 861 915 922 q 839 799 857 839 q 800 701 821 758 q 752 574 774 631 q 713 478 731 518 q 808 374 765 435 q 872 278 843 326 q 928 178 901 229 q 1008 508 931 318 q 1084 667 1043 592 q 1172 808 1125 742 q 1438 1017 1308 1000 l 1444 1017 q 1454 1010 1454 1017 q 1446 1000 1454 1000 q 1249 822 1351 989 q 1163 658 1203 749 q 1089 463 1122 568 q 1022 126 1022 257 q 1079 8 1022 8 q 1171 78 1117 8 q 1296 294 1224 144 q 1310 311 1301 308 l 1311 311 q 1317 301 1317 311 q 1310 279 1317 293 q 1217 97 1233 124 q 1079 -21 1149 -12 q 1069 -22 1074 -22 q 1060 -22 1065 -22 q 939 82 972 -22 q 919 127 933 100 q 882 193 906 154 q 828 276 856 238 q 774 344 801 314 q 732 388 753 368 q 689 426 711 408 q 626 306 658 363 q 557 201 593 250 q 721 71 629 121 q 724 61 728 68 q 713 58 719 57 q 538 178 618 100 q 415 47 483 110 q 274 -48 347 -15 q 119 -81 200 -81 m 488 297 q 537 385 511 338 q 590 485 563 432 q 525 499 557 499 q 447 419 447 499 q 488 297 447 369 z "},"Ĥ":{"ha":1186,"x_min":1,"x_max":1454,"o":"m 119 -81 q 1 11 4 -81 q 26 81 1 50 q 88 113 51 113 q 132 90 114 113 q 147 49 147 74 q 83 -19 147 -19 q 36 7 50 -19 q 117 -43 43 -43 q 147 -39 133 -43 q 440 217 310 3 l 468 263 q 392 456 392 372 q 424 539 392 510 q 508 569 454 569 q 619 542 557 569 l 690 679 q 800 853 747 792 q 946 958 864 929 q 873 966 911 964 q 792 968 835 968 q 431 906 538 968 q 368 862 396 885 q 321 815 340 839 q 282 725 282 767 q 339 665 282 676 q 378 661 358 661 q 628 772 513 661 q 640 775 633 778 q 646 767 646 774 q 644 761 646 763 q 590 710 622 733 q 517 667 558 686 q 356 628 433 628 q 250 656 294 628 q 197 744 197 688 q 240 844 197 796 q 747 992 367 992 q 866 988 808 992 q 979 974 924 983 q 1064 986 1028 986 q 1135 951 1135 986 q 1115 924 1135 935 q 1069 913 1096 913 q 1033 921 1054 913 q 982 947 1011 929 q 872 861 915 922 q 839 799 857 839 q 800 701 821 758 q 752 574 774 631 q 713 478 731 518 q 808 374 765 435 q 872 278 843 326 q 928 178 901 229 q 1008 508 931 318 q 1084 667 1043 592 q 1172 808 1125 742 q 1438 1017 1308 1000 l 1444 1017 q 1454 1010 1454 1017 q 1446 1000 1454 1000 q 1249 822 1351 989 q 1163 658 1203 749 q 1089 463 1122 568 q 1022 126 1022 257 q 1079 8 1022 8 q 1171 78 1117 8 q 1296 294 1224 144 q 1310 311 1301 308 l 1311 311 q 1317 301 1317 311 q 1310 279 1317 293 q 1217 97 1233 124 q 1079 -21 1149 -12 q 1069 -22 1074 -22 q 1060 -22 1065 -22 q 939 82 972 -22 q 919 127 933 100 q 882 193 906 154 q 828 276 856 238 q 774 344 801 314 q 732 388 753 368 q 689 426 711 408 q 626 306 658 363 q 557 201 593 250 q 721 71 629 121 q 724 61 728 68 q 713 58 719 57 q 538 178 618 100 q 415 47 483 110 q 274 -48 347 -15 q 119 -81 200 -81 m 488 297 q 537 385 511 338 q 590 485 563 432 q 525 499 557 499 q 447 419 447 499 q 488 297 447 369 m 1078 1049 q 1071 1058 1071 1049 q 1094 1078 1071 1060 q 1149 1122 1118 1097 q 1207 1164 1181 1146 q 1239 1182 1233 1182 l 1242 1182 q 1263 1164 1247 1182 q 1295 1122 1278 1146 q 1325 1080 1313 1099 q 1338 1058 1338 1061 q 1326 1049 1338 1049 q 1308 1059 1324 1049 q 1273 1083 1292 1069 q 1240 1107 1254 1097 q 1221 1117 1229 1117 q 1214 1115 1218 1117 q 1204 1111 1210 1114 q 1156 1086 1185 1101 q 1105 1060 1128 1071 q 1078 1049 1082 1049 z "},"I":{"ha":688,"x_min":-25,"x_max":1086,"o":"m 93 -132 q -25 -40 -22 -132 q 0 29 -25 -1 q 61 60 25 60 q 106 39 89 60 q 121 -3 121 22 q 57 -72 121 -72 q 10 -44 24 -72 q 92 -94 17 -94 q 121 -90 107 -94 q 414 165 283 -49 q 675 656 543 376 q 854 940 775 867 q 698 892 768 917 q 575 842 628 867 q 331 674 432 775 q 267 585 296 639 q 241 526 250 554 q 232 475 232 499 q 321 390 232 400 q 329 390 325 390 q 338 389 333 389 q 389 397 363 389 q 444 419 415 406 q 456 413 454 424 l 456 410 q 446 396 456 401 q 385 376 417 383 q 322 364 354 368 q 304 362 313 363 q 286 361 296 361 q 182 393 218 361 q 146 481 146 426 q 225 656 146 564 q 328 749 269 707 q 463 826 386 792 q 667 907 557 869 q 904 979 778 944 q 953 1003 929 994 q 999 1018 976 1013 q 1038 1022 1019 1022 q 1086 993 1086 1022 q 1060 954 1086 972 q 990 936 1033 936 q 914 951 956 936 l 899 951 q 753 664 822 896 q 543 163 654 338 q 118 -131 367 -111 q 106 -131 113 -131 q 93 -132 100 -132 z "},"Í":{"ha":688,"x_min":-25,"x_max":1115,"o":"m 93 -132 q -25 -40 -22 -132 q 0 29 -25 -1 q 61 60 25 60 q 106 39 89 60 q 121 -3 121 22 q 57 -72 121 -72 q 10 -44 24 -72 q 92 -94 17 -94 q 121 -90 107 -94 q 414 165 283 -49 q 675 656 543 376 q 854 940 775 867 q 698 892 768 917 q 575 842 628 867 q 331 674 432 775 q 267 585 296 639 q 241 526 250 554 q 232 475 232 499 q 321 390 232 400 q 329 390 325 390 q 338 389 333 389 q 389 397 363 389 q 444 419 415 406 q 456 413 454 424 l 456 410 q 446 396 456 401 q 385 376 417 383 q 322 364 354 368 q 304 362 313 363 q 286 361 296 361 q 182 393 218 361 q 146 481 146 426 q 225 656 146 564 q 328 749 269 707 q 463 826 386 792 q 667 907 557 869 q 904 979 778 944 q 953 1003 929 994 q 999 1018 976 1013 q 1038 1022 1019 1022 q 1086 993 1086 1022 q 1060 954 1086 972 q 990 936 1033 936 q 914 951 956 936 l 899 951 q 753 664 822 896 q 543 163 654 338 q 118 -131 367 -111 q 106 -131 113 -131 q 93 -132 100 -132 m 919 1086 q 908 1096 908 1088 q 925 1112 908 1097 q 967 1147 942 1126 q 1019 1186 992 1167 q 1067 1219 1046 1206 q 1093 1233 1088 1233 q 1115 1207 1115 1233 q 1069 1150 1115 1174 q 1012 1124 1046 1139 q 951 1097 978 1108 q 919 1086 924 1086 z "},"Ĭ":{"ha":688,"x_min":-25,"x_max":1172,"o":"m 93 -132 q -25 -40 -22 -132 q 0 29 -25 -1 q 61 60 25 60 q 106 39 89 60 q 121 -3 121 22 q 57 -72 121 -72 q 10 -44 24 -72 q 92 -94 17 -94 q 121 -90 107 -94 q 414 165 283 -49 q 675 656 543 376 q 854 940 775 867 q 698 892 768 917 q 575 842 628 867 q 331 674 432 775 q 267 585 296 639 q 241 526 250 554 q 232 475 232 499 q 321 390 232 400 q 329 390 325 390 q 338 389 333 389 q 389 397 363 389 q 444 419 415 406 q 456 413 454 424 l 456 410 q 446 396 456 401 q 385 376 417 383 q 322 364 354 368 q 304 362 313 363 q 286 361 296 361 q 182 393 218 361 q 146 481 146 426 q 225 656 146 564 q 328 749 269 707 q 463 826 386 792 q 667 907 557 869 q 904 979 778 944 q 953 1003 929 994 q 999 1018 976 1013 q 1038 1022 1019 1022 q 1086 993 1086 1022 q 1060 954 1086 972 q 990 936 1033 936 q 914 951 956 936 l 899 951 q 753 664 822 896 q 543 163 654 338 q 118 -131 367 -111 q 106 -131 113 -131 q 93 -132 100 -132 m 983 1082 q 875 1172 875 1082 q 881 1203 875 1189 q 897 1218 888 1217 l 899 1218 q 919 1206 914 1218 q 935 1153 915 1163 q 1000 1143 956 1143 q 1083 1153 1043 1143 q 1150 1211 1124 1164 q 1161 1218 1154 1218 q 1168 1206 1172 1218 q 1142 1156 1164 1185 q 1082 1104 1121 1126 q 983 1082 1043 1082 z "},"Ǐ":{"ha":688,"x_min":-25,"x_max":1200,"o":"m 93 -132 q -25 -40 -22 -132 q 0 29 -25 -1 q 61 60 25 60 q 106 39 89 60 q 121 -3 121 22 q 57 -72 121 -72 q 10 -44 24 -72 q 92 -94 17 -94 q 121 -90 107 -94 q 414 165 283 -49 q 675 656 543 376 q 854 940 775 867 q 698 892 768 917 q 575 842 628 867 q 331 674 432 775 q 267 585 296 639 q 241 526 250 554 q 232 475 232 499 q 321 390 232 400 q 329 390 325 390 q 338 389 333 389 q 389 397 363 389 q 444 419 415 406 q 456 413 454 424 l 456 410 q 446 396 456 401 q 385 376 417 383 q 322 364 354 368 q 304 362 313 363 q 286 361 296 361 q 182 393 218 361 q 146 481 146 426 q 225 656 146 564 q 328 749 269 707 q 463 826 386 792 q 667 907 557 869 q 904 979 778 944 q 953 1003 929 994 q 999 1018 976 1013 q 1038 1022 1019 1022 q 1086 993 1086 1022 q 1060 954 1086 972 q 990 936 1033 936 q 914 951 956 936 l 899 951 q 753 664 822 896 q 543 163 654 338 q 118 -131 367 -111 q 106 -131 113 -131 q 93 -132 100 -132 m 997 1088 q 973 1105 992 1088 q 932 1145 954 1122 q 894 1186 910 1168 q 878 1207 878 1204 q 894 1218 878 1218 q 935 1202 901 1218 q 999 1171 968 1186 q 1024 1165 1010 1165 q 1040 1167 1032 1165 q 1057 1172 1047 1169 q 1110 1192 1081 1181 q 1163 1210 1139 1203 q 1189 1218 1186 1218 q 1200 1207 1200 1218 q 1181 1193 1200 1206 q 1135 1163 1163 1181 q 1078 1128 1107 1146 q 1028 1099 1050 1111 q 1001 1088 1007 1088 l 997 1088 z "},"Î":{"ha":688,"x_min":-25,"x_max":1160,"o":"m 93 -132 q -25 -40 -22 -132 q 0 29 -25 -1 q 61 60 25 60 q 106 39 89 60 q 121 -3 121 22 q 57 -72 121 -72 q 10 -44 24 -72 q 92 -94 17 -94 q 121 -90 107 -94 q 414 165 283 -49 q 675 656 543 376 q 854 940 775 867 q 698 892 768 917 q 575 842 628 867 q 331 674 432 775 q 267 585 296 639 q 241 526 250 554 q 232 475 232 499 q 321 390 232 400 q 329 390 325 390 q 338 389 333 389 q 389 397 363 389 q 444 419 415 406 q 456 413 454 424 l 456 410 q 446 396 456 401 q 385 376 417 383 q 322 364 354 368 q 304 362 313 363 q 286 361 296 361 q 182 393 218 361 q 146 481 146 426 q 225 656 146 564 q 328 749 269 707 q 463 826 386 792 q 667 907 557 869 q 904 979 778 944 q 953 1003 929 994 q 999 1018 976 1013 q 1038 1022 1019 1022 q 1086 993 1086 1022 q 1060 954 1086 972 q 990 936 1033 936 q 914 951 956 936 l 899 951 q 753 664 822 896 q 543 163 654 338 q 118 -131 367 -111 q 106 -131 113 -131 q 93 -132 100 -132 m 849 1088 q 838 1099 838 1088 q 856 1113 838 1100 q 903 1142 875 1125 q 959 1177 931 1160 q 1009 1206 988 1194 q 1036 1218 1031 1218 l 1040 1218 q 1065 1201 1046 1218 q 1106 1160 1083 1183 q 1144 1119 1128 1138 q 1160 1099 1160 1101 q 1143 1088 1160 1088 q 1104 1104 1138 1088 q 1039 1135 1071 1121 q 1014 1140 1028 1140 q 998 1138 1006 1140 q 981 1133 990 1136 q 928 1114 958 1125 q 876 1095 899 1103 q 849 1088 853 1088 z "},"Ȉ":{"ha":688,"x_min":-25,"x_max":1086,"o":"m 93 -132 q -25 -40 -22 -132 q 0 29 -25 -1 q 61 60 25 60 q 106 39 89 60 q 121 -3 121 22 q 57 -72 121 -72 q 10 -44 24 -72 q 92 -94 17 -94 q 121 -90 107 -94 q 414 165 283 -49 q 675 656 543 376 q 854 940 775 867 q 698 892 768 917 q 575 842 628 867 q 331 674 432 775 q 267 585 296 639 q 241 526 250 554 q 232 475 232 499 q 321 390 232 400 q 329 390 325 390 q 338 389 333 389 q 389 397 363 389 q 444 419 415 406 q 456 413 454 424 l 456 410 q 446 396 456 401 q 385 376 417 383 q 322 364 354 368 q 304 362 313 363 q 286 361 296 361 q 182 393 218 361 q 146 481 146 426 q 225 656 146 564 q 328 749 269 707 q 463 826 386 792 q 667 907 557 869 q 904 979 778 944 q 953 1003 929 994 q 999 1018 976 1013 q 1038 1022 1019 1022 q 1086 993 1086 1022 q 1060 954 1086 972 q 990 936 1033 936 q 914 951 956 936 l 899 951 q 753 664 822 896 q 543 163 654 338 q 118 -131 367 -111 q 106 -131 113 -131 q 93 -132 100 -132 m 1056 1082 q 1024 1095 1051 1082 q 965 1125 997 1108 q 911 1154 933 1142 q 869 1214 869 1182 q 876 1235 869 1229 q 894 1240 882 1240 q 921 1224 901 1239 q 965 1188 940 1210 q 1014 1144 990 1165 q 1053 1107 1038 1122 q 1069 1090 1069 1092 q 1056 1082 1068 1082 m 914 1082 q 882 1094 910 1082 q 822 1123 854 1107 q 767 1150 789 1139 q 722 1210 722 1176 q 747 1235 724 1235 q 773 1220 753 1235 q 819 1185 793 1206 q 869 1143 844 1164 q 910 1108 894 1122 q 926 1092 926 1093 q 914 1082 926 1081 z "},"Ï":{"ha":688,"x_min":-25,"x_max":1124,"o":"m 93 -132 q -25 -40 -22 -132 q 0 29 -25 -1 q 61 60 25 60 q 106 39 89 60 q 121 -3 121 22 q 57 -72 121 -72 q 10 -44 24 -72 q 92 -94 17 -94 q 121 -90 107 -94 q 414 165 283 -49 q 675 656 543 376 q 854 940 775 867 q 698 892 768 917 q 575 842 628 867 q 331 674 432 775 q 267 585 296 639 q 241 526 250 554 q 232 475 232 499 q 321 390 232 400 q 329 390 325 390 q 338 389 333 389 q 389 397 363 389 q 444 419 415 406 q 456 413 454 424 l 456 410 q 446 396 456 401 q 385 376 417 383 q 322 364 354 368 q 304 362 313 363 q 286 361 296 361 q 182 393 218 361 q 146 481 146 426 q 225 656 146 564 q 328 749 269 707 q 463 826 386 792 q 667 907 557 869 q 904 979 778 944 q 953 1003 929 994 q 999 1018 976 1013 q 1038 1022 1019 1022 q 1086 993 1086 1022 q 1060 954 1086 972 q 990 936 1033 936 q 914 951 956 936 l 899 951 q 753 664 822 896 q 543 163 654 338 q 118 -131 367 -111 q 106 -131 113 -131 q 93 -132 100 -132 m 1079 1088 q 1032 1133 1032 1088 q 1076 1179 1032 1179 q 1124 1133 1124 1179 q 1079 1088 1124 1088 m 900 1088 q 853 1133 853 1088 q 897 1179 853 1179 q 944 1133 944 1179 q 900 1088 944 1088 z "},"İ":{"ha":688,"x_min":-25,"x_max":1086,"o":"m 93 -132 q -25 -40 -22 -132 q 0 29 -25 -1 q 61 60 25 60 q 106 39 89 60 q 121 -3 121 22 q 57 -72 121 -72 q 10 -44 24 -72 q 92 -94 17 -94 q 121 -90 107 -94 q 414 165 283 -49 q 675 656 543 376 q 854 940 775 867 q 698 892 768 917 q 575 842 628 867 q 331 674 432 775 q 267 585 296 639 q 241 526 250 554 q 232 475 232 499 q 321 390 232 400 q 329 390 325 390 q 338 389 333 389 q 389 397 363 389 q 444 419 415 406 q 456 413 454 424 l 456 410 q 446 396 456 401 q 385 376 417 383 q 322 364 354 368 q 304 362 313 363 q 286 361 296 361 q 182 393 218 361 q 146 481 146 426 q 225 656 146 564 q 328 749 269 707 q 463 826 386 792 q 667 907 557 869 q 904 979 778 944 q 953 1003 929 994 q 999 1018 976 1013 q 1038 1022 1019 1022 q 1086 993 1086 1022 q 1060 954 1086 972 q 990 936 1033 936 q 914 951 956 936 l 899 951 q 753 664 822 896 q 543 163 654 338 q 118 -131 367 -111 q 106 -131 113 -131 q 93 -132 100 -132 m 990 1088 q 943 1133 943 1088 q 988 1179 943 1179 q 1035 1133 1035 1179 q 990 1088 1035 1088 z "},"Ị":{"ha":688,"x_min":-25,"x_max":1086,"o":"m 93 -132 q -25 -40 -22 -132 q 0 29 -25 -1 q 61 60 25 60 q 106 39 89 60 q 121 -3 121 22 q 57 -72 121 -72 q 10 -44 24 -72 q 92 -94 17 -94 q 121 -90 107 -94 q 414 165 283 -49 q 675 656 543 376 q 854 940 775 867 q 698 892 768 917 q 575 842 628 867 q 331 674 432 775 q 267 585 296 639 q 241 526 250 554 q 232 475 232 499 q 321 390 232 400 q 329 390 325 390 q 338 389 333 389 q 389 397 363 389 q 444 419 415 406 q 456 413 454 424 l 456 410 q 446 396 456 401 q 385 376 417 383 q 322 364 354 368 q 304 362 313 363 q 286 361 296 361 q 182 393 218 361 q 146 481 146 426 q 225 656 146 564 q 328 749 269 707 q 463 826 386 792 q 667 907 557 869 q 904 979 778 944 q 953 1003 929 994 q 999 1018 976 1013 q 1038 1022 1019 1022 q 1086 993 1086 1022 q 1060 954 1086 972 q 990 936 1033 936 q 914 951 956 936 l 899 951 q 753 664 822 896 q 543 163 654 338 q 118 -131 367 -111 q 106 -131 113 -131 q 93 -132 100 -132 m 119 -301 q 72 -256 72 -301 q 117 -210 72 -210 q 164 -256 164 -210 q 119 -301 164 -301 z "},"Ì":{"ha":688,"x_min":-25,"x_max":1086,"o":"m 93 -132 q -25 -40 -22 -132 q 0 29 -25 -1 q 61 60 25 60 q 106 39 89 60 q 121 -3 121 22 q 57 -72 121 -72 q 10 -44 24 -72 q 92 -94 17 -94 q 121 -90 107 -94 q 414 165 283 -49 q 675 656 543 376 q 854 940 775 867 q 698 892 768 917 q 575 842 628 867 q 331 674 432 775 q 267 585 296 639 q 241 526 250 554 q 232 475 232 499 q 321 390 232 400 q 329 390 325 390 q 338 389 333 389 q 389 397 363 389 q 444 419 415 406 q 456 413 454 424 l 456 410 q 446 396 456 401 q 385 376 417 383 q 322 364 354 368 q 304 362 313 363 q 286 361 296 361 q 182 393 218 361 q 146 481 146 426 q 225 656 146 564 q 328 749 269 707 q 463 826 386 792 q 667 907 557 869 q 904 979 778 944 q 953 1003 929 994 q 999 1018 976 1013 q 1038 1022 1019 1022 q 1086 993 1086 1022 q 1060 954 1086 972 q 990 936 1033 936 q 914 951 956 936 l 899 951 q 753 664 822 896 q 543 163 654 338 q 118 -131 367 -111 q 106 -131 113 -131 q 93 -132 100 -132 m 1036 1085 q 1004 1096 1032 1085 q 943 1122 976 1107 q 886 1149 910 1138 q 840 1206 840 1175 q 864 1232 840 1232 q 891 1219 871 1232 q 938 1185 911 1206 q 990 1145 964 1165 q 1032 1111 1015 1125 q 1049 1096 1049 1097 q 1036 1085 1049 1085 z "},"Ỉ":{"ha":688,"x_min":-25,"x_max":1111,"o":"m 93 -132 q -25 -40 -22 -132 q 0 29 -25 -1 q 61 60 25 60 q 106 39 89 60 q 121 -3 121 22 q 57 -72 121 -72 q 10 -44 24 -72 q 92 -94 17 -94 q 121 -90 107 -94 q 414 165 283 -49 q 675 656 543 376 q 854 940 775 867 q 698 892 768 917 q 575 842 628 867 q 331 674 432 775 q 267 585 296 639 q 241 526 250 554 q 232 475 232 499 q 321 390 232 400 q 329 390 325 390 q 338 389 333 389 q 389 397 363 389 q 444 419 415 406 q 456 413 454 424 l 456 410 q 446 396 456 401 q 385 376 417 383 q 322 364 354 368 q 304 362 313 363 q 286 361 296 361 q 182 393 218 361 q 146 481 146 426 q 225 656 146 564 q 328 749 269 707 q 463 826 386 792 q 667 907 557 869 q 904 979 778 944 q 953 1003 929 994 q 999 1018 976 1013 q 1038 1022 1019 1022 q 1086 993 1086 1022 q 1060 954 1086 972 q 990 936 1033 936 q 914 951 956 936 l 899 951 q 753 664 822 896 q 543 163 654 338 q 118 -131 367 -111 q 106 -131 113 -131 q 93 -132 100 -132 m 994 1092 q 988 1097 988 1092 q 993 1108 988 1103 q 1033 1142 1015 1126 q 1050 1189 1050 1158 q 1019 1208 1050 1208 q 981 1203 1000 1208 q 956 1199 961 1199 q 946 1206 946 1199 q 963 1228 946 1217 q 1006 1247 981 1239 q 1054 1254 1032 1254 q 1099 1239 1086 1254 q 1111 1204 1111 1224 q 1084 1136 1111 1156 q 1018 1097 1057 1117 q 994 1092 1007 1092 z "},"Ȋ":{"ha":688,"x_min":-25,"x_max":1146,"o":"m 1049 1218 q 1122 1194 1097 1218 q 1146 1135 1146 1171 q 1142 1101 1146 1117 q 1126 1082 1138 1085 l 1124 1082 q 1106 1093 1111 1082 q 1107 1103 1107 1099 q 1107 1114 1107 1108 q 1089 1152 1107 1142 q 1036 1163 1071 1163 q 960 1147 997 1163 q 899 1088 924 1132 q 889 1082 894 1082 q 882 1093 878 1082 q 906 1142 888 1113 q 960 1195 925 1172 q 1049 1218 996 1218 m 93 -132 q -25 -40 -22 -132 q 0 29 -25 -1 q 61 60 25 60 q 106 39 89 60 q 121 -3 121 22 q 57 -72 121 -72 q 10 -44 24 -72 q 92 -94 17 -94 q 121 -90 107 -94 q 414 165 283 -49 q 675 656 543 376 q 854 940 775 867 q 698 892 768 917 q 575 842 628 867 q 331 674 432 775 q 267 585 296 639 q 241 526 250 554 q 232 475 232 499 q 321 390 232 400 q 329 390 325 390 q 338 389 333 389 q 389 397 363 389 q 444 419 415 406 q 456 413 454 424 l 456 410 q 446 396 456 401 q 385 376 417 383 q 322 364 354 368 q 304 362 313 363 q 286 361 296 361 q 182 393 218 361 q 146 481 146 426 q 225 656 146 564 q 328 749 269 707 q 463 826 386 792 q 667 907 557 869 q 904 979 778 944 q 953 1003 929 994 q 999 1018 976 1013 q 1038 1022 1019 1022 q 1086 993 1086 1022 q 1060 954 1086 972 q 990 936 1033 936 q 914 951 956 936 l 899 951 q 753 664 822 896 q 543 163 654 338 q 118 -131 367 -111 q 106 -131 113 -131 q 93 -132 100 -132 z "},"Ī":{"ha":688,"x_min":-25,"x_max":1146,"o":"m 93 -132 q -25 -40 -22 -132 q 0 29 -25 -1 q 61 60 25 60 q 106 39 89 60 q 121 -3 121 22 q 57 -72 121 -72 q 10 -44 24 -72 q 92 -94 17 -94 q 121 -90 107 -94 q 414 165 283 -49 q 675 656 543 376 q 854 940 775 867 q 698 892 768 917 q 575 842 628 867 q 331 674 432 775 q 267 585 296 639 q 241 526 250 554 q 232 475 232 499 q 321 390 232 400 q 329 390 325 390 q 338 389 333 389 q 389 397 363 389 q 444 419 415 406 q 456 413 454 424 l 456 410 q 446 396 456 401 q 385 376 417 383 q 322 364 354 368 q 304 362 313 363 q 286 361 296 361 q 182 393 218 361 q 146 481 146 426 q 225 656 146 564 q 328 749 269 707 q 463 826 386 792 q 667 907 557 869 q 904 979 778 944 q 953 1003 929 994 q 999 1018 976 1013 q 1038 1022 1019 1022 q 1086 993 1086 1022 q 1060 954 1086 972 q 990 936 1033 936 q 914 951 956 936 l 899 951 q 753 664 822 896 q 543 163 654 338 q 118 -131 367 -111 q 106 -131 113 -131 q 93 -132 100 -132 m 833 1104 q 826 1117 826 1107 q 835 1140 826 1128 q 853 1151 843 1151 l 1140 1151 q 1146 1140 1146 1151 q 1140 1117 1146 1131 q 1122 1104 1133 1104 l 833 1104 z "},"Į":{"ha":688,"x_min":-25,"x_max":1086,"o":"m 93 -132 q -25 -40 -22 -132 q 0 29 -25 -1 q 61 60 25 60 q 106 39 89 60 q 121 -3 121 22 q 57 -72 121 -72 q 10 -44 24 -72 q 92 -94 17 -94 q 121 -90 107 -94 q 414 165 283 -49 q 675 656 543 376 q 854 940 775 867 q 698 892 768 917 q 575 842 628 867 q 331 674 432 775 q 267 585 296 639 q 241 526 250 554 q 232 475 232 499 q 321 390 232 400 q 329 390 325 390 q 338 389 333 389 q 389 397 363 389 q 444 419 415 406 q 456 413 454 424 l 456 410 q 446 396 456 401 q 385 376 417 383 q 322 364 354 368 q 304 362 313 363 q 286 361 296 361 q 182 393 218 361 q 146 481 146 426 q 225 656 146 564 q 328 749 269 707 q 463 826 386 792 q 667 907 557 869 q 904 979 778 944 q 953 1003 929 994 q 999 1018 976 1013 q 1038 1022 1019 1022 q 1086 993 1086 1022 q 1060 954 1086 972 q 990 936 1033 936 q 914 951 956 936 l 899 951 q 753 664 822 896 q 543 163 654 338 q 118 -131 367 -111 q 106 -131 113 -131 q 93 -132 100 -132 m 104 -372 q 38 -353 60 -372 q 17 -304 17 -335 q 42 -222 17 -269 q 115 -121 67 -175 q 138 -108 128 -108 q 149 -113 144 -108 q 147 -124 153 -118 q 97 -201 121 -157 q 72 -282 72 -249 q 119 -326 72 -325 q 172 -320 142 -326 q 224 -304 203 -314 q 226 -303 225 -304 q 228 -303 226 -303 q 236 -312 236 -303 q 231 -325 235 -318 q 219 -336 226 -332 q 160 -362 197 -351 q 104 -372 124 -372 z "},"Ĩ":{"ha":688,"x_min":-25,"x_max":1186,"o":"m 93 -132 q -25 -40 -22 -132 q 0 29 -25 -1 q 61 60 25 60 q 106 39 89 60 q 121 -3 121 22 q 57 -72 121 -72 q 10 -44 24 -72 q 92 -94 17 -94 q 121 -90 107 -94 q 414 165 283 -49 q 675 656 543 376 q 854 940 775 867 q 698 892 768 917 q 575 842 628 867 q 331 674 432 775 q 267 585 296 639 q 241 526 250 554 q 232 475 232 499 q 321 390 232 400 q 329 390 325 390 q 338 389 333 389 q 389 397 363 389 q 444 419 415 406 q 456 413 454 424 l 456 410 q 446 396 456 401 q 385 376 417 383 q 322 364 354 368 q 304 362 313 363 q 286 361 296 361 q 182 393 218 361 q 146 481 146 426 q 225 656 146 564 q 328 749 269 707 q 463 826 386 792 q 667 907 557 869 q 904 979 778 944 q 953 1003 929 994 q 999 1018 976 1013 q 1038 1022 1019 1022 q 1086 993 1086 1022 q 1060 954 1086 972 q 990 936 1033 936 q 914 951 956 936 l 899 951 q 753 664 822 896 q 543 163 654 338 q 118 -131 367 -111 q 106 -131 113 -131 q 93 -132 100 -132 m 1082 1088 q 1000 1110 1047 1088 q 938 1129 958 1129 q 906 1120 919 1129 q 878 1093 893 1111 q 865 1090 878 1090 q 853 1092 860 1090 q 849 1096 847 1093 q 897 1160 871 1140 q 954 1181 922 1181 q 1026 1163 983 1181 q 1097 1143 1065 1143 q 1157 1181 1139 1143 q 1171 1185 1160 1185 q 1181 1183 1175 1185 q 1185 1179 1186 1182 q 1143 1110 1169 1132 q 1082 1088 1117 1088 z "},"J":{"ha":763,"x_min":-169,"x_max":1132,"o":"m -33 -283 q -169 -189 -169 -283 q -165 -156 -169 -174 q 89 64 -139 -24 q 247 113 161 92 q 435 150 333 135 q 497 267 463 199 q 569 424 531 336 q 645 586 614 522 q 690 679 676 650 q 747 779 719 736 q 800 853 774 822 q 946 958 864 929 q 873 966 911 964 q 792 968 835 968 q 431 906 538 968 q 321 815 358 863 q 281 725 281 764 q 339 665 281 676 q 376 661 358 661 q 517 696 446 661 q 635 775 588 728 q 640 778 638 778 q 647 772 646 778 q 644 761 649 768 q 590 710 622 733 q 517 667 558 686 q 356 628 433 628 q 250 656 294 628 q 197 744 197 688 q 240 844 197 796 q 749 993 369 993 q 867 989 810 993 q 978 975 924 985 q 1064 990 1031 990 q 1132 954 1132 990 q 1113 925 1132 938 q 1068 914 1094 914 q 1031 922 1053 914 q 981 949 1010 931 q 872 863 913 924 q 800 701 843 819 q 735 522 758 586 q 707 446 713 458 q 643 295 675 365 q 579 167 611 225 q 679 171 636 171 q 713 170 697 171 q 742 168 728 169 q 758 160 758 167 q 738 149 758 149 q 564 140 657 150 q 124 -258 379 -183 q -33 -283 40 -283 m -35 -250 q 104 -211 28 -250 q 417 119 272 -125 q 8 -14 157 72 q -129 -179 -129 -94 q -35 -250 -129 -250 z "},"Ĵ":{"ha":763,"x_min":-169,"x_max":1132,"o":"m -33 -283 q -169 -189 -169 -283 q -165 -156 -169 -174 q 89 64 -139 -24 q 247 113 161 92 q 435 150 333 135 q 497 267 463 199 q 569 424 531 336 q 645 586 614 522 q 690 679 676 650 q 747 779 719 736 q 800 853 774 822 q 946 958 864 929 q 873 966 911 964 q 792 968 835 968 q 431 906 538 968 q 321 815 358 863 q 281 725 281 764 q 339 665 281 676 q 376 661 358 661 q 517 696 446 661 q 635 775 588 728 q 640 778 638 778 q 647 772 646 778 q 644 761 649 768 q 590 710 622 733 q 517 667 558 686 q 356 628 433 628 q 250 656 294 628 q 197 744 197 688 q 240 844 197 796 q 749 993 369 993 q 867 989 810 993 q 978 975 924 985 q 1064 990 1031 990 q 1132 954 1132 990 q 1113 925 1132 938 q 1068 914 1094 914 q 1031 922 1053 914 q 981 949 1010 931 q 872 863 913 924 q 800 701 843 819 q 735 522 758 586 q 707 446 713 458 q 643 295 675 365 q 579 167 611 225 q 679 171 636 171 q 713 170 697 171 q 742 168 728 169 q 758 160 758 167 q 738 149 758 149 q 564 140 657 150 q 124 -258 379 -183 q -33 -283 40 -283 m -35 -250 q 104 -211 28 -250 q 417 119 272 -125 q 8 -14 157 72 q -129 -179 -129 -94 q -35 -250 -129 -250 m 836 1044 q 829 1054 829 1044 q 853 1074 829 1056 q 908 1117 876 1093 q 965 1160 939 1142 q 997 1178 992 1178 l 1000 1178 q 1021 1160 1006 1178 q 1053 1118 1036 1142 q 1083 1076 1071 1094 q 1096 1054 1096 1057 q 1085 1044 1096 1044 q 1066 1055 1082 1044 q 1031 1079 1050 1065 q 999 1103 1013 1093 q 979 1113 988 1113 q 972 1111 976 1113 q 963 1107 968 1110 q 915 1082 943 1097 q 863 1056 886 1067 q 836 1044 840 1044 z "},"K":{"ha":1276,"x_min":1,"x_max":1597,"o":"m 1088 -197 q 739 240 904 -197 q 678 222 708 228 q 615 217 647 217 q 571 221 592 217 q 499 131 538 175 q 415 47 460 88 q 274 -48 347 -15 q 119 -81 200 -81 q 1 11 4 -81 q 26 81 1 50 q 88 113 51 113 q 132 90 114 113 q 147 49 147 74 q 83 -19 147 -19 q 36 7 50 -19 q 117 -43 43 -43 q 147 -39 133 -43 q 440 217 310 3 l 469 267 q 393 439 393 331 q 432 558 393 507 q 539 610 471 610 q 633 569 593 610 l 690 679 q 800 853 747 792 q 946 958 864 929 q 874 966 911 964 q 793 968 836 968 q 431 906 538 968 q 321 815 358 863 q 281 725 281 764 q 339 665 281 676 q 378 661 358 661 q 628 772 513 661 q 640 775 633 778 q 646 767 646 774 q 644 761 646 763 q 590 710 622 733 q 517 667 558 686 q 356 628 433 628 q 250 656 294 628 q 197 744 197 688 q 240 844 197 796 q 472 958 306 921 q 616 982 540 974 q 776 990 692 990 q 881 987 833 990 q 968 976 929 983 q 969 976 967 976 q 979 974 972 975 q 1018 982 1000 979 q 1050 985 1036 985 q 1108 956 1108 985 q 1056 924 1108 924 q 1024 930 1043 924 q 982 951 1006 936 q 800 701 876 914 q 744 553 769 618 q 697 442 718 489 q 731 367 713 406 q 772 285 750 328 q 862 364 817 313 q 953 492 907 415 q 1032 626 993 558 q 1113 763 1071 694 q 1211 896 1161 840 q 1313 983 1261 951 q 1454 1022 1372 1022 q 1556 996 1517 1022 q 1597 918 1597 969 q 1579 858 1597 881 q 1536 836 1563 836 q 1488 885 1488 836 q 1536 936 1488 936 q 1579 906 1571 936 q 1554 953 1582 933 q 1523 969 1539 964 q 1492 974 1507 974 q 1246 821 1374 974 q 1192 749 1225 796 q 1113 632 1158 701 q 963 424 1019 493 q 873 328 917 368 q 785 263 829 288 q 872 119 829 183 q 958 4 915 54 q 1139 -118 1063 -118 q 1219 -68 1193 -118 q 1244 43 1244 -22 q 1224 164 1244 113 q 1225 185 1215 185 q 1236 172 1231 185 q 1276 15 1276 94 q 1224 -131 1276 -67 q 1088 -197 1169 -197 m 492 304 q 549 407 518 349 q 617 536 581 465 q 561 558 590 558 q 482 511 511 558 q 457 417 457 469 q 492 304 457 351 m 628 243 q 731 264 683 243 l 681 408 q 589 246 638 319 q 608 244 599 244 q 628 243 618 243 z "},"Ķ":{"ha":1276,"x_min":1,"x_max":1597,"o":"m 1088 -197 q 739 240 904 -197 q 678 222 708 228 q 615 217 647 217 q 571 221 592 217 q 499 131 538 175 q 415 47 460 88 q 274 -48 347 -15 q 119 -81 200 -81 q 1 11 4 -81 q 26 81 1 50 q 88 113 51 113 q 132 90 114 113 q 147 49 147 74 q 83 -19 147 -19 q 36 7 50 -19 q 117 -43 43 -43 q 147 -39 133 -43 q 440 217 310 3 l 469 267 q 393 439 393 331 q 432 558 393 507 q 539 610 471 610 q 633 569 593 610 l 690 679 q 800 853 747 792 q 946 958 864 929 q 874 966 911 964 q 793 968 836 968 q 431 906 538 968 q 321 815 358 863 q 281 725 281 764 q 339 665 281 676 q 378 661 358 661 q 628 772 513 661 q 640 775 633 778 q 646 767 646 774 q 644 761 646 763 q 590 710 622 733 q 517 667 558 686 q 356 628 433 628 q 250 656 294 628 q 197 744 197 688 q 240 844 197 796 q 472 958 306 921 q 616 982 540 974 q 776 990 692 990 q 881 987 833 990 q 968 976 929 983 q 969 976 967 976 q 979 974 972 975 q 1018 982 1000 979 q 1050 985 1036 985 q 1108 956 1108 985 q 1056 924 1108 924 q 1024 930 1043 924 q 982 951 1006 936 q 800 701 876 914 q 744 553 769 618 q 697 442 718 489 q 731 367 713 406 q 772 285 750 328 q 862 364 817 313 q 953 492 907 415 q 1032 626 993 558 q 1113 763 1071 694 q 1211 896 1161 840 q 1313 983 1261 951 q 1454 1022 1372 1022 q 1556 996 1517 1022 q 1597 918 1597 969 q 1579 858 1597 881 q 1536 836 1563 836 q 1488 885 1488 836 q 1536 936 1488 936 q 1579 906 1571 936 q 1554 953 1582 933 q 1523 969 1539 964 q 1492 974 1507 974 q 1246 821 1374 974 q 1192 749 1225 796 q 1113 632 1158 701 q 963 424 1019 493 q 873 328 917 368 q 785 263 829 288 q 872 119 829 183 q 958 4 915 54 q 1139 -118 1063 -118 q 1219 -68 1193 -118 q 1244 43 1244 -22 q 1224 164 1244 113 q 1225 185 1215 185 q 1236 172 1231 185 q 1276 15 1276 94 q 1224 -131 1276 -67 q 1088 -197 1169 -197 m 492 304 q 549 407 518 349 q 617 536 581 465 q 561 558 590 558 q 482 511 511 558 q 457 417 457 469 q 492 304 457 351 m 628 243 q 731 264 683 243 l 681 408 q 589 246 638 319 q 608 244 599 244 q 628 243 618 243 m 494 -472 q 488 -471 492 -472 q 485 -468 483 -469 q 490 -457 485 -465 q 538 -387 518 -421 q 563 -328 557 -354 q 533 -339 551 -339 q 506 -328 518 -339 q 493 -301 493 -318 q 510 -260 493 -276 q 550 -244 528 -244 q 588 -258 572 -244 q 604 -297 604 -272 q 574 -390 604 -342 q 507 -468 543 -439 q 494 -472 501 -472 z "},"L":{"ha":1058,"x_min":-10,"x_max":1100,"o":"m 776 -146 q 656 -128 721 -146 q 518 -76 592 -111 l 268 46 q 68 -65 168 -65 q 13 -46 36 -65 q -10 3 -10 -28 q 65 100 -10 65 q 151 117 101 117 q 253 100 203 117 l 257 99 q 274 131 265 114 q 290 167 282 149 q 363 347 328 257 q 436 526 399 438 q 538 715 481 633 q 661 857 596 797 q 814 949 721 910 q 988 988 908 988 q 1100 901 1100 988 q 1075 832 1100 864 q 1013 800 1047 800 q 967 819 986 800 q 953 867 949 839 q 1022 931 961 931 q 1067 904 1053 931 q 989 951 1063 951 q 954 947 971 951 q 654 688 792 901 q 554 519 619 635 q 392 226 489 404 q 299 83 346 143 q 415 35 357 60 q 533 -14 474 10 q 761 -68 671 -68 q 815 -63 789 -68 q 864 -50 840 -58 q 961 17 921 -29 q 1000 108 1000 61 q 906 211 1000 179 q 873 219 890 217 q 836 222 856 222 q 704 194 772 222 q 622 148 661 176 q 549 81 583 119 q 538 75 543 75 q 526 83 526 75 q 528 88 526 86 q 688 221 593 182 q 815 246 746 246 q 908 232 867 246 q 1040 68 1040 190 q 994 -56 1040 1 q 940 -105 971 -85 q 871 -135 910 -125 q 824 -143 847 -140 q 776 -146 800 -146 m 75 -37 q 232 61 158 -37 q 182 76 206 71 q 136 83 158 82 q 25 8 32 82 l 25 4 q 38 -24 25 -12 q 75 -37 51 -37 z "},"Ǉ":{"ha":1821,"x_min":-10,"x_max":2190,"o":"m 776 -146 q 656 -128 721 -146 q 518 -76 592 -111 l 268 46 q 68 -65 168 -65 q 13 -46 36 -65 q -10 3 -10 -28 q 65 100 -10 65 q 151 117 101 117 q 253 100 203 117 l 257 99 q 274 131 265 114 q 290 167 282 149 q 363 347 328 257 q 436 526 399 438 q 538 715 481 633 q 661 857 596 797 q 814 949 721 910 q 988 988 908 988 q 1100 901 1100 988 q 1075 832 1100 864 q 1013 800 1047 800 q 967 819 986 800 q 953 867 949 839 q 1022 931 961 931 q 1067 904 1053 931 q 989 951 1063 951 q 954 947 971 951 q 654 688 792 901 q 554 519 619 635 q 392 226 489 404 q 299 83 346 143 q 415 35 357 60 q 533 -14 474 10 q 761 -68 671 -68 q 815 -63 789 -68 q 864 -50 840 -58 q 961 17 921 -29 q 1000 108 1000 61 q 906 211 1000 179 q 873 219 890 217 q 836 222 856 222 q 704 194 772 222 q 622 148 661 176 q 549 81 583 119 q 538 75 543 75 q 526 83 526 75 q 528 88 526 86 q 688 221 593 182 q 815 246 746 246 q 908 232 867 246 q 1040 68 1040 190 q 994 -56 1040 1 q 940 -105 971 -85 q 871 -135 910 -125 q 824 -143 847 -140 q 776 -146 800 -146 m 75 -37 q 232 61 158 -37 q 182 76 206 71 q 136 83 158 82 q 25 8 32 82 l 25 4 q 38 -24 25 -12 q 75 -37 51 -37 m 1025 -283 q 889 -189 889 -283 q 893 -156 889 -174 q 1147 64 919 -24 q 1306 113 1219 92 q 1493 150 1392 135 q 1555 267 1521 199 q 1628 424 1589 336 q 1703 586 1672 522 q 1749 679 1735 650 q 1805 779 1778 736 q 1858 853 1832 822 q 2004 958 1922 929 q 1931 966 1969 964 q 1850 968 1893 968 q 1489 906 1596 968 q 1379 815 1417 863 q 1339 725 1339 764 q 1397 665 1339 676 q 1435 661 1417 661 q 1575 696 1504 661 q 1693 775 1646 728 q 1699 778 1696 778 q 1706 772 1704 778 q 1703 761 1707 768 q 1649 710 1681 733 q 1575 667 1617 686 q 1414 628 1492 628 q 1308 656 1353 628 q 1256 744 1256 688 q 1299 844 1256 796 q 1807 993 1428 993 q 1925 989 1868 993 q 2036 975 1982 985 q 2122 990 2089 990 q 2190 954 2190 990 q 2171 925 2190 938 q 2126 914 2153 914 q 2090 922 2111 914 q 2039 949 2068 931 q 1931 863 1971 924 q 1858 701 1901 819 q 1794 522 1817 586 q 1765 446 1771 458 q 1701 295 1733 365 q 1638 167 1669 225 q 1738 171 1694 171 q 1771 170 1756 171 q 1800 168 1786 169 q 1817 160 1817 167 q 1796 149 1817 149 q 1622 140 1715 150 q 1182 -258 1438 -183 q 1025 -283 1099 -283 m 1024 -250 q 1163 -211 1086 -250 q 1475 119 1331 -125 q 1067 -14 1215 72 q 929 -179 929 -94 q 1024 -250 929 -250 z "},"Ĺ":{"ha":1058,"x_min":-10,"x_max":1114,"o":"m 776 -146 q 656 -128 721 -146 q 518 -76 592 -111 l 268 46 q 68 -65 168 -65 q 13 -46 36 -65 q -10 3 -10 -28 q 65 100 -10 65 q 151 117 101 117 q 253 100 203 117 l 257 99 q 274 131 265 114 q 290 167 282 149 q 363 347 328 257 q 436 526 399 438 q 538 715 481 633 q 661 857 596 797 q 814 949 721 910 q 988 988 908 988 q 1100 901 1100 988 q 1075 832 1100 864 q 1013 800 1047 800 q 967 819 986 800 q 953 867 949 839 q 1022 931 961 931 q 1067 904 1053 931 q 989 951 1063 951 q 954 947 971 951 q 654 688 792 901 q 554 519 619 635 q 392 226 489 404 q 299 83 346 143 q 415 35 357 60 q 533 -14 474 10 q 761 -68 671 -68 q 815 -63 789 -68 q 864 -50 840 -58 q 961 17 921 -29 q 1000 108 1000 61 q 906 211 1000 179 q 873 219 890 217 q 836 222 856 222 q 704 194 772 222 q 622 148 661 176 q 549 81 583 119 q 538 75 543 75 q 526 83 526 75 q 528 88 526 86 q 688 221 593 182 q 815 246 746 246 q 908 232 867 246 q 1040 68 1040 190 q 994 -56 1040 1 q 940 -105 971 -85 q 871 -135 910 -125 q 824 -143 847 -140 q 776 -146 800 -146 m 75 -37 q 232 61 158 -37 q 182 76 206 71 q 136 83 158 82 q 25 8 32 82 l 25 4 q 38 -24 25 -12 q 75 -37 51 -37 m 918 1047 q 907 1057 907 1049 q 924 1073 907 1058 q 965 1108 940 1088 q 1017 1147 990 1128 q 1065 1181 1044 1167 q 1092 1194 1086 1194 q 1114 1168 1114 1194 q 1068 1111 1114 1135 q 1010 1085 1044 1100 q 949 1058 976 1069 q 918 1047 922 1047 z "},"Ľ":{"ha":1058,"x_min":-10,"x_max":1256,"o":"m 776 -146 q 656 -128 721 -146 q 518 -76 592 -111 l 268 46 q 68 -65 168 -65 q 13 -46 36 -65 q -10 3 -10 -28 q 65 100 -10 65 q 151 117 101 117 q 253 100 203 117 l 257 99 q 274 131 265 114 q 290 167 282 149 q 363 347 328 257 q 436 526 399 438 q 538 715 481 633 q 661 857 596 797 q 814 949 721 910 q 988 988 908 988 q 1100 901 1100 988 q 1075 832 1100 864 q 1013 800 1047 800 q 967 819 986 800 q 953 867 949 839 q 1022 931 961 931 q 1067 904 1053 931 q 989 951 1063 951 q 954 947 971 951 q 654 688 792 901 q 554 519 619 635 q 392 226 489 404 q 299 83 346 143 q 415 35 357 60 q 533 -14 474 10 q 761 -68 671 -68 q 815 -63 789 -68 q 864 -50 840 -58 q 961 17 921 -29 q 1000 108 1000 61 q 906 211 1000 179 q 873 219 890 217 q 836 222 856 222 q 704 194 772 222 q 622 148 661 176 q 549 81 583 119 q 538 75 543 75 q 526 83 526 75 q 528 88 526 86 q 688 221 593 182 q 815 246 746 246 q 908 232 867 246 q 1040 68 1040 190 q 994 -56 1040 1 q 940 -105 971 -85 q 871 -135 910 -125 q 824 -143 847 -140 q 776 -146 800 -146 m 75 -37 q 232 61 158 -37 q 182 76 206 71 q 136 83 158 82 q 25 8 32 82 l 25 4 q 38 -24 25 -12 q 75 -37 51 -37 m 1161 793 q 1154 796 1154 793 q 1156 800 1154 797 q 1158 804 1157 803 q 1189 854 1178 835 q 1201 896 1200 874 q 1183 919 1190 906 q 1175 949 1175 932 q 1186 979 1175 968 q 1224 990 1197 990 q 1249 982 1243 990 q 1256 958 1256 974 q 1256 949 1256 954 q 1254 936 1256 943 q 1224 857 1250 894 q 1174 796 1199 819 q 1161 793 1169 793 z "},"Ļ":{"ha":1058,"x_min":-10,"x_max":1100,"o":"m 776 -146 q 656 -128 721 -146 q 518 -76 592 -111 l 268 46 q 68 -65 168 -65 q 13 -46 36 -65 q -10 3 -10 -28 q 65 100 -10 65 q 151 117 101 117 q 253 100 203 117 l 257 99 q 274 131 265 114 q 290 167 282 149 q 363 347 328 257 q 436 526 399 438 q 538 715 481 633 q 661 857 596 797 q 814 949 721 910 q 988 988 908 988 q 1100 901 1100 988 q 1075 832 1100 864 q 1013 800 1047 800 q 967 819 986 800 q 953 867 949 839 q 1022 931 961 931 q 1067 904 1053 931 q 989 951 1063 951 q 954 947 971 951 q 654 688 792 901 q 554 519 619 635 q 392 226 489 404 q 299 83 346 143 q 415 35 357 60 q 533 -14 474 10 q 761 -68 671 -68 q 815 -63 789 -68 q 864 -50 840 -58 q 961 17 921 -29 q 1000 108 1000 61 q 906 211 1000 179 q 873 219 890 217 q 836 222 856 222 q 704 194 772 222 q 622 148 661 176 q 549 81 583 119 q 538 75 543 75 q 526 83 526 75 q 528 88 526 86 q 688 221 593 182 q 815 246 746 246 q 908 232 867 246 q 1040 68 1040 190 q 994 -56 1040 1 q 940 -105 971 -85 q 871 -135 910 -125 q 824 -143 847 -140 q 776 -146 800 -146 m 75 -37 q 232 61 158 -37 q 182 76 206 71 q 136 83 158 82 q 25 8 32 82 l 25 4 q 38 -24 25 -12 q 75 -37 51 -37 m 365 -500 q 358 -499 363 -500 q 356 -496 354 -497 q 361 -485 356 -493 q 408 -415 389 -449 q 433 -356 428 -382 q 404 -367 422 -367 q 376 -356 389 -367 q 364 -329 364 -346 q 381 -288 364 -304 q 421 -272 399 -272 q 459 -286 443 -272 q 475 -325 475 -300 q 444 -418 475 -369 q 378 -496 414 -467 q 365 -500 372 -500 z "},"Ŀ":{"ha":1058,"x_min":-10,"x_max":1100,"o":"m 776 -146 q 656 -128 721 -146 q 518 -76 592 -111 l 268 46 q 68 -65 168 -65 q 13 -46 36 -65 q -10 3 -10 -28 q 65 100 -10 65 q 151 117 101 117 q 253 100 203 117 l 257 99 q 274 131 265 114 q 290 167 282 149 q 363 347 328 257 q 436 526 399 438 q 538 715 481 633 q 661 857 596 797 q 814 949 721 910 q 988 988 908 988 q 1100 901 1100 988 q 1075 832 1100 864 q 1013 800 1047 800 q 967 819 986 800 q 953 867 949 839 q 1022 931 961 931 q 1067 904 1053 931 q 989 951 1063 951 q 954 947 971 951 q 654 688 792 901 q 554 519 619 635 q 392 226 489 404 q 299 83 346 143 q 415 35 357 60 q 533 -14 474 10 q 761 -68 671 -68 q 815 -63 789 -68 q 864 -50 840 -58 q 961 17 921 -29 q 1000 108 1000 61 q 906 211 1000 179 q 873 219 890 217 q 836 222 856 222 q 704 194 772 222 q 622 148 661 176 q 549 81 583 119 q 538 75 543 75 q 526 83 526 75 q 528 88 526 86 q 688 221 593 182 q 815 246 746 246 q 908 232 867 246 q 1040 68 1040 190 q 994 -56 1040 1 q 940 -105 971 -85 q 871 -135 910 -125 q 824 -143 847 -140 q 776 -146 800 -146 m 75 -37 q 232 61 158 -37 q 182 76 206 71 q 136 83 158 82 q 25 8 32 82 l 25 4 q 38 -24 25 -12 q 75 -37 51 -37 m 519 465 q 484 480 497 465 q 471 511 471 494 q 491 559 471 539 q 539 579 511 579 q 575 565 563 579 q 588 533 588 550 q 567 487 588 508 q 519 465 547 465 z "},"ǈ":{"ha":1290,"x_min":-10,"x_max":1368,"o":"m 776 -146 q 656 -128 721 -146 q 518 -76 592 -111 l 268 46 q 68 -65 168 -65 q 13 -46 36 -65 q -10 3 -10 -28 q 65 100 -10 65 q 151 117 101 117 q 253 100 203 117 l 257 99 q 274 131 265 114 q 290 167 282 149 q 363 347 328 257 q 436 526 399 438 q 538 715 481 633 q 661 857 596 797 q 814 949 721 910 q 988 988 908 988 q 1100 901 1100 988 q 1075 832 1100 864 q 1013 800 1047 800 q 967 819 986 800 q 953 867 949 839 q 1022 931 961 931 q 1067 904 1053 931 q 989 951 1063 951 q 954 947 971 951 q 654 688 792 901 q 554 519 619 635 q 392 226 489 404 q 299 83 346 143 q 415 35 357 60 q 533 -14 474 10 q 761 -68 671 -68 q 815 -63 789 -68 q 864 -50 840 -58 q 961 17 921 -29 q 1000 108 1000 61 q 906 211 1000 179 q 873 219 890 217 q 836 222 856 222 q 704 194 772 222 q 622 148 661 176 q 549 81 583 119 q 538 75 543 75 q 526 83 526 75 q 528 88 526 86 q 688 221 593 182 q 815 246 746 246 q 908 232 867 246 q 1040 68 1040 190 q 994 -56 1040 1 q 940 -105 971 -85 q 871 -135 910 -125 q 824 -143 847 -140 q 776 -146 800 -146 m 75 -37 q 232 61 158 -37 q 182 76 206 71 q 136 83 158 82 q 25 8 32 82 l 25 4 q 38 -24 25 -12 q 75 -37 51 -37 m 1324 538 q 1276 583 1276 538 q 1321 629 1276 629 q 1368 583 1368 629 q 1324 538 1368 538 m 893 -362 q 833 -351 860 -362 q 792 -314 807 -339 q 776 -260 781 -297 q 775 -248 775 -253 q 775 -237 775 -243 q 779 -207 775 -219 l 803 -206 q 801 -221 801 -212 q 800 -236 800 -229 q 817 -301 800 -279 q 865 -324 835 -324 q 927 -297 899 -324 q 985 -218 956 -271 q 1013 -158 996 -197 q 1054 -58 1031 -118 q 1128 135 1085 18 q 1228 408 1171 251 q 1229 421 1229 413 q 1210 465 1229 439 l 1296 467 q 1335 453 1335 467 q 1326 426 1335 446 l 1074 -217 q 997 -327 1044 -292 q 893 -362 950 -362 z "},"Ł":{"ha":1058,"x_min":-10,"x_max":1100,"o":"m 229 193 q 211 201 221 190 q 197 226 200 214 q 214 257 190 251 q 317 280 242 264 q 513 322 392 296 q 546 308 540 329 q 526 288 550 293 q 401 251 475 275 q 229 193 326 228 m 776 -146 q 656 -128 721 -146 q 518 -76 592 -111 l 268 46 q 68 -65 168 -65 q 13 -46 36 -65 q -10 3 -10 -28 q 65 100 -10 65 q 151 117 101 117 q 253 100 203 117 l 257 99 q 274 131 265 114 q 290 167 282 149 q 363 347 328 257 q 436 526 399 438 q 538 715 481 633 q 661 857 596 797 q 814 949 721 910 q 988 988 908 988 q 1100 901 1100 988 q 1075 832 1100 864 q 1013 800 1047 800 q 967 819 986 800 q 953 867 949 839 q 1022 931 961 931 q 1067 904 1053 931 q 989 951 1063 951 q 954 947 971 951 q 654 688 792 901 q 554 519 619 635 q 392 226 489 404 q 299 83 346 143 q 415 35 357 60 q 533 -14 474 10 q 761 -68 671 -68 q 815 -63 789 -68 q 864 -50 840 -58 q 961 17 921 -29 q 1000 108 1000 61 q 906 211 1000 179 q 873 219 890 217 q 836 222 856 222 q 704 194 772 222 q 622 148 661 176 q 549 81 583 119 q 538 75 543 75 q 526 83 526 75 q 528 88 526 86 q 688 221 593 182 q 815 246 746 246 q 908 232 867 246 q 1040 68 1040 190 q 994 -56 1040 1 q 940 -105 971 -85 q 871 -135 910 -125 q 824 -143 847 -140 q 776 -146 800 -146 m 75 -37 q 232 61 158 -37 q 182 76 206 71 q 136 83 158 82 q 25 8 32 82 l 25 4 q 38 -24 25 -12 q 75 -37 51 -37 z "},"M":{"ha":1275,"x_min":-156,"x_max":1614,"o":"m 672 -44 q 639 10 639 -44 q 750 344 639 111 q 618 849 736 676 q 385 992 519 992 q 229 929 294 992 q 164 778 164 867 q 181 690 164 735 q 347 489 239 550 q 351 476 356 485 q 339 474 344 469 q 139 690 196 551 q 118 760 125 726 q 111 828 111 794 q 190 1019 111 944 q 381 1093 265 1093 q 690 893 572 1093 q 811 456 794 717 q 928 631 868 550 q 1056 781 989 713 q 1364 990 1211 940 q 1390 997 1375 994 q 1422 1003 1404 1000 q 1465 1010 1419 1006 q 1480 1011 1472 1011 q 1493 1011 1488 1011 q 1614 919 1614 1011 q 1593 857 1614 886 q 1533 825 1569 825 q 1486 844 1503 825 q 1468 888 1468 863 q 1533 954 1468 954 q 1579 929 1565 954 q 1511 975 1574 968 q 1324 821 1424 983 q 1172 465 1238 679 q 1110 125 1110 260 q 1163 8 1110 8 q 1254 78 1200 8 q 1379 294 1307 144 q 1393 311 1385 308 l 1394 311 q 1400 301 1400 311 q 1394 279 1400 290 q 1300 97 1318 124 q 1163 -21 1231 -12 q 1154 -22 1158 -21 q 1146 -22 1150 -22 q 1053 14 1096 -22 q 992 179 992 68 q 1082 508 992 311 q 1257 808 1156 665 q 1424 981 1342 928 q 1092 754 1271 938 q 813 388 940 599 q 710 -29 815 103 q 672 -44 697 -44 m -37 -132 q -128 -99 -96 -132 q -156 -28 -156 -71 q -131 40 -156 11 q -68 68 -107 68 q -22 49 -42 68 q -7 7 -7 32 q -32 -47 -7 -26 q -82 -68 -54 -68 q -133 -42 -115 -68 q -108 -79 -131 -64 q -56 -94 -85 -94 q -28 -90 -42 -94 q 285 194 121 -49 q 438 467 367 317 q 569 797 510 618 q 585 822 578 822 q 593 813 592 822 q 593 794 594 803 q 515 520 553 639 q 440 319 476 401 q 35 -122 272 -60 q -37 -132 -3 -132 z "},"N":{"ha":1196,"x_min":-72,"x_max":1564,"o":"m 43 -132 q -72 -32 -72 -132 q -51 31 -72 1 q 4 61 -29 61 q 54 40 33 61 q 72 -4 72 19 q 13 -71 72 -71 q -37 -43 -24 -71 q 47 -93 -29 -93 q 76 -89 63 -93 q 382 217 233 -47 q 440 331 407 261 q 517 497 474 401 q 650 761 594 669 q 854 1001 736 900 l 829 1006 q 783 1011 807 1010 q 731 1013 758 1013 q 630 1007 681 1013 q 528 990 579 1001 q 435 964 476 979 q 363 931 394 949 q 206 747 206 839 q 307 672 206 672 q 440 704 365 672 q 569 792 515 738 q 578 794 575 794 q 589 785 589 794 q 588 781 589 782 q 463 686 546 726 q 292 646 379 646 q 163 676 214 646 q 111 758 111 707 q 163 867 111 807 q 397 999 236 953 q 540 1028 465 1018 q 696 1038 614 1038 q 781 1033 740 1038 q 858 1025 821 1029 q 867 1024 861 1025 q 883 1022 874 1024 q 919 1028 906 1033 q 947 1032 935 1031 q 971 1033 960 1033 q 1038 999 1038 1033 q 1019 972 1038 982 q 976 963 1000 963 q 897 990 944 963 q 831 789 831 951 q 860 521 831 667 q 950 203 890 375 q 969 161 965 161 q 971 208 971 161 q 1090 732 975 476 q 1460 1044 1233 1044 q 1564 975 1564 1044 q 1546 919 1564 943 q 1492 890 1524 890 q 1449 908 1465 890 q 1432 946 1432 925 q 1492 1008 1432 1008 q 1533 986 1519 1008 q 1471 1026 1528 1026 q 1434 1022 1453 1026 q 1397 1006 1415 1017 q 1121 613 1260 921 q 992 128 985 314 q 1025 89 1014 101 q 1038 75 1036 76 q 1065 0 1065 38 q 1051 -40 1065 -22 q 1015 -58 1038 -58 q 961 0 976 -58 q 958 21 960 10 q 956 44 956 32 q 964 114 956 75 q 843 399 899 219 q 776 767 776 611 q 803 925 776 864 q 635 603 717 868 q 540 322 583 435 q 463 150 497 208 q 76 -129 324 -89 q 60 -131 68 -131 q 43 -132 51 -132 z "},"Ǌ":{"ha":1958,"x_min":-72,"x_max":2328,"o":"m 43 -132 q -72 -32 -72 -132 q -51 31 -72 1 q 4 61 -29 61 q 54 40 33 61 q 72 -4 72 19 q 13 -71 72 -71 q -37 -43 -24 -71 q 47 -93 -29 -93 q 76 -89 63 -93 q 382 217 233 -47 q 440 331 407 261 q 517 497 474 401 q 650 761 594 669 q 854 1001 736 900 l 829 1006 q 783 1011 807 1010 q 731 1013 758 1013 q 630 1007 681 1013 q 528 990 579 1001 q 435 964 476 979 q 363 931 394 949 q 206 747 206 839 q 307 672 206 672 q 440 704 365 672 q 569 792 515 738 q 578 794 575 794 q 589 785 589 794 q 588 781 589 782 q 463 686 546 726 q 292 646 379 646 q 163 676 214 646 q 111 758 111 707 q 163 867 111 807 q 397 999 236 953 q 540 1028 465 1018 q 696 1038 614 1038 q 781 1033 740 1038 q 858 1025 821 1029 q 867 1024 861 1025 q 883 1022 874 1024 q 919 1028 906 1033 q 947 1032 935 1031 q 971 1033 960 1033 q 1038 999 1038 1033 q 1019 972 1038 982 q 976 963 1000 963 q 897 990 944 963 q 831 789 831 951 q 860 521 831 667 q 950 203 890 375 q 969 161 965 161 q 971 208 971 161 q 1090 732 975 476 q 1460 1044 1233 1044 q 1564 975 1564 1044 q 1546 919 1564 943 q 1492 890 1524 890 q 1449 908 1465 890 q 1432 946 1432 925 q 1492 1008 1432 1008 q 1533 986 1519 1008 q 1471 1026 1528 1026 q 1434 1022 1453 1026 q 1397 1006 1415 1017 q 1121 613 1260 921 q 992 128 985 314 q 1025 89 1014 101 q 1038 75 1036 76 q 1065 0 1065 38 q 1051 -40 1065 -22 q 1015 -58 1038 -58 q 961 0 976 -58 q 958 21 960 10 q 956 44 956 32 q 964 114 956 75 q 843 399 899 219 q 776 767 776 611 q 803 925 776 864 q 635 603 717 868 q 540 322 583 435 q 463 150 497 208 q 76 -129 324 -89 q 60 -131 68 -131 q 43 -132 51 -132 m 1163 -283 q 1026 -189 1026 -283 q 1031 -156 1026 -174 q 1285 64 1057 -24 q 1443 113 1357 92 q 1631 150 1529 135 q 1692 267 1658 199 q 1765 424 1726 336 q 1841 586 1810 522 q 1886 679 1872 650 q 1942 779 1915 736 q 1996 853 1969 822 q 2142 958 2060 929 q 2069 966 2107 964 q 1988 968 2031 968 q 1626 906 1733 968 q 1517 815 1554 863 q 1476 725 1476 764 q 1535 665 1476 676 q 1572 661 1554 661 q 1713 696 1642 661 q 1831 775 1783 728 q 1836 778 1833 778 q 1843 772 1842 778 q 1840 761 1844 768 q 1786 710 1818 733 q 1713 667 1754 686 q 1551 628 1629 628 q 1446 656 1490 628 q 1393 744 1393 688 q 1436 844 1393 796 q 1944 993 1565 993 q 2063 989 2006 993 q 2174 975 2119 985 q 2260 990 2226 990 q 2328 954 2328 990 q 2308 925 2328 938 q 2264 914 2290 914 q 2227 922 2249 914 q 2176 949 2206 931 q 2068 863 2108 924 q 1996 701 2039 819 q 1931 522 1954 586 q 1903 446 1908 458 q 1839 295 1871 365 q 1775 167 1807 225 q 1875 171 1832 171 q 1908 170 1893 171 q 1938 168 1924 169 q 1954 160 1954 167 q 1933 149 1954 149 q 1760 140 1853 150 q 1319 -258 1575 -183 q 1163 -283 1236 -283 m 1161 -250 q 1300 -211 1224 -250 q 1613 119 1468 -125 q 1204 -14 1353 72 q 1067 -179 1067 -94 q 1161 -250 1067 -250 z "},"Ń":{"ha":1196,"x_min":-72,"x_max":1564,"o":"m 43 -132 q -72 -32 -72 -132 q -51 31 -72 1 q 4 61 -29 61 q 54 40 33 61 q 72 -4 72 19 q 13 -71 72 -71 q -37 -43 -24 -71 q 47 -93 -29 -93 q 76 -89 63 -93 q 382 217 233 -47 q 440 331 407 261 q 517 497 474 401 q 650 761 594 669 q 854 1001 736 900 l 829 1006 q 783 1011 807 1010 q 731 1013 758 1013 q 630 1007 681 1013 q 528 990 579 1001 q 435 964 476 979 q 363 931 394 949 q 206 747 206 839 q 307 672 206 672 q 440 704 365 672 q 569 792 515 738 q 578 794 575 794 q 589 785 589 794 q 588 781 589 782 q 463 686 546 726 q 292 646 379 646 q 163 676 214 646 q 111 758 111 707 q 163 867 111 807 q 397 999 236 953 q 540 1028 465 1018 q 696 1038 614 1038 q 781 1033 740 1038 q 858 1025 821 1029 q 867 1024 861 1025 q 883 1022 874 1024 q 919 1028 906 1033 q 947 1032 935 1031 q 971 1033 960 1033 q 1038 999 1038 1033 q 1019 972 1038 982 q 976 963 1000 963 q 897 990 944 963 q 831 789 831 951 q 860 521 831 667 q 950 203 890 375 q 969 161 965 161 q 971 208 971 161 q 1090 732 975 476 q 1460 1044 1233 1044 q 1564 975 1564 1044 q 1546 919 1564 943 q 1492 890 1524 890 q 1449 908 1465 890 q 1432 946 1432 925 q 1492 1008 1432 1008 q 1533 986 1519 1008 q 1471 1026 1528 1026 q 1434 1022 1453 1026 q 1397 1006 1415 1017 q 1121 613 1260 921 q 992 128 985 314 q 1025 89 1014 101 q 1038 75 1036 76 q 1065 0 1065 38 q 1051 -40 1065 -22 q 1015 -58 1038 -58 q 961 0 976 -58 q 958 21 960 10 q 956 44 956 32 q 964 114 956 75 q 843 399 899 219 q 776 767 776 611 q 803 925 776 864 q 635 603 717 868 q 540 322 583 435 q 463 150 497 208 q 76 -129 324 -89 q 60 -131 68 -131 q 43 -132 51 -132 m 1072 1107 q 1061 1117 1061 1108 q 1078 1133 1061 1118 q 1119 1167 1094 1147 q 1172 1207 1144 1188 q 1219 1240 1199 1226 q 1246 1254 1240 1254 q 1268 1228 1268 1254 q 1222 1171 1268 1194 q 1165 1144 1199 1160 q 1103 1118 1131 1129 q 1072 1107 1076 1107 z "},"Ň":{"ha":1196,"x_min":-72,"x_max":1564,"o":"m 43 -132 q -72 -32 -72 -132 q -51 31 -72 1 q 4 61 -29 61 q 54 40 33 61 q 72 -4 72 19 q 13 -71 72 -71 q -37 -43 -24 -71 q 47 -93 -29 -93 q 76 -89 63 -93 q 382 217 233 -47 q 440 331 407 261 q 517 497 474 401 q 650 761 594 669 q 854 1001 736 900 l 829 1006 q 783 1011 807 1010 q 731 1013 758 1013 q 630 1007 681 1013 q 528 990 579 1001 q 435 964 476 979 q 363 931 394 949 q 206 747 206 839 q 307 672 206 672 q 440 704 365 672 q 569 792 515 738 q 578 794 575 794 q 589 785 589 794 q 588 781 589 782 q 463 686 546 726 q 292 646 379 646 q 163 676 214 646 q 111 758 111 707 q 163 867 111 807 q 397 999 236 953 q 540 1028 465 1018 q 696 1038 614 1038 q 781 1033 740 1038 q 858 1025 821 1029 q 867 1024 861 1025 q 883 1022 874 1024 q 919 1028 906 1033 q 947 1032 935 1031 q 971 1033 960 1033 q 1038 999 1038 1033 q 1019 972 1038 982 q 976 963 1000 963 q 897 990 944 963 q 831 789 831 951 q 860 521 831 667 q 950 203 890 375 q 969 161 965 161 q 971 208 971 161 q 1090 732 975 476 q 1460 1044 1233 1044 q 1564 975 1564 1044 q 1546 919 1564 943 q 1492 890 1524 890 q 1449 908 1465 890 q 1432 946 1432 925 q 1492 1008 1432 1008 q 1533 986 1519 1008 q 1471 1026 1528 1026 q 1434 1022 1453 1026 q 1397 1006 1415 1017 q 1121 613 1260 921 q 992 128 985 314 q 1025 89 1014 101 q 1038 75 1036 76 q 1065 0 1065 38 q 1051 -40 1065 -22 q 1015 -58 1038 -58 q 961 0 976 -58 q 958 21 960 10 q 956 44 956 32 q 964 114 956 75 q 843 399 899 219 q 776 767 776 611 q 803 925 776 864 q 635 603 717 868 q 540 322 583 435 q 463 150 497 208 q 76 -129 324 -89 q 60 -131 68 -131 q 43 -132 51 -132 m 1150 1108 q 1126 1126 1144 1108 q 1085 1166 1107 1143 q 1047 1207 1063 1189 q 1031 1228 1031 1225 q 1047 1239 1031 1239 q 1088 1223 1054 1239 q 1151 1192 1121 1207 q 1176 1186 1163 1186 q 1192 1188 1185 1186 q 1210 1193 1200 1190 q 1263 1213 1233 1201 q 1315 1231 1292 1224 q 1342 1239 1339 1239 q 1353 1228 1353 1239 q 1334 1214 1353 1226 q 1288 1184 1315 1201 q 1231 1149 1260 1167 q 1181 1120 1203 1132 q 1154 1108 1160 1108 l 1150 1108 z "},"Ņ":{"ha":1196,"x_min":-72,"x_max":1564,"o":"m 43 -132 q -72 -32 -72 -132 q -51 31 -72 1 q 4 61 -29 61 q 54 40 33 61 q 72 -4 72 19 q 13 -71 72 -71 q -37 -43 -24 -71 q 47 -93 -29 -93 q 76 -89 63 -93 q 382 217 233 -47 q 440 331 407 261 q 517 497 474 401 q 650 761 594 669 q 854 1001 736 900 l 829 1006 q 783 1011 807 1010 q 731 1013 758 1013 q 630 1007 681 1013 q 528 990 579 1001 q 435 964 476 979 q 363 931 394 949 q 206 747 206 839 q 307 672 206 672 q 440 704 365 672 q 569 792 515 738 q 578 794 575 794 q 589 785 589 794 q 588 781 589 782 q 463 686 546 726 q 292 646 379 646 q 163 676 214 646 q 111 758 111 707 q 163 867 111 807 q 397 999 236 953 q 540 1028 465 1018 q 696 1038 614 1038 q 781 1033 740 1038 q 858 1025 821 1029 q 867 1024 861 1025 q 883 1022 874 1024 q 919 1028 906 1033 q 947 1032 935 1031 q 971 1033 960 1033 q 1038 999 1038 1033 q 1019 972 1038 982 q 976 963 1000 963 q 897 990 944 963 q 831 789 831 951 q 860 521 831 667 q 950 203 890 375 q 969 161 965 161 q 971 208 971 161 q 1090 732 975 476 q 1460 1044 1233 1044 q 1564 975 1564 1044 q 1546 919 1564 943 q 1492 890 1524 890 q 1449 908 1465 890 q 1432 946 1432 925 q 1492 1008 1432 1008 q 1533 986 1519 1008 q 1471 1026 1528 1026 q 1434 1022 1453 1026 q 1397 1006 1415 1017 q 1121 613 1260 921 q 992 128 985 314 q 1025 89 1014 101 q 1038 75 1036 76 q 1065 0 1065 38 q 1051 -40 1065 -22 q 1015 -58 1038 -58 q 961 0 976 -58 q 958 21 960 10 q 956 44 956 32 q 964 114 956 75 q 843 399 899 219 q 776 767 776 611 q 803 925 776 864 q 635 603 717 868 q 540 322 583 435 q 463 150 497 208 q 76 -129 324 -89 q 60 -131 68 -131 q 43 -132 51 -132 m 532 -378 q 525 -376 529 -378 q 522 -374 521 -375 q 528 -362 522 -371 q 575 -293 556 -326 q 600 -233 594 -260 q 571 -244 589 -244 q 543 -234 556 -244 q 531 -207 531 -224 q 548 -166 531 -182 q 588 -150 565 -150 q 626 -164 610 -150 q 642 -203 642 -178 q 611 -296 642 -247 q 544 -374 581 -344 q 532 -378 539 -378 z "},"ǋ":{"ha":1428,"x_min":-72,"x_max":1564,"o":"m 43 -132 q -72 -32 -72 -132 q -51 31 -72 1 q 4 61 -29 61 q 54 40 33 61 q 72 -4 72 19 q 13 -71 72 -71 q -37 -43 -24 -71 q 47 -93 -29 -93 q 76 -89 63 -93 q 382 217 233 -47 q 440 331 407 261 q 517 497 474 401 q 650 761 594 669 q 854 1001 736 900 l 829 1006 q 783 1011 807 1010 q 731 1013 758 1013 q 630 1007 681 1013 q 528 990 579 1001 q 435 964 476 979 q 363 931 394 949 q 206 747 206 839 q 307 672 206 672 q 440 704 365 672 q 569 792 515 738 q 578 794 575 794 q 589 785 589 794 q 588 781 589 782 q 463 686 546 726 q 292 646 379 646 q 163 676 214 646 q 111 758 111 707 q 163 867 111 807 q 397 999 236 953 q 540 1028 465 1018 q 696 1038 614 1038 q 781 1033 740 1038 q 858 1025 821 1029 q 867 1024 861 1025 q 883 1022 874 1024 q 919 1028 906 1033 q 947 1032 935 1031 q 971 1033 960 1033 q 1038 999 1038 1033 q 1019 972 1038 982 q 976 963 1000 963 q 897 990 944 963 q 831 789 831 951 q 860 521 831 667 q 950 203 890 375 q 969 161 965 161 q 971 208 971 161 q 1090 732 975 476 q 1460 1044 1233 1044 q 1564 975 1564 1044 q 1546 919 1564 943 q 1492 890 1524 890 q 1449 908 1465 890 q 1432 946 1432 925 q 1492 1008 1432 1008 q 1533 986 1519 1008 q 1471 1026 1528 1026 q 1434 1022 1453 1026 q 1397 1006 1415 1017 q 1121 613 1260 921 q 992 128 985 314 q 1025 89 1014 101 q 1038 75 1036 76 q 1065 0 1065 38 q 1051 -40 1065 -22 q 1015 -58 1038 -58 q 961 0 976 -58 q 958 21 960 10 q 956 44 956 32 q 964 114 956 75 q 843 399 899 219 q 776 767 776 611 q 803 925 776 864 q 635 603 717 868 q 540 322 583 435 q 463 150 497 208 q 76 -129 324 -89 q 60 -131 68 -131 q 43 -132 51 -132 m 1461 538 q 1414 583 1414 538 q 1458 629 1414 629 q 1506 583 1506 629 q 1461 538 1506 538 m 1031 -362 q 971 -351 997 -362 q 929 -314 944 -339 q 914 -260 918 -297 q 913 -248 913 -253 q 913 -237 913 -243 q 917 -207 913 -219 l 940 -206 q 938 -221 939 -212 q 938 -236 938 -229 q 955 -301 938 -279 q 1003 -324 972 -324 q 1065 -297 1036 -324 q 1122 -218 1093 -271 q 1151 -158 1133 -197 q 1192 -58 1168 -118 q 1265 135 1222 18 q 1365 408 1308 251 q 1367 421 1367 413 q 1347 465 1367 439 l 1433 467 q 1472 453 1472 467 q 1464 426 1472 446 l 1211 -217 q 1135 -327 1182 -292 q 1031 -362 1088 -362 z "},"Ñ":{"ha":1196,"x_min":-72,"x_max":1564,"o":"m 43 -132 q -72 -32 -72 -132 q -51 31 -72 1 q 4 61 -29 61 q 54 40 33 61 q 72 -4 72 19 q 13 -71 72 -71 q -37 -43 -24 -71 q 47 -93 -29 -93 q 76 -89 63 -93 q 382 217 233 -47 q 440 331 407 261 q 517 497 474 401 q 650 761 594 669 q 854 1001 736 900 l 829 1006 q 783 1011 807 1010 q 731 1013 758 1013 q 630 1007 681 1013 q 528 990 579 1001 q 435 964 476 979 q 363 931 394 949 q 206 747 206 839 q 307 672 206 672 q 440 704 365 672 q 569 792 515 738 q 578 794 575 794 q 589 785 589 794 q 588 781 589 782 q 463 686 546 726 q 292 646 379 646 q 163 676 214 646 q 111 758 111 707 q 163 867 111 807 q 397 999 236 953 q 540 1028 465 1018 q 696 1038 614 1038 q 781 1033 740 1038 q 858 1025 821 1029 q 867 1024 861 1025 q 883 1022 874 1024 q 919 1028 906 1033 q 947 1032 935 1031 q 971 1033 960 1033 q 1038 999 1038 1033 q 1019 972 1038 982 q 976 963 1000 963 q 897 990 944 963 q 831 789 831 951 q 860 521 831 667 q 950 203 890 375 q 969 161 965 161 q 971 208 971 161 q 1090 732 975 476 q 1460 1044 1233 1044 q 1564 975 1564 1044 q 1546 919 1564 943 q 1492 890 1524 890 q 1449 908 1465 890 q 1432 946 1432 925 q 1492 1008 1432 1008 q 1533 986 1519 1008 q 1471 1026 1528 1026 q 1434 1022 1453 1026 q 1397 1006 1415 1017 q 1121 613 1260 921 q 992 128 985 314 q 1025 89 1014 101 q 1038 75 1036 76 q 1065 0 1065 38 q 1051 -40 1065 -22 q 1015 -58 1038 -58 q 961 0 976 -58 q 958 21 960 10 q 956 44 956 32 q 964 114 956 75 q 843 399 899 219 q 776 767 776 611 q 803 925 776 864 q 635 603 717 868 q 540 322 583 435 q 463 150 497 208 q 76 -129 324 -89 q 60 -131 68 -131 q 43 -132 51 -132 m 1235 1108 q 1153 1131 1200 1108 q 1090 1150 1111 1150 q 1059 1141 1072 1150 q 1031 1114 1046 1132 q 1018 1111 1031 1111 q 1006 1113 1013 1111 q 1001 1117 1000 1114 q 1049 1181 1024 1161 q 1107 1201 1075 1201 q 1179 1183 1136 1201 q 1250 1164 1218 1164 q 1310 1201 1292 1164 q 1324 1206 1313 1206 q 1333 1204 1328 1206 q 1338 1200 1339 1203 q 1296 1131 1322 1153 q 1235 1108 1269 1108 z "},"O":{"ha":1024,"x_min":18,"x_max":1117,"o":"m 432 -89 q 221 -8 293 -89 q 146 211 146 74 q 232 525 146 364 q 152 563 189 540 q 86 615 115 585 q 18 768 18 685 q 93 894 18 851 q 244 932 156 932 q 517 832 399 932 q 922 963 714 963 q 1117 857 1117 963 q 1079 758 1117 813 q 1114 614 1114 701 q 1047 358 1114 494 q 800 44 949 163 q 432 -89 632 -89 m 456 531 q 520 533 489 531 q 582 542 551 536 q 772 601 681 561 q 947 706 864 642 q 971 726 960 715 q 992 746 982 736 q 879 807 947 807 q 801 788 843 807 q 793 786 799 786 q 783 794 783 786 q 799 813 783 806 q 925 840 869 840 q 1038 804 990 840 q 1057 871 1057 840 q 960 933 1057 933 q 579 768 776 933 q 628 694 607 733 q 622 682 635 683 l 618 682 q 603 690 607 682 l 556 749 q 459 648 504 701 q 376 535 414 594 q 456 531 417 531 m 251 561 q 486 811 342 708 q 229 906 358 906 q 118 874 163 906 q 68 774 68 839 q 251 561 68 622 m 460 -61 q 767 74 615 -61 q 884 200 831 131 q 979 353 938 269 q 1038 583 1038 469 q 1019 692 1038 646 q 751 542 917 596 q 446 493 597 493 q 399 494 422 493 q 354 499 376 496 q 257 182 257 331 q 303 11 257 74 q 460 -61 354 -61 z "},"Œ":{"ha":1678,"x_min":18,"x_max":1797,"o":"m 432 -89 q 221 -8 293 -89 q 146 211 146 74 q 232 525 146 364 q 152 563 189 540 q 86 615 115 585 q 18 768 18 685 q 93 894 18 851 q 244 932 156 932 q 517 832 399 932 q 922 963 714 963 q 1117 857 1117 963 q 1079 758 1117 813 q 1114 607 1117 699 q 1164 598 1138 601 q 1217 593 1190 594 q 1211 644 1211 615 q 1290 822 1211 743 q 1558 946 1385 917 q 1594 950 1576 949 q 1626 951 1611 951 q 1750 919 1703 951 q 1797 838 1797 889 q 1685 678 1797 757 q 1285 571 1542 579 q 1296 528 1288 543 q 1343 528 1319 529 q 1390 526 1367 528 q 1440 489 1440 522 q 1386 457 1440 457 q 1267 506 1315 457 q 1053 371 1133 485 l 1047 358 q 1031 325 1040 342 q 1010 289 1021 308 q 983 156 983 224 q 1035 -1 983 58 q 1194 -69 1090 -69 q 1453 26 1335 -69 q 1564 204 1564 117 q 1408 304 1564 304 q 1219 224 1335 304 q 1097 110 1117 151 q 1086 106 1094 101 q 1081 118 1078 110 q 1197 239 1104 171 q 1424 336 1314 326 q 1450 338 1438 338 q 1475 339 1463 339 q 1636 229 1636 339 q 1508 24 1636 126 q 1194 -87 1368 -87 q 968 -33 1058 -87 q 860 97 888 14 q 432 -89 667 -89 m 456 531 q 520 533 489 531 q 582 542 551 536 q 772 601 681 561 q 947 706 864 642 q 971 726 960 715 q 992 746 982 736 q 879 807 947 807 q 801 788 843 807 q 793 786 799 786 q 783 794 783 786 q 799 813 783 806 q 925 840 869 840 q 1038 804 990 840 q 1057 871 1057 840 q 960 933 1057 933 q 579 768 776 933 q 628 694 607 733 q 622 682 635 683 l 618 682 q 603 690 607 682 l 556 749 q 459 648 504 701 q 376 535 414 594 q 456 531 417 531 m 1285 594 q 1647 707 1500 606 q 1765 851 1765 790 q 1664 914 1765 914 q 1399 800 1526 914 q 1285 594 1292 706 m 251 561 q 486 811 342 708 q 229 906 358 906 q 118 874 163 906 q 68 774 68 839 q 251 561 68 622 m 460 -61 q 847 156 663 -61 q 886 314 842 235 q 1017 447 929 392 q 1038 583 1038 517 q 1019 692 1038 646 q 751 542 917 596 q 446 493 597 493 q 399 494 422 493 q 354 499 376 496 q 257 182 257 331 q 303 11 257 74 q 460 -61 354 -61 m 1097 488 q 1250 524 1168 515 q 1224 571 1235 546 q 1166 575 1193 572 q 1114 582 1139 578 q 1097 488 1110 535 z "},"Ó":{"ha":1024,"x_min":18,"x_max":1117,"o":"m 432 -89 q 221 -8 293 -89 q 146 211 146 74 q 232 525 146 364 q 152 563 189 540 q 86 615 115 585 q 18 768 18 685 q 93 894 18 851 q 244 932 156 932 q 517 832 399 932 q 922 963 714 963 q 1117 857 1117 963 q 1079 758 1117 813 q 1114 614 1114 701 q 1047 358 1114 494 q 800 44 949 163 q 432 -89 632 -89 m 456 531 q 520 533 489 531 q 582 542 551 536 q 772 601 681 561 q 947 706 864 642 q 971 726 960 715 q 992 746 982 736 q 879 807 947 807 q 801 788 843 807 q 793 786 799 786 q 783 794 783 786 q 799 813 783 806 q 925 840 869 840 q 1038 804 990 840 q 1057 871 1057 840 q 960 933 1057 933 q 579 768 776 933 q 628 694 607 733 q 622 682 635 683 l 618 682 q 603 690 607 682 l 556 749 q 459 648 504 701 q 376 535 414 594 q 456 531 417 531 m 251 561 q 486 811 342 708 q 229 906 358 906 q 118 874 163 906 q 68 774 68 839 q 251 561 68 622 m 460 -61 q 767 74 615 -61 q 884 200 831 131 q 979 353 938 269 q 1038 583 1038 469 q 1019 692 1038 646 q 751 542 917 596 q 446 493 597 493 q 399 494 422 493 q 354 499 376 496 q 257 182 257 331 q 303 11 257 74 q 460 -61 354 -61 m 853 1022 q 842 1032 842 1024 q 858 1048 842 1033 q 900 1083 875 1063 q 952 1122 925 1103 q 1000 1156 979 1142 q 1026 1169 1021 1169 q 1049 1143 1049 1169 q 1003 1086 1049 1110 q 945 1060 979 1075 q 884 1033 911 1044 q 853 1022 857 1022 z "},"Ŏ":{"ha":1024,"x_min":18,"x_max":1117,"o":"m 432 -89 q 221 -8 293 -89 q 146 211 146 74 q 232 525 146 364 q 152 563 189 540 q 86 615 115 585 q 18 768 18 685 q 93 894 18 851 q 244 932 156 932 q 517 832 399 932 q 922 963 714 963 q 1117 857 1117 963 q 1079 758 1117 813 q 1114 614 1114 701 q 1047 358 1114 494 q 800 44 949 163 q 432 -89 632 -89 m 456 531 q 520 533 489 531 q 582 542 551 536 q 772 601 681 561 q 947 706 864 642 q 971 726 960 715 q 992 746 982 736 q 879 807 947 807 q 801 788 843 807 q 793 786 799 786 q 783 794 783 786 q 799 813 783 806 q 925 840 869 840 q 1038 804 990 840 q 1057 871 1057 840 q 960 933 1057 933 q 579 768 776 933 q 628 694 607 733 q 622 682 635 683 l 618 682 q 603 690 607 682 l 556 749 q 459 648 504 701 q 376 535 414 594 q 456 531 417 531 m 251 561 q 486 811 342 708 q 229 906 358 906 q 118 874 163 906 q 68 774 68 839 q 251 561 68 622 m 460 -61 q 767 74 615 -61 q 884 200 831 131 q 979 353 938 269 q 1038 583 1038 469 q 1019 692 1038 646 q 751 542 917 596 q 446 493 597 493 q 399 494 422 493 q 354 499 376 496 q 257 182 257 331 q 303 11 257 74 q 460 -61 354 -61 m 917 1018 q 808 1108 808 1018 q 815 1139 808 1125 q 831 1154 821 1153 l 832 1154 q 853 1142 847 1154 q 869 1089 849 1099 q 933 1079 889 1079 q 1017 1090 976 1079 q 1083 1147 1057 1100 q 1094 1154 1088 1154 q 1101 1142 1106 1154 q 1076 1092 1097 1121 q 1015 1040 1054 1063 q 917 1018 976 1018 z "},"Ǒ":{"ha":1024,"x_min":18,"x_max":1133,"o":"m 432 -89 q 221 -8 293 -89 q 146 211 146 74 q 232 525 146 364 q 152 563 189 540 q 86 615 115 585 q 18 768 18 685 q 93 894 18 851 q 244 932 156 932 q 517 832 399 932 q 922 963 714 963 q 1117 857 1117 963 q 1079 758 1117 813 q 1114 614 1114 701 q 1047 358 1114 494 q 800 44 949 163 q 432 -89 632 -89 m 456 531 q 520 533 489 531 q 582 542 551 536 q 772 601 681 561 q 947 706 864 642 q 971 726 960 715 q 992 746 982 736 q 879 807 947 807 q 801 788 843 807 q 793 786 799 786 q 783 794 783 786 q 799 813 783 806 q 925 840 869 840 q 1038 804 990 840 q 1057 871 1057 840 q 960 933 1057 933 q 579 768 776 933 q 628 694 607 733 q 622 682 635 683 l 618 682 q 603 690 607 682 l 556 749 q 459 648 504 701 q 376 535 414 594 q 456 531 417 531 m 251 561 q 486 811 342 708 q 229 906 358 906 q 118 874 163 906 q 68 774 68 839 q 251 561 68 622 m 460 -61 q 767 74 615 -61 q 884 200 831 131 q 979 353 938 269 q 1038 583 1038 469 q 1019 692 1038 646 q 751 542 917 596 q 446 493 597 493 q 399 494 422 493 q 354 499 376 496 q 257 182 257 331 q 303 11 257 74 q 460 -61 354 -61 m 931 1024 q 906 1041 925 1024 q 865 1081 888 1058 q 827 1122 843 1104 q 811 1143 811 1140 q 828 1154 811 1154 q 868 1138 835 1154 q 932 1107 901 1122 q 957 1101 943 1101 q 973 1103 965 1101 q 990 1108 981 1106 q 1043 1128 1014 1117 q 1096 1147 1072 1139 q 1122 1154 1119 1154 q 1133 1143 1133 1154 q 1115 1129 1133 1142 q 1068 1099 1096 1117 q 1012 1065 1040 1082 q 962 1035 983 1047 q 935 1024 940 1024 l 931 1024 z "},"Ô":{"ha":1024,"x_min":18,"x_max":1117,"o":"m 432 -89 q 221 -8 293 -89 q 146 211 146 74 q 232 525 146 364 q 152 563 189 540 q 86 615 115 585 q 18 768 18 685 q 93 894 18 851 q 244 932 156 932 q 517 832 399 932 q 922 963 714 963 q 1117 857 1117 963 q 1079 758 1117 813 q 1114 614 1114 701 q 1047 358 1114 494 q 800 44 949 163 q 432 -89 632 -89 m 456 531 q 520 533 489 531 q 582 542 551 536 q 772 601 681 561 q 947 706 864 642 q 971 726 960 715 q 992 746 982 736 q 879 807 947 807 q 801 788 843 807 q 793 786 799 786 q 783 794 783 786 q 799 813 783 806 q 925 840 869 840 q 1038 804 990 840 q 1057 871 1057 840 q 960 933 1057 933 q 579 768 776 933 q 628 694 607 733 q 622 682 635 683 l 618 682 q 603 690 607 682 l 556 749 q 459 648 504 701 q 376 535 414 594 q 456 531 417 531 m 251 561 q 486 811 342 708 q 229 906 358 906 q 118 874 163 906 q 68 774 68 839 q 251 561 68 622 m 460 -61 q 767 74 615 -61 q 884 200 831 131 q 979 353 938 269 q 1038 583 1038 469 q 1019 692 1038 646 q 751 542 917 596 q 446 493 597 493 q 399 494 422 493 q 354 499 376 496 q 257 182 257 331 q 303 11 257 74 q 460 -61 354 -61 m 782 1024 q 771 1035 771 1024 q 790 1049 771 1036 q 836 1078 808 1061 q 892 1113 864 1096 q 942 1142 921 1131 q 969 1154 964 1154 l 974 1154 q 998 1137 979 1154 q 1039 1097 1017 1119 q 1077 1056 1061 1074 q 1093 1035 1093 1038 q 1076 1024 1093 1024 q 1038 1040 1071 1024 q 972 1071 1004 1057 q 947 1076 961 1076 q 931 1074 939 1076 q 914 1069 924 1072 q 862 1050 892 1061 q 809 1031 832 1039 q 782 1024 786 1024 z "},"Ố":{"ha":1024,"x_min":18,"x_max":1274,"o":"m 432 -89 q 221 -8 293 -89 q 146 211 146 74 q 232 525 146 364 q 152 563 189 540 q 86 615 115 585 q 18 768 18 685 q 93 894 18 851 q 244 932 156 932 q 517 832 399 932 q 922 963 714 963 q 1117 857 1117 963 q 1079 758 1117 813 q 1114 614 1114 701 q 1047 358 1114 494 q 800 44 949 163 q 432 -89 632 -89 m 456 531 q 520 533 489 531 q 582 542 551 536 q 772 601 681 561 q 947 706 864 642 q 971 726 960 715 q 992 746 982 736 q 879 807 947 807 q 801 788 843 807 q 793 786 799 786 q 783 794 783 786 q 799 813 783 806 q 925 840 869 840 q 1038 804 990 840 q 1057 871 1057 840 q 960 933 1057 933 q 579 768 776 933 q 628 694 607 733 q 622 682 635 683 l 618 682 q 603 690 607 682 l 556 749 q 459 648 504 701 q 376 535 414 594 q 456 531 417 531 m 251 561 q 486 811 342 708 q 229 906 358 906 q 118 874 163 906 q 68 774 68 839 q 251 561 68 622 m 460 -61 q 767 74 615 -61 q 884 200 831 131 q 979 353 938 269 q 1038 583 1038 469 q 1019 692 1038 646 q 751 542 917 596 q 446 493 597 493 q 399 494 422 493 q 354 499 376 496 q 257 182 257 331 q 303 11 257 74 q 460 -61 354 -61 m 782 1024 q 771 1035 771 1024 q 790 1049 771 1036 q 836 1078 808 1061 q 892 1113 864 1096 q 942 1142 921 1131 q 969 1154 964 1154 l 974 1154 q 998 1137 979 1154 q 1039 1097 1017 1119 q 1077 1056 1061 1074 q 1093 1035 1093 1038 q 1076 1024 1093 1024 q 1038 1040 1071 1024 q 972 1071 1004 1057 q 947 1076 961 1076 q 931 1074 939 1076 q 914 1069 924 1072 q 862 1050 892 1061 q 809 1031 832 1039 q 782 1024 786 1024 m 1078 1144 q 1067 1154 1067 1146 q 1083 1170 1067 1156 q 1125 1205 1100 1185 q 1177 1244 1150 1225 q 1225 1278 1204 1264 q 1251 1292 1246 1292 q 1274 1265 1274 1292 q 1228 1208 1274 1232 q 1170 1182 1204 1197 q 1109 1156 1136 1167 q 1078 1144 1082 1144 z "},"Ộ":{"ha":1024,"x_min":18,"x_max":1117,"o":"m 432 -89 q 221 -8 293 -89 q 146 211 146 74 q 232 525 146 364 q 152 563 189 540 q 86 615 115 585 q 18 768 18 685 q 93 894 18 851 q 244 932 156 932 q 517 832 399 932 q 922 963 714 963 q 1117 857 1117 963 q 1079 758 1117 813 q 1114 614 1114 701 q 1047 358 1114 494 q 800 44 949 163 q 432 -89 632 -89 m 456 531 q 520 533 489 531 q 582 542 551 536 q 772 601 681 561 q 947 706 864 642 q 971 726 960 715 q 992 746 982 736 q 879 807 947 807 q 801 788 843 807 q 793 786 799 786 q 783 794 783 786 q 799 813 783 806 q 925 840 869 840 q 1038 804 990 840 q 1057 871 1057 840 q 960 933 1057 933 q 579 768 776 933 q 628 694 607 733 q 622 682 635 683 l 618 682 q 603 690 607 682 l 556 749 q 459 648 504 701 q 376 535 414 594 q 456 531 417 531 m 251 561 q 486 811 342 708 q 229 906 358 906 q 118 874 163 906 q 68 774 68 839 q 251 561 68 622 m 460 -61 q 767 74 615 -61 q 884 200 831 131 q 979 353 938 269 q 1038 583 1038 469 q 1019 692 1038 646 q 751 542 917 596 q 446 493 597 493 q 399 494 422 493 q 354 499 376 496 q 257 182 257 331 q 303 11 257 74 q 460 -61 354 -61 m 253 -229 q 206 -183 206 -229 q 250 -137 206 -137 q 297 -183 297 -137 q 253 -229 297 -229 m 782 1024 q 771 1035 771 1024 q 790 1049 771 1036 q 836 1078 808 1061 q 892 1113 864 1096 q 942 1142 921 1131 q 969 1154 964 1154 l 974 1154 q 998 1137 979 1154 q 1039 1097 1017 1119 q 1077 1056 1061 1074 q 1093 1035 1093 1038 q 1076 1024 1093 1024 q 1038 1040 1071 1024 q 972 1071 1004 1057 q 947 1076 961 1076 q 931 1074 939 1076 q 914 1069 924 1072 q 862 1050 892 1061 q 809 1031 832 1039 q 782 1024 786 1024 z "},"Ồ":{"ha":1024,"x_min":18,"x_max":1207,"o":"m 432 -89 q 221 -8 293 -89 q 146 211 146 74 q 232 525 146 364 q 152 563 189 540 q 86 615 115 585 q 18 768 18 685 q 93 894 18 851 q 244 932 156 932 q 517 832 399 932 q 922 963 714 963 q 1117 857 1117 963 q 1079 758 1117 813 q 1114 614 1114 701 q 1047 358 1114 494 q 800 44 949 163 q 432 -89 632 -89 m 456 531 q 520 533 489 531 q 582 542 551 536 q 772 601 681 561 q 947 706 864 642 q 971 726 960 715 q 992 746 982 736 q 879 807 947 807 q 801 788 843 807 q 793 786 799 786 q 783 794 783 786 q 799 813 783 806 q 925 840 869 840 q 1038 804 990 840 q 1057 871 1057 840 q 960 933 1057 933 q 579 768 776 933 q 628 694 607 733 q 622 682 635 683 l 618 682 q 603 690 607 682 l 556 749 q 459 648 504 701 q 376 535 414 594 q 456 531 417 531 m 251 561 q 486 811 342 708 q 229 906 358 906 q 118 874 163 906 q 68 774 68 839 q 251 561 68 622 m 460 -61 q 767 74 615 -61 q 884 200 831 131 q 979 353 938 269 q 1038 583 1038 469 q 1019 692 1038 646 q 751 542 917 596 q 446 493 597 493 q 399 494 422 493 q 354 499 376 496 q 257 182 257 331 q 303 11 257 74 q 460 -61 354 -61 m 782 1024 q 771 1035 771 1024 q 790 1049 771 1036 q 836 1078 808 1061 q 892 1113 864 1096 q 942 1142 921 1131 q 969 1154 964 1154 l 974 1154 q 998 1137 979 1154 q 1039 1097 1017 1119 q 1077 1056 1061 1074 q 1093 1035 1093 1038 q 1076 1024 1093 1024 q 1038 1040 1071 1024 q 972 1071 1004 1057 q 947 1076 961 1076 q 931 1074 939 1076 q 914 1069 924 1072 q 862 1050 892 1061 q 809 1031 832 1039 q 782 1024 786 1024 m 1194 1143 q 1163 1154 1190 1143 q 1101 1181 1135 1165 q 1044 1207 1068 1196 q 999 1264 999 1233 q 1022 1290 999 1290 q 1049 1277 1029 1290 q 1096 1244 1069 1264 q 1148 1203 1122 1224 q 1190 1169 1174 1183 q 1207 1154 1207 1156 q 1194 1143 1207 1143 z "}}}
